<?xml version="1.0" standalone="no"?><!DOCTYPE svg PUBLIC "-//W3C//DTD SVG 1.1//EN" "http://www.w3.org/Graphics/SVG/1.1/DTD/svg11.dtd"><svg class="icon" width="200px" height="200.00px" viewBox="0 0 1024 1024" version="1.1" xmlns="http://www.w3.org/2000/svg"><path d="M873.2 447.2h-167c-11.8 0-21.4 9.6-21.4 21.4 0 11.8 9.6 21.4 21.4 21.4h167c11.8 0 21.4 9.6 21.4 21.4 0 11.8-9.6 21.4-21.4 21.4H618.6v-298c0-51.4-57.6-81.8-100-53L113.2 458.2C76 483.6 76 538.6 113.2 564l405.2 276.4c42.6 29 100-1.4 100-52.8V575.2h254.6c35.4 0 64-28.6 64-64 0.2-35.4-28.4-64-63.8-64z m-297.4 85.2h-107c-11.8 0-21.4 9.6-21.4 21.4 0 11.8 9.6 21.4 21.4 21.4h107v212.4c0 17.2-19.2 27.2-33.4 17.6L137.4 528.8c-12.4-8.4-12.4-26.8 0-35.2l405.2-276.4c14.2-9.6 33.4 0.6 33.4 17.6v297.6z" /></svg>