<?xml version="1.0" standalone="no"?><!DOCTYPE svg PUBLIC "-//W3C//DTD SVG 1.1//EN" "http://www.w3.org/Graphics/SVG/1.1/DTD/svg11.dtd"><svg class="icon" width="200px" height="200.00px" viewBox="0 0 1024 1024" version="1.1" xmlns="http://www.w3.org/2000/svg"><path d="M909.2 458.2L504 181.8c-42.6-29-100 1.4-100 53v212.4H149.4c-35.4 0-64 28.6-64 64s28.6 64 64 64h167c11.8 0 21.4-9.6 21.4-21.4 0-11.8-9.6-21.4-21.4-21.4H149.4c-11.8 0-21.4-9.6-21.4-21.4 0-11.8 9.6-21.4 21.4-21.4H404v297.8c0 51.4 57.6 81.8 100 52.8L909.2 564c37.4-25.4 37.4-80.4 0-105.8z m-24 70.6L480 805.2c-14.2 9.6-33.4-0.6-33.4-17.6V489.8h107c11.8 0 21.4-9.6 21.4-21.4 0-11.8-9.6-21.4-21.4-21.4h-107V234.8c0-17.2 19.2-27.4 33.4-17.6l405.2 276.4c12.4 8.4 12.4 26.6 0 35.2z" /></svg>