<?xml version="1.0" standalone="no"?><!DOCTYPE svg PUBLIC "-//W3C//DTD SVG 1.1//EN" "http://www.w3.org/Graphics/SVG/1.1/DTD/svg11.dtd"><svg class="icon" width="200px" height="200.00px" viewBox="0 0 1024 1024" version="1.1" xmlns="http://www.w3.org/2000/svg"><path d="M874.6 213.4H149.4c-35.4 0-64 28.6-64 64v469.4c0 35.4 28.6 64 64 64h725.4c35.4 0 64-28.6 64-64V277.4c-0.2-35.4-28.8-64-64.2-64z m21.4 128H192c-11.8 0-21.4 9.6-21.4 21.4 0 11.8 9.6 21.4 21.4 21.4h704v362.6c0 11.8-9.6 21.4-21.4 21.4H149.4c-11.8 0-21.4-9.6-21.4-21.4V277.4c0-11.8 9.6-21.4 21.4-21.4h725.4c11.8 0 21.4 9.6 21.4 21.4v64zM725.4 661.4H640c-11.8 0-21.4-9.6-21.4-21.4v-42.6c0-11.8 9.6-21.4 21.4-21.4h128c11.8 0 21.4 9.6 21.4 21.4V640c0 11.8 9.6 21.4 21.4 21.4 11.8 0 21.4-9.6 21.4-21.4v-42.6c0-35.4-28.6-64-64-64h-128c-35.4 0-64 28.6-64 64V640c0 35.4 28.6 64 64 64h85.4c11.8 0 21.4-9.6 21.4-21.4-0.4-11.8-9.8-21.2-21.6-21.2z" /></svg>