<?xml version="1.0" standalone="no"?><!DOCTYPE svg PUBLIC "-//W3C//DTD SVG 1.1//EN" "http://www.w3.org/Graphics/SVG/1.1/DTD/svg11.dtd"><svg class="icon" width="200px" height="200.00px" viewBox="0 0 1024 1024" version="1.1" xmlns="http://www.w3.org/2000/svg"><path d="M820 85.4h-104c-30.2 0-54.8 24.6-54.8 54.8v372.6h-116c-4.2 0-8.2 0.4-12 1.4v-116.8c0-30.2-24.6-54.8-54.8-54.8h-103.8c-30.2 0-54.8 24.6-54.8 54.8V682h-116c-30.2 0-54.8 24.6-54.8 54.6v103.8c0 30.2 24.6 54.8 54.8 54.8H336c1.6 0.4 3.2 0.6 5 0.6s3.4-0.2 5-0.6h80.4c11.8 0 21.4-9.6 21.4-21.4 0-11.8-9.6-21.4-21.4-21.4h-64V397.2c0-6.6 5.4-12.2 12-12.2h103.8c6.6 0 12 5.4 12 12.2v520.2c0 11.8 9.6 21.4 21.4 21.4s21.4-9.6 21.4-21.4V896h287.2c30.2 0 54.6-24.6 54.6-54.8V140c-0.2-30.2-24.6-54.6-54.8-54.6zM320 852.8h-116c-6.6 0-12-5.4-12-12v-103.8c0-6.6 5.4-12 12-12h116v127.8z m512-11.6c0 6.6-5.4 12-12 12H533.4v-286c0-6.6 5.4-12 12-12h116v234c0 11.8 9.6 21.4 21.4 21.4 11.8 0 21.4-9.6 21.4-21.4v-234h21.4c11.8 0 21.4-9.6 21.4-21.4s-9.6-21.4-21.4-21.4H704V140c0-6.6 5.4-12 12-12h104c6.6 0 12 5.4 12 12v701.2z" /></svg>