<?xml version="1.0" standalone="no"?><!DOCTYPE svg PUBLIC "-//W3C//DTD SVG 1.1//EN" "http://www.w3.org/Graphics/SVG/1.1/DTD/svg11.dtd"><svg class="icon" width="200px" height="200.00px" viewBox="0 0 1024 1024" version="1.1" xmlns="http://www.w3.org/2000/svg"><path d="M919.2 527l-63.8-63.8c9.4-22.2 17.6-44.6 24.2-66.4 44.6-146.4 12.8-248-112.4-248-35.8 0-70.2 4.6-102.8 13.6-11.4 3.2-18 14.8-15 26.2 3 11.4 14.8 18 26.2 15 29-8 59.6-12 91.6-12 87.2 0 109 69.8 71.6 193-4.6 15.2-10 30.6-16.2 46L496.4 104c-25-25-65.6-25-90.6 0L104.2 405.8c-25 25-25 65.6 0 90.6l157.8 157.8c-18.6 76.6-28.8 163.4-28.8 260.6 0 11.8 9.6 21.4 21.4 21.4 11.8 0 21.4-9.6 21.4-21.4 0-83 7.8-157.8 21.8-224.8l229.4 229.4c12 12 28.4 18.8 45.2 18.8l301.8-0.2c35.4 0 64-28.6 64-64V572.2c-0.2-16.8-7-33.2-19-45.2z m-24 346.8c0 11.8-9.6 21.4-21.4 21.4l-301.6 0.2c-5.6 0-11.2-2.2-15.2-6.2l-247.6-248c10.8-39.6 23.8-76 38.8-109.6 15.6-34.8 32.4-63.8 49-87.2 9.8-13.6 17-22.4 20.8-26.2 8.4-8.4 8.4-21.8 0-30.2-8.4-8.4-21.8-8.4-30.2 0-5.4 5.4-14.4 16-25.4 31.6-18.2 25.6-36.2 57-53 94.4-13 28.8-24.6 59.6-34.4 92.6L134.4 466c-8.4-8.4-8.4-21.8 0-30.2L436 134.2c8.4-8.4 21.8-8.4 30.2 0l338.4 338.4c-38.4 82-91.8 159-135.6 192.4-9.4 7.2-11.2 20.6-4 30 7.2 9.4 20.6 11.2 30 4 47-35.8 101.2-111.8 141.6-194.2l52.4 52.4c4 4 6.2 9.4 6.2 15v301.6zM682 746c35.4 0 64-28.6 64-64 0-11.8 9.6-21.4 21.4-21.4s21.4 9.6 21.4 21.4c0 58.8-47.8 106.6-106.6 106.6s-106.6-47.8-106.6-106.6 47.8-106.6 106.6-106.6c11.8 0 21.4 9.6 21.4 21.4S693.8 618 682 618c-35.4 0-64 28.6-64 64s28.8 64 64 64z" /></svg>