<?xml version="1.0" standalone="no"?><!DOCTYPE svg PUBLIC "-//W3C//DTD SVG 1.1//EN" "http://www.w3.org/Graphics/SVG/1.1/DTD/svg11.dtd"><svg class="icon" width="200px" height="200.00px" viewBox="0 0 1024 1024" version="1.1" xmlns="http://www.w3.org/2000/svg"><path d="M663.2 469.8l-24.4 70.6c-3.8 11.2-16 17-27.2 13.2-11.2-3.8-17-16-13.2-27.2l102.4-295.8c8.2-23 40.4-23 48.2 0.2L852 526.4c3.8 11.2-2 23.2-13.2 27.2-11.2 3.8-23.2-2-27.2-13.2l-86.8-249.2-46.8 135.8h47.4c11.8 0 21.4 9.6 21.4 21.4 0 11.8-9.6 21.4-21.4 21.4h-62.2zM262.6 660.8L212 796.4c-4.2 11-16.4 16.6-27.4 12.6-11-4.2-16.6-16.4-12.6-27.4l204.8-548c9.6-26 46.2-26 56-0.2l205.8 548.2c4.2 11-1.4 23.4-12.4 27.4-11 4.2-23.4-1.4-27.4-12.4l-193.8-516.2-126.4 338.2h190.8c11.8 0 21.4 9.6 21.4 21.4 0 11.8-9.6 21.4-21.4 21.4H262.6z" /></svg>