<?xml version="1.0" standalone="no"?><!DOCTYPE svg PUBLIC "-//W3C//DTD SVG 1.1//EN" "http://www.w3.org/Graphics/SVG/1.1/DTD/svg11.dtd"><svg class="icon" width="200px" height="200.00px" viewBox="0 0 1024 1024" version="1.1" xmlns="http://www.w3.org/2000/svg"><path d="M879.2 355.8l-153.8 66v-16.4c0-35.4-28.6-64-64-64h-64v-64c0-35.4-28.6-64-64-64H234.6c-11.8 0-21.4 9.6-21.4 21.4 0 11.8 9.6 21.4 21.4 21.4h298.6c11.8 0 21.4 9.6 21.4 21.4v64H149.4c-35.4 0-64 28.6-64 64v341.4c0 35.4 28.6 64 64 64h512c35.4 0 64-28.6 64-64V468.2l170.6-73.2v362l-97.8-42c-10.8-4.6-23.4 0.4-28 11.2s0.4 23.4 11.2 28l97.8 41.8c28.2 12.2 59.4-8.6 59.4-39.2v-362c0-30.4-31.2-51-59.4-39z m-196.6 390.8c0 11.8-9.6 21.4-21.4 21.4h-512c-11.8 0-21.4-9.6-21.4-21.4V405.4c0-11.8 9.6-21.4 21.4-21.4h405.4v42.6c0 11.8 9.6 21.4 21.4 21.4s21.4-9.6 21.4-21.4V384h64c11.8 0 21.4 9.6 21.4 21.4v341.2h-0.2zM234.6 426.6c-35.4 0-64 28.6-64 64s28.6 64 64 64 64-28.6 64-64-28.6-64-64-64z m0 85.4c-11.8 0-21.4-9.6-21.4-21.4s9.6-21.4 21.4-21.4c11.8 0 21.4 9.6 21.4 21.4s-9.6 21.4-21.4 21.4z" /></svg>