<?xml version="1.0" standalone="no"?><!DOCTYPE svg PUBLIC "-//W3C//DTD SVG 1.1//EN" "http://www.w3.org/Graphics/SVG/1.1/DTD/svg11.dtd"><svg class="icon" width="200px" height="200.00px" viewBox="0 0 1024 1024" version="1.1" xmlns="http://www.w3.org/2000/svg"><path d="M450 133.8C326.6 162 234.6 272.4 234.6 404v214.6h-21.4C166.2 618.8 128 657 128 704c0 47.2 38.2 85.4 85.4 85.4h597.4c47.2 0 85.4-38.2 85.4-85.4s-38.2-85.4-85.4-85.4h-21.4V404c0-131.8-92-242.2-215.2-270.4C567.2 106 542 85.4 512 85.4S456.8 106 450 133.8z m-108.8 485h-63.8V404c0-129.6 105-234.6 234.6-234.6S746.6 274.6 746.6 404v214.6H511.8c-11.8 0-21.4 9.6-21.4 21.4s9.6 21.4 21.4 21.4H762c2 0.6 4 0.8 6.2 0.8s4.2-0.4 6.2-0.8h36.6c23.6 0 42.6 19.2 42.6 42.6 0 23.6-19 42.6-42.6 42.6H213.4c-23.6 0-42.6-19-42.6-42.6s19.2-42.6 42.6-42.6h127.8c11.8 0 21.4-9.6 21.4-21.4s-9.6-21.2-21.4-21.2zM512 251.6c-82.4 0-149.4 66.8-149.4 149.4 0 11.8-9.6 21.4-21.4 21.4-11.8 0-21.4-9.6-21.4-21.4 0-106 86-192 192-192 11.8 0 21.4 9.6 21.4 21.4 0.2 11.6-9.4 21.2-21.2 21.2z m-85.4 604.6c0 45.6 38.4 82 85.4 82s85.4-36.4 85.4-82c0-11.8-9.6-21.4-21.4-21.4s-21.4 9.6-21.4 21.4c0 21.6-18.8 39.4-42.6 39.4s-42.6-17.8-42.6-39.4c0-11.8-9.6-21.4-21.4-21.4s-21.4 9.6-21.4 21.4z" /></svg>