<?xml version="1.0" standalone="no"?><!DOCTYPE svg PUBLIC "-//W3C//DTD SVG 1.1//EN" "http://www.w3.org/Graphics/SVG/1.1/DTD/svg11.dtd"><svg class="icon" width="200px" height="200.00px" viewBox="0 0 1024 1024" version="1.1" xmlns="http://www.w3.org/2000/svg"><path d="M829.4 384h-18.6v-64c0-35.8-30.6-64-67.6-64h-17.8V192c0-36-31.6-64-69.4-64H368c-37.8 0-69.4 28-69.4 64 0 11.8 9.6 21.4 21.4 21.4 11.8 0 21.4-9.6 21.4-21.4 0-11.2 11.4-21.4 26.6-21.4h288c15.2 0 26.6 10.2 26.6 21.4v64H280.8c-37 0-67.6 28.2-67.6 64v64h-18.6C158.2 384 128 412.4 128 448v384c0 35.6 30.2 64 66.6 64h634.6c36.6 0 66.6-28.4 66.6-64V448c0.2-35.6-30-64-66.4-64zM256 320c0-11.4 10.8-21.4 24.8-21.4h401.8v20.8c0 11.8 9.6 21.4 21.4 21.4s21.4-9.6 21.4-21.4v-20.8h17.8c14 0 24.8 10 24.8 21.4v64H256v-64z m597.4 512c0 11.4-10.4 21.4-24 21.4H194.6c-13.6 0-24-9.8-24-21.4V448c0-11.4 10.4-21.4 24-21.4h18.6V470c0 11.8 9.6 21.4 21.4 21.4 11.8 0 21.4-9.6 21.4-21.4v-43.4h573.4c13.6 0 24 9.8 24 21.4v384zM640 640v-43.2c0-11.8 9.6-21.4 21.4-21.4 11.8 0 21.4 9.6 21.4 21.4V640c0 24.4-21.4 42.6-46.2 42.6H387.6c-24.8 0-46.2-18.4-46.2-42.6v-43.2c0-11.8 9.6-21.4 21.4-21.4 11.8 0 21.4 9.6 21.4 21.4V640c0-0.4 0.2-0.4 1-0.2 0.6 0.2 1.4 0.2 2.6 0.2h248.8c1.2 0 2-0.2 2.6-0.2 0.6-0.2 0.8-0.2 0.8 0.2z" /></svg>