<?xml version="1.0" standalone="no"?><!DOCTYPE svg PUBLIC "-//W3C//DTD SVG 1.1//EN" "http://www.w3.org/Graphics/SVG/1.1/DTD/svg11.dtd"><svg t="1723604611797" class="icon" viewBox="0 0 6110 1024" version="1.1" xmlns="http://www.w3.org/2000/svg" p-id="6763" xmlns:xlink="http://www.w3.org/1999/xlink" width="1193.359375" height="200"><path d="M214.603541 817.95777c-40.624262 0-76.447475-7.755541-107.469639-23.266622-31.022164-15.511082-55.766033-36.561836-74.231607-63.152263C15.175344 704.948459 6.311869 675.03423 6.311869 641.796197c0-39.147016 10.340721-70.538492 31.022164-94.174427 20.681443-23.635934 54.288787-40.254951 100.822033-49.857049 46.533246-10.340721 108.208262-15.511082 185.025049-15.511082h39.885639v-18.834885c0-32.49941-7.38623-55.396721-22.158688-68.691934-14.772459-14.033836-39.885639-21.050754-75.339541-21.050754-29.544918 0-60.936393 4.801049-94.174427 14.403147-32.49941 8.863475-64.99882 22.528-97.498229 40.993574l-45.425312-111.901377c19.204197-12.55659 42.47082-24.005246 69.799869-34.345967a492.225049 492.225049 0 0 1 87.52682-23.266623c30.283541-5.908984 59.089836-8.863475 86.418885-8.863476 84.203016 0 146.985967 19.204197 188.348853 57.61259 41.362885 37.66977 62.044328 96.390295 62.044327 176.161574V805.770492h-156.218754v-81.987148c-11.079344 28.806295-29.91423 51.703607-56.504655 68.691935-25.851803 16.988328-57.61259 25.482492-95.282361 25.482491z m37.66977-111.901377c31.022164 0 57.243279-10.710033 78.663345-32.130098 21.420066-21.420066 32.130098-49.118426 32.130098-83.095082v-22.158688h-38.777705c-56.873967 0-97.128918 5.170361-120.764852 15.511082-23.635934 9.602098-35.453902 26.590426-35.453902 50.964983 0 20.681443 7.016918 37.66977 21.050754 50.964984 14.772459 13.295213 35.823213 19.94282 63.152262 19.942819zM647.403016 805.770492V261.774689h163.974295v94.174426c25.851803-63.521574 81.248525-98.606164 166.190164-105.253771l48.749115-3.323803 9.97141 140.707672-94.174426 9.97141c-82.72577 8.124852-124.088656 50.226361-124.088656 126.304525V805.770492H647.403016z m711.646427 12.187278c-59.089836 0-110.793443-11.448656-155.11082-34.345967-43.578754-23.635934-77.186098-56.873967-100.822033-99.714098-23.635934-42.840131-35.453902-93.435803-35.453901-151.787016s11.817967-108.577574 35.453901-150.679082c23.635934-42.101508 57.243279-74.231607 100.822033-96.390296 44.317377-22.897311 96.020984-34.345967 155.11082-34.345967 34.715279 0 69.799869 5.170361 105.25377 15.511082 35.453902 10.340721 64.260197 25.11318 86.418885 44.317377l-46.533246 115.225181a212.018361 212.018361 0 0 0-62.044327-34.345968c-22.897311-8.863475-45.056-13.295213-66.476066-13.295213-43.578754 0-77.55541 13.664525-101.929967 40.993574-23.635934 26.590426-35.453902 64.629508-35.453902 114.117246 0 48.749115 11.817967 87.157508 35.453902 115.22518 24.374557 27.329049 58.351213 40.993574 101.929967 40.993574 20.681443 0 42.47082-4.062426 65.368131-12.187279a196.540852 196.540852 0 0 0 63.152262-35.453901l46.533246 115.22518c-22.158689 19.204197-50.964984 34.345967-86.418885 45.425312-35.453902 10.340721-70.538492 15.511082-105.25377 15.511081z m514.937705 0c-58.351213 0-109.316197-11.448656-152.894951-34.345967-42.823344-23.635934-76.061377-56.504656-99.714099-98.606164-23.619148-42.840131-35.437115-93.435803-35.437114-151.787016 0-57.61259 11.817967-107.469639 35.453901-149.571148 23.619148-42.840131 56.873967-75.708852 99.697312-98.606164 43.578754-22.897311 94.543738-34.345967 152.894951-34.345967 58.351213 0 108.946885 11.448656 151.787016 34.345967 43.578754 22.897311 77.186098 55.766033 100.822033 98.606164 24.374557 42.101508 36.561836 91.958557 36.561836 149.571148 0 58.351213-12.187279 108.946885-36.561836 151.787016-23.635934 42.101508-57.243279 74.97023-100.822033 98.606164-42.840131 22.897311-93.435803 34.345967-151.787016 34.345967z m0-125.19659c35.453902 0 64.260197-12.925902 86.418885-38.777705 22.897311-25.851803 34.345967-66.106754 34.345967-120.764852 0-53.919475-11.448656-93.435803-34.345967-118.548984-22.158689-25.851803-50.964984-38.777705-86.418885-38.777705-35.453902 0-64.260197 12.925902-86.418886 38.777705-22.158689 25.11318-33.238033 64.629508-33.238032 118.548984 0 54.658098 11.079344 94.913049 33.238032 120.764852 22.158689 25.851803 50.964984 38.777705 86.418886 38.777705zM2587.715148 805.770492V24.676721h305.789901c132.952131 0 235.990033 33.976656 309.113705 101.929968 73.123672 67.214689 109.685508 163.235672 109.685508 288.06295s-36.561836 221.217574-109.685508 289.170886C3129.495082 771.793836 3026.45718 805.770492 2893.505049 805.770492h-305.789901z m171.729836-140.707672h124.088655c166.190164 0 249.285246-83.464393 249.285246-250.393181 0-166.190164-83.095082-249.285246-249.285246-249.285246h-124.088655v499.678427z m954.384786 152.89495c-64.260197 0-119.656918-11.448656-166.190163-34.345967-45.794623-23.635934-81.248525-56.504656-106.361705-98.606164-24.374557-42.840131-36.561836-93.066492-36.561836-150.679082 0-56.135344 11.817967-105.25377 35.453901-147.355278 24.374557-42.840131 57.243279-76.078164 98.606164-99.714099 42.101508-24.374557 90.481311-36.561836 145.13941-36.561836 79.032656 0 141.815607 25.11318 188.348852 75.339541 46.533246 49.487738 69.799869 116.702426 69.799869 201.644066v42.101508h-377.805639c5.908984 42.840131 21.420066 74.231607 46.533246 94.174426 25.851803 19.204197 61.305705 28.806295 106.361705 28.806295 29.544918 0 59.459148-4.431738 89.742688-13.295213a251.467541 251.467541 0 0 0 81.987148-40.993574l44.317377 111.901377c-27.329049 20.681443-60.936393 37.300459-100.822033 49.85705a408.173115 408.173115 0 0 1-118.548984 17.72695z m-23.266622-456.468983c-35.453902 0-64.260197 10.710033-86.418886 32.130098-21.420066 21.420066-34.715279 51.334295-39.885639 89.742689h239.313836c-4.431738-81.248525-42.101508-121.872787-113.009311-121.872787z m557.10636 456.468983c-48.010492 0-92.69718-5.539672-134.060065-16.619016-41.362885-11.079344-75.708852-26.221115-103.037902-45.425311l39.885639-108.577574c27.329049 16.988328 58.351213 30.652852 93.066492 40.993574 35.453902 9.602098 70.538492 14.403148 105.253771 14.403147 31.022164 0 53.919475-4.801049 68.691934-14.403147 14.772459-10.340721 22.158689-23.635934 22.158689-39.88564 0-25.851803-18.834885-42.101508-56.504656-48.749114l-116.333115-21.050755c-46.533246-8.124852-81.987148-24.743869-106.361705-49.857049-24.374557-25.11318-36.561836-57.981902-36.561836-98.606164 0-36.931148 10.340721-68.691934 31.022164-95.28236 20.681443-26.590426 49.118426-47.271869 85.310951-62.044328 36.192525-14.772459 77.924721-22.158689 125.19659-22.158689 39.147016 0 77.186098 5.170361 114.117246 15.511082 36.931148 9.602098 68.691934 25.11318 95.282361 46.533246l-42.101509 107.469639c-22.158689-16.249705-48.749115-29.544918-79.771278-39.885639-30.283541-10.340721-58.720525-15.511082-85.310951-15.511082-33.238033 0-57.243279 5.539672-72.015738 16.619017-14.772459 10.340721-22.158689 23.635934-22.158688 39.885639 0 25.851803 17.357639 42.101508 52.072918 48.749115l116.333114 21.050754c48.010492 8.124852 84.572328 24.374557 109.685509 48.749115 25.11318 23.635934 37.66977 56.135344 37.66977 97.498229 0 56.873967-22.158689 101.191344-66.476065 132.952131-44.317377 31.760787-102.66859 47.64118-175.05364 47.64118z m330.365902-661.436852V0.302164h180.593311v156.218754h-180.593311zM4584.683016 805.770492V261.774689h167.298099V805.770492h-167.298099z m557.928918 211.615475c-52.44223 0-101.560656-5.539672-147.355278-16.619016-45.056-11.079344-84.572328-28.436984-118.548984-52.072918l45.425312-114.117246c29.544918 18.465574 62.782951 32.49941 99.714098 42.101508 37.66977 10.340721 73.123672 15.511082 106.361705 15.511082 94.543738 0 141.815607-43.578754 141.815606-130.736262v-62.044328c-14.772459 28.067672-38.039082 50.595672-69.799868 67.584-31.760787 16.988328-66.476066 25.482492-104.145836 25.482492-48.749115 0-91.219934-11.079344-127.412459-33.238033-36.192525-22.897311-64.260197-54.658098-84.203017-95.282361-19.94282-40.624262-29.91423-88.265443-29.914229-142.923541 0-53.919475 9.97141-101.191344 29.914229-141.815606 19.94282-40.624262 48.010492-72.015738 84.203017-94.174427 36.192525-22.897311 78.663344-34.345967 127.412459-34.345967 39.147016 0 74.231607 8.494164 105.25377 25.482492 31.022164 16.988328 53.919475 39.516328 68.691934 67.584v-81.987147h162.866361v480.843541c0 91.589246-24.743869 160.28118-74.231606 206.075803-49.487738 45.794623-121.503475 68.691934-216.047214 68.691934z m3.323804-350.107278c36.931148 0 66.476066-12.925902 88.634754-38.777705 22.897311-25.851803 34.345967-61.675016 34.345967-107.46964s-11.448656-81.248525-34.345967-106.361705c-22.158689-25.851803-51.703607-38.777705-88.634754-38.777705-37.66977 0-67.584 12.925902-89.742689 38.777705-22.158689 25.11318-33.238033 60.567082-33.238033 106.361705s11.079344 81.617836 33.238033 107.46964c22.158689 25.851803 52.072918 38.777705 89.742689 38.777705zM5562.787672 805.770492V261.774689h163.974295v79.771278a181.919475 181.919475 0 0 1 74.231607-67.584c31.022164-15.511082 65.737443-23.266623 104.145836-23.266623 64.260197 0 112.270689 18.834885 144.031475 56.504656 31.760787 36.931148 47.64118 94.174426 47.641181 171.729836V805.770492h-167.298099V486.685377c0-37.66977-7.016918-64.629508-21.050754-80.879213-14.033836-16.988328-34.715279-25.482492-62.044328-25.482492-35.453902 0-63.890885 11.079344-85.310951 33.238033-20.681443 22.158689-31.022164 51.703607-31.022164 88.634754V805.770492h-167.298098z" p-id="6764"></path></svg>