<?xml version="1.0" standalone="no"?><!DOCTYPE svg PUBLIC "-//W3C//DTD SVG 1.1//EN" "http://www.w3.org/Graphics/SVG/1.1/DTD/svg11.dtd"><svg class="icon" width="200px" height="200.00px" viewBox="0 0 1024 1024" version="1.1" xmlns="http://www.w3.org/2000/svg"><path d="M0 0h1024v1024H0z" fill="#FFFFFF" /><path d="M563.8 621l280.4-280.4c58.4-58.4 58.4-153 0-211.4-58.4-58.4-153-58.4-211.4 0l-282 282-0.6 0.6-159.8 159.8c-83.4 83.4-83.4 218.4 0 301.8 83.2 83.2 218.4 83.2 301.6 0L891.4 474c8.4-8.4 8.4-21.8 0-30.2-8.4-8.4-21.8-8.4-30.2 0L462 843c-66.6 66.6-174.6 66.6-241.4 0-66.6-66.6-66.6-174.8 0-241.4L643 179.2l0.6-0.6 19.4-19.4c41.8-41.8 109.4-41.8 151 0 41.8 41.8 41.8 109.4 0 151L603.4 521c-0.2 0.2-0.4 0.2-0.4 0.4l-69.4 69.4-1.4 1.4-161 161c-16.8 16.8-44 16.8-60.6 0-16.8-16.8-16.8-44 0-60.6l211.6-211.6c8.4-8.4 8.4-21.8 0-30.2-8.4-8.4-21.8-8.4-30.2 0L280.4 662.4c-33.4 33.4-33.4 87.6 0 121 33.4 33.4 87.6 33.4 121 0l161-161 1.4-1.4z"  /></svg>