<?xml version="1.0" standalone="no"?><!DOCTYPE svg PUBLIC "-//W3C//DTD SVG 1.1//EN" "http://www.w3.org/Graphics/SVG/1.1/DTD/svg11.dtd"><svg class="icon" width="200px" height="200.00px" viewBox="0 0 1024 1024" version="1.1" xmlns="http://www.w3.org/2000/svg"><path d="M728.177778 22.755556c17.066667 17.066667 28.444444 39.822222 28.444444 62.577777h45.511111c73.955556 0 130.844444 51.2 136.533334 119.466667v688.355556c0 68.266667-56.888889 125.155556-130.844445 125.155555H164.977778C91.022222 1018.311111 34.133333 967.111111 28.444444 898.844444V210.488889c0-68.266667 56.888889-125.155556 130.844445-125.155556h51.2C210.488889 39.822222 250.311111 0 301.511111 0h364.088889c22.755556 0 45.511111 11.377778 62.577778 22.755556zM210.488889 170.666667h-45.511111c-22.755556 0-39.822222 17.066667-45.511111 39.822222v688.355555c0 22.755556 17.066667 39.822222 39.822222 39.822223H802.133333c22.755556 0 39.822222-17.066667 45.511111-39.822223V210.488889c0-22.755556-17.066667-39.822222-39.822222-39.822222h-51.2c0 45.511111-39.822222 85.333333-91.022222 85.333333H301.511111c-51.2 0-91.022222-39.822222-91.022222-85.333333z m455.111111 466.488889c22.755556 0 45.511111 17.066667 45.511111 45.511111s-22.755556 39.822222-45.511111 45.511111H301.511111c-22.755556-5.688889-45.511111-22.755556-45.511111-45.511111s22.755556-39.822222 45.511111-45.511111h364.088889z m0-210.488889c22.755556 0 45.511111 17.066667 45.511111 45.511111 0 22.755556-22.755556 39.822222-45.511111 39.822222H301.511111c-22.755556 0-45.511111-17.066667-45.511111-45.511111 0-22.755556 22.755556-39.822222 45.511111-45.511111h364.088889v5.688889z m0-341.333334H301.511111V170.666667h364.088889V85.333333z" /></svg>