<?xml version="1.0" standalone="no"?><!DOCTYPE svg PUBLIC "-//W3C//DTD SVG 1.1//EN" "http://www.w3.org/Graphics/SVG/1.1/DTD/svg11.dtd"><svg class="icon" width="200px" height="200.00px" viewBox="0 0 1024 1024" version="1.1" xmlns="http://www.w3.org/2000/svg"><path d="M874.6 384h-21.4v-21.4c0-35.4-28.6-64-64-64h-640c-35.4 0-64 28.6-64 64v298.6c0 35.4 28.6 64 64 64h640c35.4 0 64-28.6 64-64V640h21.4c35.4 0 64-28.6 64-64v-128c0-35.4-28.6-64-64-64z m-64 0H768c-11.8 0-21.4 9.6-21.4 21.4 0 11.8 9.6 21.4 21.4 21.4h42.8v234.6c0 11.8-9.6 21.4-21.4 21.4h-640c-11.8 0-21.4-9.6-21.4-21.4V362.6c0-11.8 9.6-21.4 21.4-21.4h640c11.8 0 21.4 9.6 21.4 21.4V384z m85.4 192c0 11.8-9.6 21.4-21.4 21.4h-21.4v-170.6h21.4c11.8 0 21.4 9.6 21.4 21.4V576zM213.4 405.8v213.4c0 11.8-9.6 21.4-21.4 21.4-11.8 0-21.4-9.6-21.4-21.4V405.8c0-11.8 9.6-21.4 21.4-21.4 11.8 0 21.4 9.6 21.4 21.4zM298.8 619V405.8c0-11.8-9.6-21.4-21.4-21.4S256 394 256 405.8v213.4c0 11.8 9.6 21.4 21.4 21.4s21.4-9.8 21.4-21.6zM384 405.8v213.4c0 11.8-9.6 21.4-21.4 21.4-11.8 0-21.4-9.6-21.4-21.4V405.8c0-11.8 9.6-21.4 21.4-21.4 12 0 21.4 9.6 21.4 21.4zM469.4 619V405.8c0-11.8-9.6-21.4-21.4-21.4s-21.4 9.6-21.4 21.4v213.4c0 11.8 9.6 21.4 21.4 21.4s21.4-9.8 21.4-21.6z" /></svg>