<?xml version="1.0" standalone="no"?><!DOCTYPE svg PUBLIC "-//W3C//DTD SVG 1.1//EN" "http://www.w3.org/Graphics/SVG/1.1/DTD/svg11.dtd"><svg class="icon" width="200px" height="200.00px" viewBox="0 0 1024 1024" version="1.1" xmlns="http://www.w3.org/2000/svg"><path d="M334 325.2l106.4 91.6c9 7.6 10 21.2 2.2 30-7.6 9-21.2 10-30 2.2l-106.4-91.6c-9-7.6-10-21.2-2.2-30 7.6-9 21-10 30-2.2zM703.8 643.2L551.4 512l151.6-130.2c29.6-26 29.6-69 0.2-94.8l-159.6-150.6c-20-17.6-53.2-5.6-53.2 21.8v350l-184 158.2c-9 7.6-10 21.2-2.2 30 7.6 9 21.2 10 30 2.2l184.6-158.6 157.4 135.2c9.8 8.6 9.8 21.6-0.2 30.4l-143 133.4V618.8c0-11.8-9.6-21.4-21.4-21.4-11.8 0-21.4 9.6-21.4 21.4v247c0 27.2 33.2 39.4 52.6 22.4l161.6-150.8c28.8-25.4 28.8-68.4-0.6-94.2z m-171-458l141.6 133.4c10.6 9.2 10.6 22.2 0.6 31l-142.2 122.2V185.2z" /></svg>