<?xml version="1.0" standalone="no"?><!DOCTYPE svg PUBLIC "-//W3C//DTD SVG 1.1//EN" "http://www.w3.org/Graphics/SVG/1.1/DTD/svg11.dtd"><svg class="icon" width="200px" height="200.00px" viewBox="0 0 1024 1024" version="1.1" xmlns="http://www.w3.org/2000/svg"><path d="M768 211V150c0-35.6-28.6-64.6-64-64.6H320c-35.4 0-64 29-64 64.6v758.8c0 26 30.8 39.8 50 22.2l192.2-176.8c8-7.4 20.4-7.4 28.4 0l191.4 176.6c19.2 17.8 50 4 50-22V215.6c0-0.8 0.2-1.6 0.2-2.4 0-0.6-0.2-1.4-0.2-2.2zM725.4 192H362.8c-11.8 0-21.4 9.6-21.4 21.4 0 11.8 9.6 21.4 21.4 21.4h362.6v644.8l-169.8-156.8a63.272 63.272 0 0 0-86.2 0l-170.6 156.8V150c0-12.2 9.6-22 21.2-22h384c11.6 0 21.2 9.8 21.2 22v42z" /></svg>