<?xml version="1.0" standalone="no"?><!DOCTYPE svg PUBLIC "-//W3C//DTD SVG 1.1//EN" "http://www.w3.org/Graphics/SVG/1.1/DTD/svg11.dtd"><svg class="icon" width="200px" height="200.00px" viewBox="0 0 1024 1024" version="1.1" xmlns="http://www.w3.org/2000/svg"><path d="M0 0h1024v1024H0z"  /><path d="M725.4 320v21.4c0 11.8-9.6 21.4-21.4 21.4-11.8 0-21.4-9.6-21.4-21.4V320H149.4c-11.8 0-21.4 9.6-21.4 21.4v213.4c0 11.8 9.6 21.4 21.4 21.4h277.4v-21.2c0-35.4 28.6-64 64-64h42.6c35.4 0 64 28.6 64 64V576h277.4c11.8 0 21.4-9.6 21.4-21.4V341.4c0-11.8-9.6-21.4-21.4-21.4h-149.4z m0-42.6h149.4c35.4 0 64 28.6 64 64v213.4c0 35.4-28.6 64-64 64H597.4v21.6c0 35.4-28.6 64-64 64h-42.6c-35.4 0-64-28.6-64-64v-21.6h-256v-21.4c0-11.8-9.6-21.4-21.4-21.4-11.8 0-21.4 9.6-21.4 21.4v17.6c-24.8-8.8-42.6-32.4-42.6-60.4V341.4c0-35.4 28.6-64 64-64h533.4v-64c0-11.8-9.6-21.4-21.4-21.4H362.6c-11.8 0-21.4 9.6-21.4 21.4 0 11.8-9.6 21.4-21.4 21.4s-21.4-9.6-21.4-21.4c0-35.4 28.6-64 64-64h298.6c35.4 0 64 28.6 64 64v64zM128 615c6.6 2.4 13.8 3.6 21.4 3.6h21.4v192c0 11.8 9.6 21.4 21.4 21.4h640c11.8 0 21.4-9.6 21.4-21.4v-128c0-11.8 9.6-21.4 21.4-21.4 11.8 0 21.4 9.6 21.4 21.4v128c0 35.4-28.6 64-64 64H192c-35.4 0-64-28.6-64-64v-195.6z m426.6 3.6H534c-11.8 0-21.4-9.6-21.4-21.4 0-11.8 9.6-21.4 21.4-21.4h20.8v-21.2c0-11.8-9.6-21.4-21.4-21.4h-42.6c-11.8 0-21.4 9.6-21.4 21.4V640c0 11.8 9.6 21.4 21.4 21.4h42.6c11.8 0 21.4-9.6 21.4-21.4v-21.4z"  /></svg>