<?xml version="1.0" standalone="no"?><!DOCTYPE svg PUBLIC "-//W3C//DTD SVG 1.1//EN" "http://www.w3.org/Graphics/SVG/1.1/DTD/svg11.dtd"><svg class="icon" width="200px" height="200.00px" viewBox="0 0 1024 1024" version="1.1" xmlns="http://www.w3.org/2000/svg"><path d="M874.6 235h-55.2c-16.6-37.8-54.6-64.4-99-64.4-43.4 0-82 25.6-99 64.4H396.2c-16.6-37.8-54.6-64.4-99-64.4-43.4 0-82 25.6-99 64.4H149.4c-35.4 0-64 28.6-64 64v469.4c0 35.4 28.6 64 64 64h725.4c35.4 0 64-28.6 64-64V299c-0.2-35.4-28.8-64-64.2-64z m-154.2-21.6c19.4 0 37 8.4 48.8 21.6h-97.8c12.2-13.4 29.8-21.6 49-21.6z m-423.2 0c19.4 0 37 8.4 48.8 21.6h-97.6c12-13.4 29.6-21.6 48.8-21.6zM896 768.4c0 11.8-9.6 21.4-21.4 21.4H149.4c-11.8 0-21.4-9.6-21.4-21.4V491.6h705.2c11.8 0 21.4-9.6 21.4-21.4 0-11.8-9.6-21.4-21.4-21.4H128v-149.8c0-11.8 9.6-21.4 21.4-21.4h213c-0.2 35.2-29.2 63.6-65 63.6-15.6 0-30.4-5.4-42-15.2-9-7.6-22.6-6.2-30 2.8-7.6 9-6.2 22.6 2.8 30 19.4 16 43.6 25 69.2 25 59.4 0 107.6-47.6 107.8-106.4h380.6c-0.2 35-29.2 63.6-65 63.6-15.6 0-30.2-5.4-42-15.2-9-7.6-22.6-6.2-30 2.8-7.6 9-6.2 22.6 2.8 30 19.4 16 43.6 25 69.2 25 59.4 0 107.6-47.6 107.8-106.4h46.4c11.8 0 21.4 9.6 21.4 21.4v469.8z" /></svg>