<?xml version="1.0" standalone="no"?><!DOCTYPE svg PUBLIC "-//W3C//DTD SVG 1.1//EN" "http://www.w3.org/Graphics/SVG/1.1/DTD/svg11.dtd"><svg class="icon" width="200px" height="200.00px" viewBox="0 0 1024 1024" version="1.1" xmlns="http://www.w3.org/2000/svg"><path d="M0 0h1024v1024H0z" fill="#FFFFFF" /><path d="M680.8 362.2c0 12-9.6 21.6-21.4 21.6h-144.4c-1-0.2-2.2-0.2-3.2-0.2-106 0-192 86-192 192s86 192 192 192 192-86 192-192c0-38.8-11.6-75.8-32.8-107.4-6.6-9.8-19.8-12.4-29.6-5.8-9.8 6.6-12.4 19.8-5.8 29.6 16.6 24.6 25.4 53.4 25.4 83.4 0 82.4-66.8 149.4-149.4 149.4s-149.4-66.8-149.4-149.4c0-81.2 64.8-147.2 145.4-149.2 1 0.2 1.8 0.2 2.8 0.2h148.6c35.4 0 64-28.6 64-64l0.2-22.4h151c11.8 0 21.4 9.6 21.4 21.4V788c0 11.8-9.6 21.4-21.4 21.4H149.4c-11.8 0-21.4-9.6-21.4-21.4V361.4c0-11.8 9.6-21.4 21.4-21.4h161l-10.8 38.2c-3.2 11.4 3.4 23.2 14.6 26.4 11.4 3.2 23.2-3.4 26.4-14.6l14.2-49.8h326.4l-0.4 22z m193.8-64.8h-156.8L695 228c-12.6-38.2-30-57.2-63-57.2H405.4c-33 0-53.8 23.4-63.2 58.4l-19.4 68.2H149.4c-35.4 0-64 28.6-64 64V788c0 35.4 28.6 64 64 64h725.4c35.4 0 64-28.6 64-64V361.4c-0.2-35.4-28.8-64-64.2-64z m-220.2-56l18.6 56h-306l16.2-56.8c5-18.8 12.6-27.2 22.2-27.2H632c10 0 14.8 5.4 22.4 28z m-99.8 335.2c0-23.6-19-42.6-42.6-42.6s-42.6 19-42.6 42.6 19 42.6 42.6 42.6 42.6-19 42.6-42.6zM512 662c47.2 0 85.4-38.2 85.4-85.4s-38.2-85.4-85.4-85.4-85.4 38.2-85.4 85.4S464.8 662 512 662z"  /></svg>