<?xml version="1.0" standalone="no"?><!DOCTYPE svg PUBLIC "-//W3C//DTD SVG 1.1//EN" "http://www.w3.org/Graphics/SVG/1.1/DTD/svg11.dtd"><svg class="icon" width="200px" height="200.00px" viewBox="0 0 1024 1024" version="1.1" xmlns="http://www.w3.org/2000/svg"><path d="M0 0h1024v1024H0z" fill="#FFFFFF" /><path d="M811.6 831.6V449.8c0-11.8 9.6-21.4 21.4-21.4 11.8 0 21.4 9.6 21.4 21.4v381.8c0 53.2-61 83.2-105 49l-82.2-80-72.8-69.2c-4-3.8-9.4-6-14.8-6l-395 0.2-35.6-0.4c-35.4-0.4-63.8-29.2-63.8-64.4V192c0-35.4 28.6-64 64-64h725.4c35.4 0 64 28.6 64 64v512c0 11.8-9.6 21.4-21.4 21.4-11.8 0-21.4-9.6-21.4-21.4V192c0-11.8-9.6-21.4-21.4-21.4H149.4C137.6 170.6 128 180.2 128 192v468.8c0 12 9.6 21.6 21.6 21.8l35.2 0.4 394.8-0.2c16.4 0 32.2 6.4 44.2 17.6l73 69.4 80.6 78.6c13.8 10.8 34.2 0.8 34.2-16.8zM654 419.2c-107.8 107.8-282.8 107.8-390.6 0-8.4-8.4-8.4-21.8 0-30.2 8.4-8.4 21.8-8.4 30.2 0 91.2 91.2 239.2 91.2 330.4 0 8.4-8.4 21.8-8.4 30.2 0 8.2 8.4 8.2 22-0.2 30.2z"  /></svg>