<?xml version="1.0" standalone="no"?><!DOCTYPE svg PUBLIC "-//W3C//DTD SVG 1.1//EN" "http://www.w3.org/Graphics/SVG/1.1/DTD/svg11.dtd"><svg t="1687761251124" class="icon" viewBox="0 0 1024 1024" version="1.1" xmlns="http://www.w3.org/2000/svg" p-id="3173" xmlns:xlink="http://www.w3.org/1999/xlink" width="200" height="200"><path d="M938.666667 981.333333a42.666667 42.666667 0 0 1-42.666667 42.666667H128a42.666667 42.666667 0 0 1-42.666667-42.666667V469.333333a42.666667 42.666667 0 0 1 42.666667-42.666666h768a42.666667 42.666667 0 0 1 42.666667 42.666666v512z m-85.333334-42.666666V512H170.666667v426.666667h682.666666zM640 42.666667a42.666667 42.666667 0 0 0-42.666667-42.666667h-170.666666a42.666667 42.666667 0 0 0-42.666667 42.666667v213.333333a42.666667 42.666667 0 0 0 85.333333 0V85.333333h85.333334v170.666667a42.666667 42.666667 0 1 0 85.333333 0V42.666667z" p-id="3174"></path><path d="M1024 256a42.666667 42.666667 0 0 0-42.666667-42.666667h-384a42.666667 42.666667 0 1 0 0 85.333334h341.333334v128H85.333333V298.666667h341.333334a42.666667 42.666667 0 1 0 0-85.333334H42.666667a42.666667 42.666667 0 0 0-42.666667 42.666667v213.333333a42.666667 42.666667 0 0 0 42.666667 42.666667h938.666666a42.666667 42.666667 0 0 0 42.666667-42.666667V256zM725.333333 725.333333a42.666667 42.666667 0 0 0-42.666666 42.666667v256h85.333333v-256a42.666667 42.666667 0 0 0-42.666667-42.666667zM512 725.333333a42.666667 42.666667 0 0 0-42.666667 42.666667v256h85.333334v-256a42.666667 42.666667 0 0 0-42.666667-42.666667zM298.666667 725.333333a42.666667 42.666667 0 0 0-42.666667 42.666667v256h85.333333v-256a42.666667 42.666667 0 0 0-42.666666-42.666667z" p-id="3175"></path></svg>