<?xml version="1.0" standalone="no"?><!DOCTYPE svg PUBLIC "-//W3C//DTD SVG 1.1//EN" "http://www.w3.org/Graphics/SVG/1.1/DTD/svg11.dtd"><svg class="icon" width="200px" height="200.00px" viewBox="0 0 1024 1024" version="1.1" xmlns="http://www.w3.org/2000/svg"><path d="M298.6 832h418.4c112.8 0 210.2-83 220.6-192.4 12-126.2-86.6-234.2-212.2-234.2h-1c-117.4 0.4-212.4 95.8-212.4 213.2 0 11.8 9.6 21.4 21.4 21.4 11.8 0 21.4-9.6 21.4-21.4 0-94.2 76.4-170.6 170.6-170.6h1c100 0.6 178.6 86.6 169 187.4-8.2 87-86.6 153.8-178.2 153.8H426.8c11.4-8.6 21.8-18.2 31.4-29 7.8-8.8 7-22.2-1.8-30.2-8.8-7.8-22.2-7-30.2 1.8-31.8 35.6-76.8 56.8-125.4 57.2h-2.2c-100.6 0-179.6-86.4-169.8-187.4 8.2-87 86.8-153.8 178.2-153.8 19.4 0 34.4-15 34.4-33.4 0-93.8 70.2-174 159.6-179.4 77-4.8 146.2 41.8 171.6 112.6 4 11 16.2 16.8 27.2 12.8s16.8-16.2 12.8-27.2c-31.8-88.6-118.4-146.8-214.4-140.8-109.6 6.8-195 101.2-199.4 213-109.4 3.8-202.4 85.6-212.6 192.4-12 126 86.2 233.8 211.6 234.2h0.8zM512 320c-47.2 0-85.4 38.2-85.4 85.4 0 11.8-9.6 21.4-21.4 21.4-11.8 0-21.4-9.6-21.4-21.4 0-70.8 57.2-128 128-128 11.8 0 21.4 9.6 21.4 21.4S523.8 320 512 320z" /></svg>