<?xml version="1.0" standalone="no"?><!DOCTYPE svg PUBLIC "-//W3C//DTD SVG 1.1//EN" "http://www.w3.org/Graphics/SVG/1.1/DTD/svg11.dtd"><svg class="icon" width="200px" height="200.00px" viewBox="0 0 1024 1024" version="1.1" xmlns="http://www.w3.org/2000/svg"><path d="M448 234.6v-128c0-11.8-9.6-21.4-21.4-21.4-11.8 0-21.4 9.6-21.4 21.4v128c0 11.8 9.6 21.4 21.4 21.4 11.8 0 21.4-9.6 21.4-21.4zM809.2 512H768v-64c0-35.4-28.6-64-64-64H149.4c-35.4 0-64 28.6-64 64v170.6c0 118.6 64.4 222 160.2 277.4H106.6c-11.8 0-21.4 9.6-21.4 21.4 0 11.8 9.6 21.4 21.4 21.4h640c11.8 0 21.4-9.6 21.4-21.4 0-11.8-9.6-21.4-21.4-21.4h-139c95.8-55.2 160.2-158.8 160.2-277.4v-64h41.2c47.2 0 85.4 38.2 85.4 85.4s-38.2 85.4-85.4 85.4h-7.4c-11.8 0-21.4 9.6-21.4 21.4s9.6 21.4 21.4 21.4h7.4c70.8 0 128-57.2 128-128S879.8 512 809.2 512z m-83.8 0H704c-11.8 0-21.4 9.6-21.4 21.4 0 11.8 9.6 21.4 21.4 21.4h21.4v64c0 153.2-124.2 277.4-277.4 277.4h-42.6C252.2 896 128 771.8 128 618.6V448c0-11.8 9.6-21.4 21.4-21.4H704c11.8 0 21.4 9.6 21.4 21.4v64zM320 149.4v128c0 11.8-9.6 21.4-21.4 21.4s-21.4-9.6-21.4-21.4v-128c0-11.8 9.6-21.4 21.4-21.4S320 137.6 320 149.4zM576 277.4v-128c0-11.8-9.6-21.4-21.4-21.4-11.8 0-21.4 9.6-21.4 21.4v128c0 11.8 9.6 21.4 21.4 21.4 11.8-0.2 21.4-9.6 21.4-21.4z" /></svg>