<?xml version="1.0" standalone="no"?><!DOCTYPE svg PUBLIC "-//W3C//DTD SVG 1.1//EN" "http://www.w3.org/Graphics/SVG/1.1/DTD/svg11.dtd"><svg class="icon" width="200px" height="200.00px" viewBox="0 0 1024 1024" version="1.1" xmlns="http://www.w3.org/2000/svg"><path d="M512 85.4C276.4 85.4 85.4 276.4 85.4 512S276.4 938.6 512 938.6 938.6 747.6 938.6 512 747.6 85.4 512 85.4z m0 810.6c-212 0-384-172-384-384S300 128 512 128s384 172 384 384-172 384-384 384zM505.8 405.4c4.2 11 16.6 16.6 27.6 12.4l116.6-44.2-67.2 178.8-124.8-124.6c-15.6-15.6-42-9.6-49.8 10.8l-83.8 222.8c-9.2 24.4 14.6 48.2 39 38.8l143-54.4c11-4.2 16.6-16.6 12.4-27.6-4.2-11-16.6-16.6-27.6-12.4L374 650.4l67.2-179.2 124.6 124.6c15.4 15.6 42 9.6 49.8-10.8l83.8-222.6c9.2-24.2-14.4-48-38.8-39l-142.4 54.2c-11 4.4-16.4 16.8-12.4 27.8z" /></svg>