<?xml version="1.0" standalone="no"?><!DOCTYPE svg PUBLIC "-//W3C//DTD SVG 1.1//EN" "http://www.w3.org/Graphics/SVG/1.1/DTD/svg11.dtd"><svg class="icon" width="200px" height="200.00px" viewBox="0 0 1024 1024" version="1.1" xmlns="http://www.w3.org/2000/svg"><path d="M853.4 106.6H170.6c-35.4 0-64 28.6-64 64v682.6c0 35.4 28.6 64 64 64h682.6c35.4 0 64-28.6 64-64V170.6c0.2-35.2-28.6-64-63.8-64z m21.2 170.8H320c-11.8 0-21.4 9.6-21.4 21.4 0 11.8 9.6 21.4 21.4 21.4h554.6v128h-384c-11.8 0-21.4 9.6-21.4 21.4 0 11.8 9.6 21.4 21.4 21.4h384v128H661.4c-11.8 0-21.4 9.6-21.4 21.4 0 11.8 9.6 21.4 21.4 21.4h213.4v128H832c-11.8 0-21.4 9.6-21.4 21.4S820.2 832 832 832h42.6v21.4c0 11.8-9.6 21.4-21.4 21.4H170.6c-11.8 0-21.4-9.6-21.4-21.4V170.6c0-11.8 9.6-21.4 21.4-21.4h682.6c11.8 0 21.4 9.6 21.4 21.4v106.8zM874.6 320v-42.6c11.8 0 21.4 9.6 21.4 21.4s-9.6 21.2-21.4 21.2zM234.6 234.6H832c11.8 0 21.4-9.6 21.4-21.4 0-11.8-9.6-21.4-21.4-21.4H234.6c-11.8 0-21.4 9.6-21.4 21.4 0.2 12 9.6 21.4 21.4 21.4zM405.4 405.4H832c11.8 0 21.4-9.6 21.4-21.4s-9.6-21.4-21.4-21.4H405.4c-11.8 0-21.4 9.6-21.4 21.4s9.6 21.4 21.4 21.4zM576 576h256c11.8 0 21.4-9.6 21.4-21.4 0-11.8-9.6-21.4-21.4-21.4H576c-11.8 0-21.4 9.6-21.4 21.4 0 11.8 9.6 21.4 21.4 21.4zM746.6 746.6H832c11.8 0 21.4-9.6 21.4-21.4 0-11.8-9.6-21.4-21.4-21.4h-85.4c-11.8 0-21.4 9.6-21.4 21.4 0.2 12 9.6 21.4 21.4 21.4z" /></svg>