<?xml version="1.0" standalone="no"?><!DOCTYPE svg PUBLIC "-//W3C//DTD SVG 1.1//EN" "http://www.w3.org/Graphics/SVG/1.1/DTD/svg11.dtd"><svg class="icon" width="200px" height="200.00px" viewBox="0 0 1024 1024" version="1.1" xmlns="http://www.w3.org/2000/svg"><path d="M703.2 768H277.4c-11.8 0-21.4-9.6-21.4-21.4v-640c0-11.8-9.6-21.4-21.4-21.4s-21.4 9.6-21.4 21.4v106.6H106.6c-11.8 0-21.4 9.6-21.4 21.4S94.8 256 106.6 256h106.6v490.6c0 35.4 28.6 64 64 64h425.8c11.8 0 21.4-9.6 21.4-21.4 0-11.6-9.4-21.2-21.2-21.2zM746.6 256H320.2c-11.8 0-21.4-9.6-21.4-21.4s9.6-21.4 21.4-21.4h426.6c35.4 0 64 28.6 64 64V768h106.6c11.8 0 21.4 9.6 21.4 21.4 0 11.8-9.6 21.4-21.4 21.4h-106.6v106.6c0 11.8-9.6 21.4-21.4 21.4-11.8 0-21.4-9.6-21.4-21.4v-127.2-0.8-512c0-11.8-9.6-21.4-21.4-21.4z" /></svg>