<?xml version="1.0" standalone="no"?><!DOCTYPE svg PUBLIC "-//W3C//DTD SVG 1.1//EN" "http://www.w3.org/Graphics/SVG/1.1/DTD/svg11.dtd"><svg class="icon" width="200px" height="200.00px" viewBox="0 0 1024 1024" version="1.1" xmlns="http://www.w3.org/2000/svg"><path d="M746.8 453.8v-152c0-11.8-9.6-21.4-21.4-21.4S704 290 704 301.8v152c-25 8.8-43 32.8-43 60.8s18 52 43 60.8v150.8c0 11.8 9.6 21.4 21.4 21.4s21.4-9.6 21.4-21.4v-150.8c25.2-8.8 43.4-32.8 43.4-61-0.2-28-18.2-51.8-43.4-60.6z m-21.2 82.8c-12 0-21.8-9.8-21.8-21.8s9.8-21.8 21.8-21.8 21.8 9.8 21.8 21.8-9.8 21.8-21.8 21.8zM874.6 194.2h-128V152.4c0-11.8-9.6-21.4-21.4-21.4S704 140.6 704 152.4v41.8h-106.6c-11.8 0-21.4 9.6-21.4 21.4 0 11.8 9.6 21.4 21.4 21.4h277.2c11.8 0 21.4 9.6 21.4 21.4v512c0 11.8-9.6 21.4-21.4 21.4H533.4v-89c25.2-8.8 43.4-32.8 43.4-61 0-28.2-18.2-52.2-43.4-61V215.4c0-11.8-9.6-21.4-21.4-21.4h-192V152c0-11.8-9.6-21.4-21.4-21.4-11.8 0-21.4 9.6-21.4 21.4v42.2h-128c-35.4 0-64 28.6-64 64v512c0 35.4 28.6 64 64 64H426c11.8 0 21.4-9.6 21.4-21.4 0-11.8-9.6-21.4-21.4-21.4H149.4c-11.8 0-21.4-9.6-21.4-21.4V258c0-11.8 9.6-21.4 21.4-21.4h128V326c-25 8.8-43 32.8-43 60.8s18 52 43 60.8v278.8c0 11.8 9.6 21.4 21.4 21.4 11.8 0 21.4-9.6 21.4-21.4V447.6c25.2-8.8 43.4-32.8 43.4-61 0-28.2-18.2-52.2-43.4-61v-89h170.6v344c-25 8.8-43 32.8-43 60.8s18 52 43 60.8v172.2c0 11.8 9.6 21.4 21.4 21.4 11.8 0 21.4-9.6 21.4-21.4v-40.6h341.2c35.4 0 64-28.6 64-64v-512c-0.2-35-28.8-63.6-64.2-63.6z m-553.8 192.6c0 11.8-9.4 21.4-21.2 21.8h-1.4c-11.6-0.4-21-10-21-21.8 0-12 9.8-21.8 21.8-21.8s21.8 9.6 21.8 21.8z m191.4 276.6c-12 0-21.8-9.8-21.8-21.8s9.8-21.8 21.8-21.8 21.8 9.8 21.8 21.8-9.6 21.8-21.8 21.8z" /></svg>