<?xml version="1.0" standalone="no"?><!DOCTYPE svg PUBLIC "-//W3C//DTD SVG 1.1//EN" "http://www.w3.org/Graphics/SVG/1.1/DTD/svg11.dtd"><svg class="icon" width="200px" height="200.00px" viewBox="0 0 1024 1024" version="1.1" xmlns="http://www.w3.org/2000/svg"><path d="M0 0h1024v1024H0z" fill="#FFFFFF" /><path d="M533.4 192V106.6c0-11.8-9.6-21.4-21.4-21.4-11.8 0-21.4 9.6-21.4 21.4V192c0 11.8 9.6 21.4 21.4 21.4 11.8 0 21.4-9.6 21.4-21.4zM512 725.4c81 0 153.8-45.6 190-116.4 5.4-10.4 18.2-14.6 28.8-9.2 10.4 5.4 14.6 18.2 9.2 28.8-43.4 85-130.8 139.6-228 139.6-141.4 0-256-114.6-256-256 0-63 22.8-120.6 60.6-165.2l-106.2-106.2c-8.4-8.4-8.4-21.8 0-30.2 8.4-8.4 21.8-8.4 30.2 0l106.2 106.2c44.6-37.8 102.2-60.6 165.4-60.6 134.2 0 244.2 103.2 255.2 234.6h150.2c11.8 0 21.4 9.6 21.4 21.4 0 11.8-9.6 21.4-21.4 21.4H704c-11.8 0-21.4-9.6-21.4-21.4 0-11.8 9.6-21.4 21.4-21.4h20.2c-10.8-107.8-101.6-192-212.2-192-51.2 0-98.2 18-135 48.2l22 22c8.4 8.4 8.4 21.8 0 30.2-8.4 8.4-21.8 8.4-30.2 0l-22-22c-30 36.8-48.2 83.8-48.2 135 0 117.6 95.6 213.2 213.4 213.2z"  /><path d="M384 512c0 70.6 57.4 128 128 128 11.8 0 21.4 9.6 21.4 21.4 0 11.8-9.6 21.4-21.4 21.4-94.2 0-170.6-76.4-170.6-170.6 0-11.8 9.6-21.4 21.4-21.4 11.6-0.2 21.2 9.4 21.2 21.2zM533.4 832v85.4c0 11.8-9.6 21.4-21.4 21.4-11.8 0-21.4-9.6-21.4-21.4V832c0-11.8 9.6-21.4 21.4-21.4 11.8 0 21.4 9.6 21.4 21.4zM192 533.4H106.6c-11.8 0-21.4-9.6-21.4-21.4 0-11.8 9.6-21.4 21.4-21.4H192c11.8 0 21.4 9.6 21.4 21.4 0 11.8-9.6 21.4-21.4 21.4zM723.2 753.4l60.4 60.4c8.4 8.4 21.8 8.4 30.2 0 8.4-8.4 8.4-21.8 0-30.2l-60.4-60.4c-8.4-8.4-21.8-8.4-30.2 0-8.4 8.4-8.4 21.8 0 30.2zM270.6 723.2l-60.4 60.4c-8.4 8.4-8.4 21.8 0 30.2 8.4 8.4 21.8 8.4 30.2 0l60.4-60.4c8.4-8.4 8.4-21.8 0-30.2-8.4-8.4-21.8-8.4-30.2 0zM723.2 270.6l60.4-60.4c8.4-8.4 21.8-8.4 30.2 0 8.4 8.4 8.4 21.8 0 30.2l-60.4 60.4c-8.4 8.4-21.8 8.4-30.2 0-8.4-8.4-8.4-21.8 0-30.2z"  /></svg>