<?xml version="1.0" standalone="no"?><!DOCTYPE svg PUBLIC "-//W3C//DTD SVG 1.1//EN" "http://www.w3.org/Graphics/SVG/1.1/DTD/svg11.dtd"><svg class="icon" width="200px" height="200.00px" viewBox="0 0 1024 1024" version="1.1" xmlns="http://www.w3.org/2000/svg"><path d="M0 0h1024v1024H0z" fill="#FFFFFF" /><path d="M679.4 471.4H576v-322c0-35.4-28.6-64-64-64s-64 28.6-64 64v255.4c0 11.8 9.6 21.4 21.4 21.4s21.4-9.6 21.4-21.4V149.4c0-11.8 9.6-21.4 21.4-21.4s21.4 9.6 21.4 21.4v322h-188.8c-36.8 0-58.6 41.2-37.8 71.6l167.6 245.6c18.2 26.6 57.4 26.6 75.6 0l167.6-245.6c20.2-30.4-1.6-71.6-38.4-71.6z m2.6 47.6l-167.4 245.6c-1.2 1.8-4 1.8-5.2 0L342 519c-1.4-2 0-4.8 2.6-4.8h188.8v58.2c0 11.8 9.6 21.4 21.4 21.4 11.8 0 21.4-9.6 21.4-21.4V514h103.4c2.4 0 3.8 2.8 2.4 5z"  /><path d="M85.4 874.6v-85.4c0-11.8 9.6-21.4 21.4-21.4S128 777.4 128 789.2v85.4c0 11.8 9.6 21.4 21.4 21.4h725.4c11.8 0 21.4-9.6 21.4-21.4v-85.4c0-11.8 9.6-21.4 21.4-21.4 11.8 0 21.4 9.6 21.4 21.4v85.4c0 35.4-28.6 64-64 64H149.4c-35.4 0-64-28.6-64-64z"  /></svg>