<?xml version="1.0" standalone="no"?><!DOCTYPE svg PUBLIC "-//W3C//DTD SVG 1.1//EN" "http://www.w3.org/Graphics/SVG/1.1/DTD/svg11.dtd"><svg class="icon" width="200px" height="200.00px" viewBox="0 0 1024 1024" version="1.1" xmlns="http://www.w3.org/2000/svg"><path d="M810.6 597.4c0-65.8-50.6-162.6-136.6-275.8-53.6-70.6-114.4-138.8-162.4-188-47.8 48.8-108.4 117.4-162 188-85.8 113.2-136.2 210-136.2 275.8 0 74.4 27.2 144.4 75.6 198.6 7.8 8.8 7 22.2-1.8 30.2-8.8 7.8-22.2 7-30.2-1.8-55.4-62-86.4-142.2-86.4-227 0-78.2 53.6-181.2 145-301.6C374 218.8 440.4 144.6 490.8 94c11.6-11.6 30.2-11.6 41.8 0 50.6 51 117 124.8 175.4 201.6 91.4 120.4 145.4 223.4 145.4 301.6 0 188.6-152.8 341.4-341.4 341.4-64.8 0-127-18-180.6-51.6-10-6.2-13-19.4-6.8-29.4s19.4-13 29.4-6.8c47 29.4 101.2 45.2 158 45.2 165 0 298.6-133.6 298.6-298.6zM298.6 605.4c0 117.8 95.6 213.4 213.4 213.4 11.8 0 21.4 9.6 21.4 21.4 0 11.8-9.6 21.4-21.4 21.4-141.4 0-256-114.6-256-256 0-11.8 9.6-21.4 21.4-21.4s21.2 9.4 21.2 21.2z" /></svg>