<?xml version="1.0" standalone="no"?><!DOCTYPE svg PUBLIC "-//W3C//DTD SVG 1.1//EN" "http://www.w3.org/Graphics/SVG/1.1/DTD/svg11.dtd"><svg class="icon" width="200px" height="200.00px" viewBox="0 0 1024 1024" version="1.1" xmlns="http://www.w3.org/2000/svg"><path d="M832.4 320.4h-21.8v-2.8c0-16.8-6.6-33-18.6-45l-167.4-168.4c-12-12-28.4-18.8-45.4-18.8H320c-35.4 0-64 28.6-64 64v640c0 35.4 28.6 64 64 64h362.6v21.4c0 11.8-9.6 21.4-21.4 21.4H234.6c-11.8 0-21.4-9.6-21.4-21.4V192c0-11.8-9.6-21.4-21.4-21.4-11.8 0-21.4 9.6-21.4 21.4v682.6c0 35.4 28.6 64 64 64h426.6c35.4 0 64-28.6 64-64v-21.4h21.4c35.4 0 64-28.6 64-64V363h21.8c11.8 0 21.4-9.6 21.4-21.4 0.2-11.8-9.4-21.2-21.2-21.2z m-64.4 0h-191.4V190.8c0-11.8-9.6-21.4-21.4-21.4S534 179.2 534 190.8v146.6c0 14.2 11.6 25.6 25.6 25.6H768v426.4c0 11.8-9.6 21.4-21.4 21.4H320c-11.8 0-21.4-9.6-21.4-21.4v-640c0-11.8 9.6-21.4 21.4-21.4h259.4c5.6 0 11.2 2.2 15.2 6.2l167.4 168.2c4 4 6.2 9.4 6.2 15v3z" /></svg>