<?xml version="1.0" standalone="no"?><!DOCTYPE svg PUBLIC "-//W3C//DTD SVG 1.1//EN" "http://www.w3.org/Graphics/SVG/1.1/DTD/svg11.dtd"><svg class="icon" width="200px" height="200.00px" viewBox="0 0 1024 1024" version="1.1" xmlns="http://www.w3.org/2000/svg"><path d="M770 832l12.6 25.4c-3.6-2.6-8-4.2-12.8-4.2h-10.4L770 832zM791.2 128h-42.6c-35.4 0-64 28.6-64 64v549.6c0 10 2.2 19.6 6.8 28.6l41.4 82.8H192c-11.8 0-21.4 9.6-21.4 21.4 0 11.8 9.6 21.4 21.4 21.4h576.4c9.6 0.6 19.6-4.2 24.4-14.2l55.8-111.2c4.4-9 6.8-18.8 6.8-28.6V192c-0.2-35.4-28.8-64-64.2-64z m19.2 623.2L770 832l-40.4-80.8c-0.8-1.6-1.4-3.2-1.8-5h84.4c-0.4 1.6-1 3.4-1.8 5z m2.2-47.8h-85.4V192c0-11.8 9.6-21.4 21.4-21.4h42.6c11.8 0 21.4 9.6 21.4 21.4v511.4z" /></svg>