<?xml version="1.0" standalone="no"?><!DOCTYPE svg PUBLIC "-//W3C//DTD SVG 1.1//EN" "http://www.w3.org/Graphics/SVG/1.1/DTD/svg11.dtd"><svg class="icon" width="200px" height="200.00px" viewBox="0 0 1024 1024" version="1.1" xmlns="http://www.w3.org/2000/svg"><path d="M0 0h1024v1024H0z" fill="#FFFFFF" /><path d="M511.8 596.6c-106.8 0-196.8-79-211.2-183.8-1.6-11.6 6.6-22.4 18.2-24 11.6-1.6 22.4 6.6 24 18.2 11.6 83.8 83.6 147 169 147 94.2 0 170.6-76.4 170.6-170.6 0-17.6-2.6-34.6-8.2-52.6-52.2-19.8-108.2-32.4-162.2-32.4-179.8 0-384 141.6-384 213.4 0 10 10 29.2 28.6 51.6 7.6 9 6.4 22.4-2.6 30-9 7.6-22.4 6.4-30-2.6-24.6-29.2-38.6-56.6-38.6-79 0-99.4 225.8-256 426.6-256 45 0 91.2 7.8 135.8 21.2-6.6-9-14.2-18-23.2-26.8-8.4-8.2-8.6-21.8-0.4-30.2 8.2-8.4 21.8-8.6 30.2-0.4 29.6 28.8 46.6 57.8 54.4 79.2 128 53.6 230 146.2 230 213 0 100.8-225 256-426.6 256-11.8 0-21.4-9.6-21.4-21.4 0-11.8 9.6-21.4 21.4-21.4 180.8 0 384-140.2 384-213.4 0-43.4-74.6-112.2-173.2-160 1.6 10.4 2.4 21 2.4 31.6-0.4 118-95.8 213.4-213.6 213.4z"  /></svg>