<?xml version="1.0" standalone="no"?><!DOCTYPE svg PUBLIC "-//W3C//DTD SVG 1.1//EN" "http://www.w3.org/Graphics/SVG/1.1/DTD/svg11.dtd"><svg class="icon" width="200px" height="200.00px" viewBox="0 0 1024 1024" version="1.1" xmlns="http://www.w3.org/2000/svg"><path d="M849.6 320.4h-39v-2.8c0-16.8-6.6-33-18.6-45l-167.4-168.4c-12.2-12.2-28.4-18.8-45.4-18.8H234.6c-35.4 0-64 28.6-64 64v725.4c0 35.4 28.6 64 64 64h512c35.4 0 64-28.6 64-64V363h39c11.8 0 21.4-9.6 21.4-21.4 0-11.8-9.6-21.2-21.4-21.2z m-81.6 0h-191V190.8c0-11.8-9.6-21.4-21.4-21.4-11.8 0-21.4 9.6-21.4 21.4v146.6c0 14.2 11.6 25.6 25.6 25.6H768v511.6c0 11.8-9.6 21.4-21.4 21.4h-512c-11.8 0-21.4-9.6-21.4-21.4V149.4c0-11.8 9.6-21.4 21.4-21.4h344.6c5.8 0 11.2 2.2 15.2 6.4l167.2 168.2c4 4 6.2 9.4 6.2 15v2.8z" /></svg>