<?xml version="1.0" standalone="no"?><!DOCTYPE svg PUBLIC "-//W3C//DTD SVG 1.1//EN" "http://www.w3.org/Graphics/SVG/1.1/DTD/svg11.dtd"><svg class="icon" width="200px" height="200.00px" viewBox="0 0 1024 1024" version="1.1" xmlns="http://www.w3.org/2000/svg"><path d="M213.8 448v213.4c0 11.8-9.6 21.4-21.4 21.4-11.8 0-21.4-9.6-21.4-21.4V448c0-176.8 143.2-320 320-320h42.6c66.2 0 129.4 20.2 182.6 57.2 9.6 6.8 12 20 5.4 29.6-6.8 9.6-20 12-29.6 5.4-46-32-100.8-49.4-158.2-49.4h-42.6c-153.2-0.2-277.4 124-277.4 277.2zM761 289c17 24.2 30 51 38.6 79.6 3.4 11.2 15.2 17.8 26.6 14.4 11.2-3.4 17.8-15.2 14.4-26.6-9.8-33-24.8-63.8-44.4-91.8-6.8-9.6-20-12-29.8-5.2-9.8 6.6-12.2 20-5.4 29.6zM832.4 426.6c-11.8 0-21.4 9.6-21.4 21.4v426.6c0 11.8 9.6 21.4 21.4 21.4 11.8 0 21.4-9.6 21.4-21.4V448c0-11.8-9.6-21.4-21.4-21.4zM491.2 298.6h42.6c82.4 0 149.4 66.8 149.4 149.4v256c0 96.4-34.8 149.4-106.6 149.4-75.2 0-106.6-42.2-106.6-128v-256c0-23.6 19-42.6 42.6-42.6s42.6 19.2 42.6 42.6v105.8c0 11.8 9.6 21.4 21.4 21.4s21.4-9.6 21.4-21.4v-105.8c0-47.2-38.2-85.4-85.4-85.4s-85.4 38.2-85.4 85.4v256c0 107 47.4 170.6 149.4 170.6 100.2 0 149.4-75 149.4-192V448c0-106-86-192-192-192h-42.6c-11.8 0-21.4 9.6-21.4 21.4s9.4 21.2 21.2 21.2zM415.2 319.2c-39.6 23.4-66.4 63.6-72.2 109.6-1.4 11.6-12.2 20-23.8 18.4-11.6-1.4-20-12.2-18.4-23.8 7.6-59 42.2-110.8 92.8-140.8 10.2-6 23.2-2.6 29.2 7.4 6 10.2 2.6 23.2-7.6 29.2zM341.8 874.6V511.8c0-11.8-9.6-21.4-21.4-21.4-11.8 0-21.4 9.6-21.4 21.4v362.8c0 11.8 9.6 21.4 21.4 21.4 11.8 0 21.4-9.6 21.4-21.4zM553.6 661.8v84.4c0 11.8 9.6 21.4 21.4 21.4 11.8 0 21.4-9.6 21.4-21.4v-84.4c0-11.8-9.6-21.4-21.4-21.4-11.8 0.2-21.4 9.6-21.4 21.4zM213.4 789.2v86.4c0 11.8-9.6 21.4-21.4 21.4-11.8 0-21.4-9.6-21.4-21.4v-86.4c0-11.8 9.6-21.4 21.4-21.4 11.8 0 21.4 9.6 21.4 21.4z" /></svg>