<?xml version="1.0" standalone="no"?><!DOCTYPE svg PUBLIC "-//W3C//DTD SVG 1.1//EN" "http://www.w3.org/Graphics/SVG/1.1/DTD/svg11.dtd"><svg class="icon" width="200px" height="200.00px" viewBox="0 0 1024 1024" version="1.1" xmlns="http://www.w3.org/2000/svg"><path d="M256 874.2V662l21.4-21.4c11.8 0 21.4 9.6 21.4 21.4v212.2c0 35.4-28.6 64-64 64s-64-28.6-64-64V575.4c0 11.8 9.6 21.4 21.4 21.4h21.4v277.4c0 11.8 9.6 21.4 21.4 21.4 11.4 0 21-9.6 21-21.4z m-42.6-320h579.2l-121.6-151.8c-18.8-23.4-18.8-56.6 0-80l121.6-152.2H277.4c-11.8 0-21.4-9.6-21.4-21.4 0-11.8 9.6-21.4 21.4-21.4H828c21.4 0 33.4 24.8 20 41.6l-143.8 180c-6.2 7.8-6.2 18.8 0 26.6l143.8 179.8c13.2 16.8 1.4 41.4-20 41.4H213.4v-42.6z m0 0H192c-11.8 0-21.4 9.6-21.4 21.4V106.6c0-11.8 9.6-21.4 21.4-21.4 11.8 0 21.4 9.6 21.4 21.4v447.6z" /></svg>