<?xml version="1.0" standalone="no"?><!DOCTYPE svg PUBLIC "-//W3C//DTD SVG 1.1//EN" "http://www.w3.org/Graphics/SVG/1.1/DTD/svg11.dtd"><svg class="icon" width="200px" height="200.00px" viewBox="0 0 1024 1024" version="1.1" xmlns="http://www.w3.org/2000/svg"><path d="M0 0h1024v1024H0z" fill="#FFFFFF" /><path d="M128 790V230.2c0-9.4 7.6-16.8 16.8-16.8h282.4c14.8 0 23.8 7.8 32.4 26 1.8 3.6 6 13.8 8.4 20 1 2.6 1.8 4.4 2 5 9.4 21 30.6 34 53.8 34h307.6c11.8 0 21.4-9.6 21.4-21.4s-9.6-21.4-21.4-21.4H524.2c-6.6 0-12.4-3.6-14.8-8.8l-0.8-1.8c-2-5-7.6-18.8-10.2-24.2-15-31.6-36.6-50.4-71-50.4H144.8c-33 0-59.6 26.6-59.6 59.6v561c0.4 35 29 63.2 64 63.2h21.4v42.2c0 11.8 9.6 21.4 21.4 21.4 11.8 0 21.4-9.6 21.4-21.4V407.2c0-11.8 9.6-21.4 21.4-21.4h640c11.8 0 21.4 9.6 21.4 21.4v382.2c0 11.8-9.6 21.4-21.4 21.4H276.6c-11.8 0-21.4 9.6-21.4 21.4 0 11.8 9.6 21.4 21.4 21.4h598.2c35.4 0 64-28.6 64-64V407.2c0-35.4-28.6-64-64-64h-640c-35.4 0-64 28.6-64 64v404H149.4c-11.8 0-21.4-9.4-21.4-21.2z"  /></svg>