<?xml version="1.0" standalone="no"?><!DOCTYPE svg PUBLIC "-//W3C//DTD SVG 1.1//EN" "http://www.w3.org/Graphics/SVG/1.1/DTD/svg11.dtd"><svg class="icon" width="200px" height="200.00px" viewBox="0 0 1024 1024" version="1.1" xmlns="http://www.w3.org/2000/svg"><path d="M874.6 255.6h-83.8c-27-50.4-80.2-84.8-141.4-84.8-60 0-114 33.4-141.4 84.8H149.4c-35.4 0-64 28.6-64 64v426.6c0 35.4 28.6 64 64 64h583.2l79.8 79.8c8.4 8.4 21.8 8.4 30.2 0 8.4-8.4 8.4-21.8 0-30.2l-49.6-49.6h81.8c35.4 0 64-28.6 64-64V319.6c-0.2-35.4-28.8-64-64.2-64z m-225.2-42.2c36.2 0 68.6 16.4 90.2 42.2h-180.4c21.8-26.2 54.6-42.2 90.2-42.2z m-500 554.2c-10.2 0-18.6-7-20.8-16.6l272.4-272.4L690 767.6H149.4zM896 746.2c0 11.8-9.6 21.4-21.4 21.4h-124.4l-105.8-105.8 55.2-55.2 113.4 113.4c8.4 8.4 21.8 8.4 30.2 0 8.4-8.4 8.4-21.8 0-30.2l-125.4-125.4c-10.2-10-26.2-10-36.2 0l-67.2 67.2-195.2-195.2c-10-10-26.2-10-36.2 0L128 691.2V319.6c0-11.8 9.6-21.4 21.4-21.4h613c3 10.4 4.6 21.4 4.6 32.6 0 64.8-52.6 117.6-117.6 117.6-55 0-102.4-38.2-114.6-91.2-2.6-11.4-14-18.6-25.6-16-11.4 2.6-18.6 14-16 25.6 16.6 72.2 81 124.2 156.2 124.2 88.4 0 160.2-71.8 160.2-160.2 0-11.2-1.2-22.2-3.4-32.6h68.4c11.8 0 21.4 9.6 21.4 21.4v426.6z" /></svg>