<?xml version="1.0" standalone="no"?><!DOCTYPE svg PUBLIC "-//W3C//DTD SVG 1.1//EN" "http://www.w3.org/Graphics/SVG/1.1/DTD/svg11.dtd"><svg class="icon" width="200px" height="200.00px" viewBox="0 0 1024 1024" version="1.1" xmlns="http://www.w3.org/2000/svg"><path d="M874.6 299h-98.4c13-18.2 22.6-38 28.2-58.8 22.6-84-29.4-154.8-114.2-154.8-43.2 0-90.4 18.4-128.4 49-9.2 7.4-10.6 20.8-3.2 30 7.4 9.2 20.8 10.6 30 3.2C619.2 142.8 657.2 128 690 128c56.4 0 88.4 43.8 73 101.2-6.8 25.4-22.2 50-43.4 69.8h-186.4v-20-1.2c0.2-15-1.8-36-5.4-48.8-21-78.4-111.8-143.8-194-143.8-85 0-136.8 70.8-114.2 154.8 5.6 20.8 15.2 40.6 28.2 58.8H149.4c-35.4 0-64 28.6-64 64v42.6c0 35.4 28.6 64 64 64h341.4V832c0 11.8 9.6 21.4 21.4 21.4s21.4-9.6 21.4-21.4V469.6h320v405.4c0 11.8-9.6 21.4-21.4 21.4H192c-11.8 0-21.4-9.6-21.4-21.4V534.2c0-11.8-9.6-21.4-21.4-21.4S128 522.4 128 534.2v340.8c0 35.4 28.6 64 64 64h640c35.4 0 64-28.6 64-64V466c24.8-8.8 42.6-32.4 42.6-60.4v-42.6c0-35.4-28.6-64-64-64z m-384 128H149.4c-11.8 0-21.4-9.6-21.4-21.4v-42.6c0-11.8 9.6-21.4 21.4-21.4h341.4v85.4z m0-149.4v21.4h-186.4c-21.2-19.8-36.6-44.4-43.4-69.8C245.6 171.8 277.6 128 334 128c63.4 0 137 53 152.8 112.2 2.2 8.2 3.8 24.6 3.8 36v1.4z m405.4 128c0 11.8-9.6 21.4-21.4 21.4H533.4v-85.4h341.4c11.8 0 21.4 9.6 21.4 21.4v42.6z" /></svg>