<?xml version="1.0" standalone="no"?><!DOCTYPE svg PUBLIC "-//W3C//DTD SVG 1.1//EN" "http://www.w3.org/Graphics/SVG/1.1/DTD/svg11.dtd"><svg class="icon" width="200px" height="200.00px" viewBox="0 0 1024 1024" version="1.1" xmlns="http://www.w3.org/2000/svg"><path d="M512 85.4C276.4 85.4 85.4 276.4 85.4 512S276.4 938.6 512 938.6 938.6 747.6 938.6 512 747.6 85.4 512 85.4z m94.4 676c0.4 4.4 1 8.4 2 14.8 1.6 10.4 1.8 12.8 2.2 16.6 0.2 3.2-0.2 7.6-1.2 13.2-2.2 11.6 5.4 22.8 17 25 11.6 2.2 22.8-5.4 25-17 1.6-8.8 2.4-16.6 1.8-23.8-0.4-5.4-0.8-8.2-2.4-20-0.8-5.8-1.4-9.4-1.6-12.8-2.8-28.2 2.6-34.4 46.4-29 48.2 6 71.2 1 78.6-20.6 0.6 0 1.2 0 2 0.2 44.2 4 53.8 8.6 52 22.8-69.4 100-185 165.4-315.8 165.4-212 0-384-172-384-384 0-95.4 34.8-182.6 92.2-249.6 7.2 18.6 21.6 38 45 56.8 32.4 26.4 38.8 40.8 42.2 75 1.6 15.6 2.8 23.4 6.4 33.2 2.4 6.8 5.8 13.2 10 19.4 5.6 8 7.8 24 9.6 63.2 0.2 6.2 0.4 9.2 0.6 12.6 3.4 67.8 13.8 101.2 52.4 114.8 74.8 26 143.2-58.8 153.6-174.2 3.6-39.6 9-46.2 28.4-51.2l2.6-0.6c28.4-7.2 43-17.2 52.2-46.2 1.2-4 3.2-8.2 5.6-13l0.6-1.2c0.8-1.6 1.6-2.8 2.2-4 2.6-4.6 5.6-9 20-29.4l1.4-2c21-30 31.8-50 37-75.4 2.4-11.6-5-22.8-16.6-25.2-11.6-2.4-22.8 5-25.2 16.6-3.8 18-12 33.6-29.4 58.6 1.2-1.8-11.8 16.6-14.8 21-5.4 7.8-9.4 14.6-13 21.2-3.6 6.8-6.6 13.6-8.6 20.2-3.8 12.2-6.4 14-21.8 17.8l-2.8 0.6c-37.2 9.4-55.2 31.2-60.4 88.8-8.2 91.8-56.6 151.8-97 137.8-14.8-5.2-21.4-26.8-23.8-76.6-0.2-3.4-0.2-6.2-0.6-12.4-2.2-49.4-4.8-67.8-17-85.6-2.2-3.2-3.8-6.2-5-9.6-2-5.6-2.8-10.8-4-23-4.4-44.6-15.6-69.6-57.8-103.8-30.8-25-37.6-45-34.2-59.6 0.6-1.2 1-2.4 1.2-3.6C326.8 163.8 415.2 128 512 128c212 0 384 172 384 384 0 62.8-15.2 122.2-42 174.6-15-12-40-18.2-74.4-21.4-25.8-2.4-40.2 5-45 22.4-6.4 0.6-17.8 0.2-34.2-1.8-72-8.8-99.6 21.2-94 75.6z" /></svg>