<?xml version="1.0" standalone="no"?><!DOCTYPE svg PUBLIC "-//W3C//DTD SVG 1.1//EN" "http://www.w3.org/Graphics/SVG/1.1/DTD/svg11.dtd"><svg class="icon" width="200px" height="200.00px" viewBox="0 0 1024 1024" version="1.1" xmlns="http://www.w3.org/2000/svg"><path d="M542.2 128c-16.6-0.4-30.2 13.2-30.2 29.6v13c-212 0-384 172-384 384s172 384 384 384c60.4 0 119-14 172-40.6 11.4-5.8 22.6-12 33.2-18.8 10.6-6.8 20.6-13.8 29.8-21 69-53.4 118-128.8 138.4-214 1.8-7.6 3.4-14.8 4.6-21.8 2-11.6-5.8-22.6-17.4-24.6-11.6-2-22.6 5.8-24.6 17.4-1 6.2-2.4 12.6-4 19.2-18 75.6-61.8 142.8-123 190.2-8.4 6.4-17.2 12.6-26.6 18.6-9.4 6-19.4 11.6-29.6 16.6-47 23.6-99 36-152.8 36-188.4 0-341.4-152.8-341.4-341.4 0-188.4 152.8-341.4 341.4-341.4v312c0 16.2 13.2 29.4 29.4 29.4h367.6c16.6 0 30-13.6 29.6-30.2C933.8 307.6 759 132.8 542.2 128z m12.4 383.8V257c62.2 10 120 39.2 165.6 85 8.4 8.4 21.8 8.4 30.2 0 8.4-8.4 8.4-21.8 0-30.2-53.8-53.8-122.4-87.6-195.8-98V171.2c183.2 10.6 330.2 157.4 340.8 340.8H554.6z" /></svg>