<?xml version="1.0" standalone="no"?><!DOCTYPE svg PUBLIC "-//W3C//DTD SVG 1.1//EN" "http://www.w3.org/Graphics/SVG/1.1/DTD/svg11.dtd"><svg class="icon" width="200px" height="200.00px" viewBox="0 0 1024 1024" version="1.1" xmlns="http://www.w3.org/2000/svg"><path d="M938.6 512c0 152.8-81 291.6-210.2 367.8-10.2 6-23.2 2.6-29.2-7.6s-2.6-23.2 7.6-29.2C823.2 774.4 896 649.6 896 512c0-212-172-384-384-384S128 300 128 512c0 173.6 116.2 324.4 281.4 370.2 6 1.8 16.4 4.6 29 7.2 4.2 1 8.2 1.8 12.2 2.6 11.6 2.2 19.2 13.4 17 25-2.2 11.6-13.4 19.2-25 17-4.4-0.8-9-1.8-13.4-2.8-13.6-3-24.8-6-31.4-7.8C214.4 872.4 85.4 705 85.4 512c0-235.6 191-426.6 426.6-426.6S938.6 276.4 938.6 512zM492.8 736.8c-1 2-2.4 6-2.6 7.4-2.2 11.6-13.4 19.2-25 17-11.6-2.2-19.2-13.4-17-25 1-5.4 3.6-12.8 6.2-18 15.4-31.6 53.6-45 85.4-29.4 31.8 15.4 45 53.6 29.6 85.4-8.2 17-23.2 29-41 33.8-11.4 3-23-3.6-26.2-15-3-11.4 3.6-23 15-26.2 6-1.6 11-5.6 13.8-11.2 5.2-10.6 0.8-23.2-9.8-28.4-10.6-5.4-23.2-1-28.4 9.6zM405.4 405.2c0-58.8 47.8-106.6 106.6-106.6s106.6 47.8 106.6 106.6-47.6 106.4-106.2 106.6h-0.4c-11.8 0-21.4 9.6-21.4 21.4v85.6c0 11.8 9.6 21.4 21.4 21.4 11.8 0 21.4-9.6 21.4-21.4v-65.8c72.4-10.4 128-72.6 128-147.8 0-82.4-66.8-149.4-149.4-149.4-82.4 0-149.4 66.8-149.4 149.4 0 11.8 9.6 21.4 21.4 21.4s21.4-9.6 21.4-21.4z" /></svg>