<?xml version="1.0" standalone="no"?><!DOCTYPE svg PUBLIC "-//W3C//DTD SVG 1.1//EN" "http://www.w3.org/Graphics/SVG/1.1/DTD/svg11.dtd"><svg class="icon" width="200px" height="200.00px" viewBox="0 0 1024 1024" version="1.1" xmlns="http://www.w3.org/2000/svg"><path d="M916.8 444.6L555.2 102.8c-24.8-23.2-63.2-23.2-88 0l-361.8 342c-42 39.8-14 110.6 44 110.6h62.4v319.6c0 35.4 28.6 64 64 64h471c35.4 0 64-28.6 64-64V489.8c0-35.4-28.6-64-64-64H275.8c-35.4 0-64 28.6-64 64v22.8H149.4c-19.2 0-28.6-23.6-14.6-36.8l361.8-342c8.2-7.8 21-7.8 29.4 0l361.8 341.8c7.6 7.2 8.8 17.8 3.6 26.4 0 0.2-0.2 0.2-0.2 0.4-3.8 6.2-10.2 10-18 10-11.8 0-21.4 9.6-21.4 21.4 0 11.8 9.6 21.4 21.4 21.4 22.6 0 42.4-11.4 54-29.6 0.2-0.2 0.4-0.4 0.4-0.8 15.4-25.4 12.2-58.6-10.8-80.2z m-662.4 110.6h254.2c11.8 0 21.4-9.6 21.4-21.4 0-11.8-9.6-21.4-21.4-21.4H254.4v-22.8c0-11.8 9.6-21.4 21.4-21.4h471c11.8 0 21.4 9.6 21.4 21.4v385c0 11.8-9.6 21.4-21.4 21.4H275.8c-11.8 0-21.4-9.6-21.4-21.4V555.2z" /></svg>