<?xml version="1.0" standalone="no"?><!DOCTYPE svg PUBLIC "-//W3C//DTD SVG 1.1//EN" "http://www.w3.org/Graphics/SVG/1.1/DTD/svg11.dtd"><svg class="icon" width="200px" height="200.00px" viewBox="0 0 1024 1024" version="1.1" xmlns="http://www.w3.org/2000/svg"><path d="M0 0h1024v1024H0z" fill="#FFFFFF" /><path d="M490.6 106.6v42.6c0 11.8 9.6 21.4 21.4 21.4 11.8 0 21.4-9.6 21.4-21.4V106.6c0-11.8-9.6-21.4-21.4-21.4-11.8 0.2-21.4 9.6-21.4 21.4zM512 234.8c-153.2 0-277.4 124.2-277.4 277.4 0 67.4 24 131 67.2 181 7.6 9 21.2 10 30 2.2 9-7.6 10-21.2 2.2-30-36.4-42.4-56.8-96-56.8-153 0-129.6 105-234.6 234.6-234.6s234.6 105 234.6 234.6c0 82-42.2 154.6-106.6 196.6v-5.2c0-35.6-30-64-66.6-64h-123c-36.4 0-66.6 28.4-66.6 64v178.6c0 30.6 25.6 54.8 56.8 54.8h142c31.2 0 56.8-24.2 56.8-54.8l0.2-124c89-46.4 149.2-139.6 149.2-246.2 0.8-153.2-123.4-277.4-276.6-277.4z m85.4 496c-20.2 8-42 13-64.6 15-11.8 1-20.4 11.4-19.4 23.2 1 11.8 11.4 20.4 23.2 19.4 21-1.8 41.4-6 60.8-12.2l-0.2 106c0 6.4-6 12.2-14.2 12.2h-142c-8 0-14.2-5.8-14.2-12.2v-178.6c0-11.4 10.4-21.4 23.8-21.4h123c13.4 0 23.8 9.8 23.8 21.4v27.2zM874.6 490.6h42.6c11.8 0 21.4 9.6 21.4 21.4 0 11.8-9.6 21.4-21.4 21.4h-42.6c-11.8 0-21.4-9.6-21.4-21.4 0.2-11.8 9.6-21.4 21.4-21.4zM149.4 490.6H106.6c-11.8 0-21.4 9.6-21.4 21.4 0 11.8 9.6 21.4 21.4 21.4h42.6c11.8 0 21.4-9.6 21.4-21.4 0-11.8-9.4-21.4-21.2-21.4zM213.4 183.2l30.2 30.2c8.4 8.4 8.4 21.8 0 30.2s-21.8 8.4-30.2 0l-30.2-30.2c-8.4-8.4-8.4-21.8 0-30.2 8.2-8.4 21.8-8.4 30.2 0zM810.6 243.6l30.2-30.2c8.4-8.4 8.4-21.8 0-30.2-8.4-8.4-21.8-8.4-30.2 0l-30.2 30.2c-8.4 8.4-8.4 21.8 0 30.2 8.4 8.2 22 8.2 30.2 0z"  /></svg>