<?xml version="1.0" standalone="no"?><!DOCTYPE svg PUBLIC "-//W3C//DTD SVG 1.1//EN" "http://www.w3.org/Graphics/SVG/1.1/DTD/svg11.dtd"><svg class="icon" width="200px" height="170.10px" viewBox="0 0 1204 1024" version="1.1" xmlns="http://www.w3.org/2000/svg"><path d="M758.964706 710.776471L650.541176 602.352941c-12.047059-18.070588-12.047059-36.141176 0-54.211765 12.047059-12.047059 42.164706-18.070588 54.211765 0l114.447059 108.42353 60.235294-60.235294-403.57647-397.552941c-78.305882-72.282353-198.776471-72.282353-277.082353 0-72.282353 72.282353-78.305882 192.752941 0 271.058823l403.57647 403.576471 66.258824-66.258824-114.447059-102.4c-12.047059-18.070588-12.047059-42.164706 0-60.235294 12.047059-18.070588 42.164706-12.047059 54.211765 6.023529l114.447058 108.42353 36.141177-48.188235z m-132.517647 240.941176c-18.070588 12.047059-36.141176 12.047059-54.211765 0l-427.670588-421.647059C72.282353 463.811765 42.164706 361.411765 66.258824 265.035294s102.4-168.658824 192.752941-192.752941 198.776471 6.023529 265.035294 72.282353L602.352941 216.847059l72.282353-72.282353c66.258824-72.282353 168.658824-96.376471 265.035294-72.282353s174.682353 96.376471 198.776471 192.752941c24.094118 96.376471-12.047059 192.752941-78.305883 265.035294l-427.670588 421.647059h-6.023529z m30.117647-680.658823L933.647059 542.117647l72.282353-72.282353c78.305882-78.305882 78.305882-198.776471 0-271.058823s-198.776471-78.305882-277.082353 0l-72.282353 72.282353zM596.329412 969.788235c-12.047059 0-24.094118-6.023529-30.117647-12.047059l-427.670589-421.647058C66.258824 463.811765 36.141176 361.411765 66.258824 265.035294c24.094118-96.376471 102.4-174.682353 198.77647-198.77647s198.776471 6.023529 271.058824 78.305882l66.258823 60.235294 72.282353-66.258824c72.282353-72.282353 174.682353-102.4 271.058824-72.282352 96.376471 24.094118 174.682353 102.4 198.77647 198.77647s-6.023529 198.776471-78.305882 271.058824l-427.670588 421.647058-6.02353 6.02353c-18.070588 6.023529-24.094118 6.023529-36.141176 6.023529zM331.294118 72.282353c-24.094118 0-48.188235 0-66.258824 6.023529-90.352941 24.094118-162.635294 96.376471-192.752941 192.752942-24.094118 90.352941 6.023529 186.729412 72.282353 252.988235l427.670588 421.647059c12.047059 12.047059 30.117647 12.047059 48.188235 0l12.047059-6.02353 427.670588-421.647059c72.282353-66.258824 96.376471-162.635294 72.282353-259.011764-24.094118-90.352941-96.376471-162.635294-192.752941-186.729412-90.352941-24.094118-192.752941 6.023529-259.011764 72.282353L602.352941 222.870588 524.047059 150.588235c-48.188235-54.211765-120.470588-78.305882-192.752941-78.305882zM602.352941 879.435294L192.752941 481.882353C120.470588 403.576471 120.470588 277.082353 198.776471 198.776471 271.058824 120.470588 403.576471 120.470588 481.882353 198.776471l403.576471 403.57647-66.258824 66.258824-114.447059-114.447059c-12.047059-12.047059-36.141176-12.047059-48.188235 0s-12.047059 30.117647 0 48.188235l114.447059 114.447059-48.188236 48.188235-120.470588-120.470588c-12.047059-12.047059-36.141176-12.047059-48.188235 0-12.047059 18.070588-12.047059 36.141176 0 48.188235l114.447059 114.447059-66.258824 72.282353zM337.317647 150.588235c-48.188235 0-96.376471 18.070588-132.517647 60.235294-72.282353 72.282353-72.282353 192.752941 0 265.035295l397.552941 385.505882 54.211765-54.211765-108.42353-108.423529c-18.070588-18.070588-18.070588-48.188235 0-60.235294 18.070588-18.070588 42.164706-18.070588 60.235295 0l108.423529 108.423529 36.141176-36.141176-108.423529-108.42353c-18.070588-18.070588-18.070588-48.188235 0-60.235294 18.070588-18.070588 48.188235-18.070588 60.235294 0l108.42353 108.423529 54.211764-54.211764-397.552941-391.529412c-36.141176-36.141176-84.329412-54.211765-132.517647-54.211765z m596.329412 403.576471l-283.105883-283.105882 6.02353-6.02353L722.823529 192.752941c78.305882-78.305882 204.8-78.305882 283.105883 0 36.141176 36.141176 60.235294 90.352941 60.235294 138.541177 0 54.211765-18.070588 102.4-60.235294 138.541176l-72.282353 84.329412zM662.588235 271.058824l271.058824 265.035294 72.282353-66.258824c36.141176-36.141176 54.211765-84.329412 54.211764-132.517647s-18.070588-96.376471-54.211764-132.517647c-72.282353-72.282353-192.752941-72.282353-271.058824 0L662.588235 271.058824z" /></svg>