<?xml version="1.0" standalone="no"?><!DOCTYPE svg PUBLIC "-//W3C//DTD SVG 1.1//EN" "http://www.w3.org/Graphics/SVG/1.1/DTD/svg11.dtd"><svg class="icon" width="200px" height="200.00px" viewBox="0 0 1024 1024" version="1.1" xmlns="http://www.w3.org/2000/svg"><path d="M512 51.2c92.16 0 163.84 71.68 163.84 163.84v5.12c158.72 71.68 250.88 245.76 225.28 419.84 76.8 51.2 97.28 153.6 46.08 230.4s-153.6 97.28-225.28 46.08c-61.44 40.96-133.12 61.44-204.8 56.32-71.68 0-143.36-20.48-204.8-56.32-76.8 51.2-174.08 25.6-225.28-46.08s-30.72-174.08 46.08-225.28c-40.96-179.2 51.2-353.28 215.04-424.96 0-46.08 15.36-87.04 46.08-117.76S465.92 51.2 512 51.2z m148.48 235.52c-30.72 61.44-87.04 97.28-153.6 97.28-61.44 0-117.76-35.84-148.48-97.28C240.64 348.16 168.96 476.16 184.32 614.4c66.56-10.24 133.12 15.36 168.96 71.68s35.84 128 0 184.32c46.08 25.6 102.4 40.96 158.72 40.96s107.52-15.36 158.72-40.96c-35.84-56.32-35.84-128 0-184.32s102.4-81.92 168.96-71.68c10.24-138.24-56.32-266.24-179.2-327.68z m-445.44 389.12c-56.32 0-97.28 46.08-97.28 97.28S163.84 870.4 215.04 870.4s97.28-46.08 97.28-97.28-40.96-97.28-97.28-97.28z m588.8 0c-56.32 0-97.28 46.08-97.28 97.28s46.08 97.28 97.28 97.28 97.28-46.08 97.28-97.28-40.96-97.28-97.28-97.28zM512 117.76c-35.84 0-66.56 20.48-87.04 51.2-15.36 25.6-15.36 66.56 0 97.28s51.2 51.2 87.04 51.2c56.32 0 97.28-46.08 97.28-97.28s-46.08-102.4-97.28-102.4zM512 983.04c-71.68 0-143.36-20.48-209.92-56.32-76.8 46.08-184.32 25.6-235.52-51.2s-30.72-184.32 40.96-235.52C87.04 460.8 179.2 286.72 337.92 209.92c0-46.08 20.48-87.04 51.2-117.76s76.8-51.2 122.88-51.2c97.28 0 174.08 76.8 174.08 168.96 158.72 76.8 250.88 250.88 225.28 424.96 76.8 56.32 97.28 158.72 40.96 240.64-25.6 40.96-66.56 66.56-112.64 76.8-46.08 10.24-87.04 0-122.88-20.48-61.44 30.72-133.12 51.2-204.8 51.2z m-209.92-81.92l5.12 5.12c61.44 35.84 128 56.32 199.68 56.32s138.24-20.48 199.68-56.32l5.12-5.12 5.12 5.12c35.84 20.48 76.8 30.72 117.76 20.48s76.8-30.72 97.28-66.56c46.08-71.68 25.6-168.96-40.96-215.04l-5.12-5.12v-5.12c25.6-168.96-61.44-337.92-220.16-409.6v-10.24c0-87.04-66.56-153.6-153.6-153.6-40.96 0-81.92 15.36-107.52 46.08-30.72 30.72-46.08 71.68-46.08 112.64v5.12l-5.12 5.12c-153.6 71.68-245.76 240.64-220.16 409.6v5.12l-5.12 5.12c-66.56 46.08-87.04 143.36-40.96 215.04s143.36 87.04 209.92 46.08l5.12-10.24z m209.92 15.36c-56.32 0-112.64-15.36-163.84-40.96l-10.24-5.12 5.12-10.24c35.84-51.2 35.84-117.76 0-168.96S245.76 614.4 184.32 624.64h-10.24V614.4C158.72 476.16 230.4 337.92 358.4 276.48l10.24-5.12 5.12 10.24c25.6 51.2 76.8 87.04 138.24 92.16 56.32 0 112.64-35.84 138.24-87.04l5.12-15.36 10.24 5.12c122.88 61.44 199.68 199.68 184.32 337.92v10.24h-10.24c-61.44-10.24-122.88 15.36-158.72 66.56-35.84 51.2-35.84 117.76 0 168.96l5.12 10.24-10.24 5.12c-51.2 25.6-107.52 40.96-163.84 40.96z m0-20.48c51.2 0 97.28-10.24 143.36-35.84-30.72-56.32-30.72-128 5.12-184.32s102.4-87.04 168.96-76.8c10.24-122.88-56.32-240.64-163.84-302.08-30.72 56.32-92.16 92.16-153.6 92.16-66.56 0-122.88-35.84-153.6-92.16-107.52 61.44-174.08 179.2-163.84 307.2 66.56-10.24 128 20.48 168.96 76.8 35.84 56.32 40.96 128 5.12 184.32 40.96 20.48 92.16 30.72 143.36 30.72z m291.84-10.24c-61.44 0-107.52-51.2-107.52-107.52s51.2-107.52 107.52-107.52 107.52 51.2 107.52 107.52-46.08 107.52-107.52 107.52z m0-199.68c-46.08 0-87.04 40.96-87.04 87.04s40.96 87.04 87.04 87.04 87.04-40.96 87.04-87.04-35.84-87.04-87.04-87.04zM215.04 885.76c-61.44 0-107.52-51.2-107.52-107.52S153.6 665.6 215.04 665.6s107.52 51.2 107.52 107.52-46.08 112.64-107.52 112.64z m0-199.68c-46.08 0-87.04 40.96-87.04 87.04s40.96 87.04 87.04 87.04 87.04-40.96 87.04-87.04-35.84-87.04-87.04-87.04zM512 322.56c-40.96 0-76.8-20.48-92.16-56.32-20.48-35.84-20.48-76.8 0-107.52 15.36-30.72 51.2-51.2 92.16-51.2 61.44 0 107.52 51.2 107.52 107.52s-46.08 107.52-107.52 107.52z m0-194.56c-30.72 0-61.44 15.36-76.8 46.08-15.36 25.6-15.36 61.44 0 87.04s46.08 40.96 76.8 40.96c46.08 0 87.04-40.96 87.04-87.04s-40.96-87.04-87.04-87.04z" /></svg>