<?xml version="1.0" standalone="no"?><!DOCTYPE svg PUBLIC "-//W3C//DTD SVG 1.1//EN" "http://www.w3.org/Graphics/SVG/1.1/DTD/svg11.dtd"><svg class="icon" width="200px" height="200.00px" viewBox="0 0 1024 1024" version="1.1" xmlns="http://www.w3.org/2000/svg"><path d="M509.44 51.2C309.76 51.2 151.04 209.92 151.04 409.6c0 138.24 102.4 225.28 189.44 317.44 30.72 30.72 102.4 102.4 143.36 138.24 15.36 15.36 35.84 15.36 51.2 0 40.96-35.84 112.64-102.4 143.36-138.24C770.56 629.76 867.84 542.72 867.84 409.6c0-199.68-158.72-358.4-358.4-358.4z m148.48 604.16c-35.84 35.84-112.64 107.52-143.36 133.12-5.12 5.12-15.36 5.12-20.48 0-25.6-25.6-112.64-102.4-138.24-133.12C289.28 588.8 217.6 512 217.6 409.6c0-158.72 128-291.84 291.84-291.84s291.84 128 291.84 291.84c0 102.4-71.68 179.2-143.36 245.76zM509.44 880.64c-10.24 0-25.6-5.12-35.84-15.36-40.96-35.84-112.64-107.52-143.36-138.24-10.24-5.12-15.36-10.24-25.6-20.48C222.72 624.64 140.8 537.6 140.8 409.6 140.8 204.8 304.64 40.96 509.44 40.96S878.08 204.8 878.08 409.6c0 128-81.92 215.04-163.84 296.96l-25.6 25.6c-30.72 30.72-107.52 102.4-143.36 138.24-10.24 10.24-25.6 10.24-35.84 10.24z m0-819.2c-189.44 0-348.16 153.6-348.16 343.04 0 117.76 76.8 194.56 158.72 276.48 10.24 10.24 15.36 20.48 25.6 25.6 30.72 30.72 102.4 102.4 143.36 138.24 10.24 10.24 25.6 10.24 35.84 0 35.84-35.84 112.64-102.4 143.36-138.24l25.6-25.6c81.92-81.92 158.72-163.84 158.72-281.6 5.12-179.2-153.6-337.92-343.04-337.92z m0 742.4c-5.12 0-15.36 0-20.48-5.12l-10.24-10.24c-35.84-30.72-102.4-97.28-128-122.88-66.56-61.44-143.36-143.36-143.36-256 0-81.92 30.72-158.72 87.04-215.04S427.52 107.52 509.44 107.52c168.96 0 302.08 138.24 302.08 302.08 0 117.76-81.92 199.68-143.36 256-25.6 20.48-66.56 66.56-102.4 97.28-15.36 15.36-30.72 30.72-40.96 35.84 0 5.12-10.24 5.12-15.36 5.12zM509.44 133.12c-76.8 0-143.36 30.72-194.56 81.92S232.96 337.92 232.96 409.6c0 97.28 61.44 163.84 138.24 240.64 25.6 25.6 92.16 87.04 128 117.76l10.24 10.24c10.24-10.24 25.6-20.48 40.96-35.84 35.84-30.72 76.8-71.68 102.4-97.28 76.8-71.68 138.24-143.36 138.24-240.64C785.92 256 663.04 133.12 509.44 133.12zM509.44 1024c-102.4 0-199.68-15.36-276.48-46.08C145.92 947.2 99.84 901.12 99.84 849.92c0-30.72 15.36-76.8 92.16-112.64 0 0 5.12 0 5.12-5.12 5.12-5.12 15.36-5.12 25.6-10.24 20.48-10.24 46.08 0 56.32 15.36 10.24 20.48 0 40.96-20.48 51.2-5.12 5.12-10.24 5.12-20.48 10.24h-5.12c-30.72 15.36-51.2 35.84-51.2 51.2 0 20.48 30.72 46.08 81.92 66.56 66.56 25.6 148.48 35.84 245.76 35.84s179.2-15.36 245.76-35.84c51.2-20.48 81.92-46.08 81.92-66.56 0-15.36-20.48-35.84-51.2-51.2-5.12-5.12-15.36-5.12-20.48-10.24-20.48-10.24-30.72-30.72-20.48-51.2 10.24-20.48 35.84-25.6 56.32-15.36l30.72 15.36c76.8 40.96 92.16 81.92 92.16 112.64 0 51.2-46.08 102.4-133.12 133.12-81.92 25.6-179.2 40.96-281.6 40.96zM509.44 256C422.4 256 355.84 322.56 355.84 409.6s66.56 153.6 153.6 153.6 153.6-66.56 153.6-153.6-66.56-153.6-153.6-153.6z m0 240.64c-51.2 0-87.04-40.96-87.04-87.04S458.24 322.56 509.44 322.56 596.48 358.4 596.48 409.6 560.64 496.64 509.44 496.64zM509.44 573.44c-92.16 0-163.84-76.8-163.84-163.84S417.28 245.76 509.44 245.76s163.84 76.8 163.84 163.84-71.68 163.84-163.84 163.84z m0-307.2C432.64 266.24 366.08 332.8 366.08 409.6s66.56 143.36 143.36 143.36 143.36-61.44 143.36-143.36S586.24 266.24 509.44 266.24zM509.44 512c-56.32 0-102.4-46.08-102.4-102.4s46.08-102.4 102.4-102.4 102.4 46.08 102.4 102.4-46.08 102.4-102.4 102.4z m0-179.2c-40.96 0-76.8 35.84-76.8 76.8S468.48 486.4 509.44 486.4 586.24 450.56 586.24 409.6 550.4 332.8 509.44 332.8z" /></svg>