<?xml version="1.0" standalone="no"?><!DOCTYPE svg PUBLIC "-//W3C//DTD SVG 1.1//EN" "http://www.w3.org/Graphics/SVG/1.1/DTD/svg11.dtd"><svg class="icon" width="200px" height="200.00px" viewBox="0 0 1024 1024" version="1.1" xmlns="http://www.w3.org/2000/svg"><path d="M896 490.6h-64v-19.2c0-11.8-9.6-21.4-21.4-21.4-11.8 0-21.4 9.6-21.4 21.4v19.2H511c-10.8-107.8-101.6-192-212.2-192-117.8 0-213.4 95.6-213.4 213.4s95.6 213.4 213.4 213.4c110.6 0 201.6-84.2 212.2-192h278.4v130.2c0 11.8 9.6 21.4 21.4 21.4 11.8 0 21.4-9.6 21.4-21.4v-130.2h64v128.2c0 11.8 9.6 21.4 21.4 21.4 11.8 0 21.4-9.6 21.4-21.4v-128.2c-0.4-23.6-19.4-42.8-43-42.8z m-469.4 42.8H468c-10.6 84.2-82.4 149.4-169.4 149.4-94.2 0-170.6-76.4-170.6-170.6s76.4-170.6 170.6-170.6c87 0 158.8 65.2 169.4 149.4h-41.4c-11.8 0-21.4 9.6-21.4 21.4s9.6 21 21.4 21zM213.4 512c0 47.2 38.2 85.4 85.4 85.4 11.8 0 21.4 9.6 21.4 21.4 0 11.8-9.6 21.4-21.4 21.4-70.8 0-128-57.2-128-128 0-11.8 9.6-21.4 21.4-21.4s21.2 9.4 21.2 21.2z" /></svg>