<?xml version="1.0" standalone="no"?><!DOCTYPE svg PUBLIC "-//W3C//DTD SVG 1.1//EN" "http://www.w3.org/Graphics/SVG/1.1/DTD/svg11.dtd"><svg class="icon" width="200px" height="200.00px" viewBox="0 0 1024 1024" version="1.1" xmlns="http://www.w3.org/2000/svg"><path d="M896 640h-128V328.2c0-16.6-13.4-29.8-29.8-29.8H285.8c-16.4 0-29.8 13.4-29.8 29.8v246c0 11.8 9.6 21.4 21.4 21.4 11.8 0 21.4-9.6 21.4-21.4V341h426.6V640h-512V277.4c0-11.8 9.6-21.4 21.4-21.4h554.6c11.8 0 21.4 9.6 21.4 21.4V576c0 11.8 9.6 21.4 21.4 21.4s21.4-9.6 21.4-21.4V277.4c0-35.4-28.6-64-64-64H234.6c-35.4 0-64 28.6-64 64V640H128c-23.6 0-42.6 19.2-42.6 42.6v42.6c0 47.2 38.2 85.4 85.4 85.4h682.6c47.2 0 85.4-38.2 85.4-85.4v-42.6c-0.2-23.4-19.2-42.6-42.8-42.6z m0 85.4c0 23.6-19.2 42.6-42.6 42.6H170.6c-23.6 0-42.6-19-42.6-42.6v-42.6h42.6V704c0 11.8 9.6 21.4 21.4 21.4s21.4-9.6 21.4-21.4v-21.4H428V704c0 11.8 9.6 21.4 21.4 21.4h128c11.8 0 21.4-9.6 21.4-21.4v-21.4H896v42.8z" /></svg>