<?xml version="1.0" standalone="no"?><!DOCTYPE svg PUBLIC "-//W3C//DTD SVG 1.1//EN" "http://www.w3.org/Graphics/SVG/1.1/DTD/svg11.dtd"><svg class="icon" width="200px" height="200.00px" viewBox="0 0 1024 1024" version="1.1" xmlns="http://www.w3.org/2000/svg"><path d="M874.6 341.4h-192v-192c0-35.4-28.6-64-64-64H149.4c-35.4 0-64 28.6-64 64v469.4c0 35.4 28.6 64 64 64h469.4c35.4 0 64-28.6 64-64V384h192c11.8 0 21.4 9.6 21.4 21.4v469.4c0 11.8-9.6 21.4-21.4 21.4H405.4c-11.8 0-21.4-9.6-21.4-21.4v-128.2c0-11.8-9.6-21.4-21.4-21.4-11.8 0-21.4 9.6-21.4 21.4v128.2c0 35.4 28.6 64 64 64h469.4c35.4 0 64-28.6 64-64V405.4c0-35.4-28.6-64-64-64z m-234.6 0h-64.6c-11.8 0-21.4 9.6-21.4 21.4 0 11.8 9.6 21.4 21.4 21.4H640v234.6c0 11.8-9.6 21.4-21.4 21.4H149.4c-11.8 0-21.4-9.6-21.4-21.4V149.4C128 137.6 137.6 128 149.4 128h469.4c11.8 0 21.4 9.6 21.4 21.4v192z" /></svg>