<?xml version="1.0" standalone="no"?><!DOCTYPE svg PUBLIC "-//W3C//DTD SVG 1.1//EN" "http://www.w3.org/Graphics/SVG/1.1/DTD/svg11.dtd"><svg class="icon" width="200px" height="200.00px" viewBox="0 0 1024 1024" version="1.1" xmlns="http://www.w3.org/2000/svg"><path d="M891 450.2C864.4 286.4 734.4 157.4 570 132.4c-7.4-27.2-32.2-47-61.8-47-35.4 0-64 28.6-64 64v206c-41.2 17.8-73.8 51.2-90.6 92.8H176.6c22.2-117 104.6-214.6 216.4-256 11-4.2 16.6-16.4 12.6-27.4-4.2-11-16.4-16.6-27.4-12.6-129 48-223 162-245.2 298.2-27.4 7.2-47.6 32.2-47.6 61.8 0 29.8 20.2 54.6 47.6 61.8 26.2 161.2 152.4 288.8 313.4 316.6 7 27.8 32.2 48.2 62 48.2 29.4 0 54.2-20 61.8-47 136.8-20.8 252-114.4 301-243.4 4.2-11-1.4-23.4-12.4-27.6-11-4.2-23.4 1.4-27.6 12.4-42.4 112-141.2 193.8-258.8 215v-176.4c44.4-16.8 80-51.6 97.8-95.6h204.4c35.4 0 64-28.6 64-64 0-30-20.2-54.8-47.6-62z m-404-300.8c0-11.8 9.6-21.4 21.4-21.4s21.4 9.6 21.4 21.4v213.4c0 11.8-9.6 21.4-21.4 21.4s-21.4-9.6-21.4-21.4V149.4zM128 512c0-11.8 9.6-21.4 21.4-21.4h213.4c11.8 0 21.4 9.6 21.4 21.4s-9.6 21.4-21.4 21.4H149.4c-11.8 0-21.4-9.6-21.4-21.4z m401.8 362.6c0 11.8-9.6 21.4-21.4 21.4s-21.4-9.6-21.4-21.4V661.4c0-11.8 9.6-21.4 21.4-21.4s21.4 9.6 21.4 21.4v213.2zM603.4 392c-8.4 8.2-8.4 21.8-0.2 30.2 10.2 10.4 18.6 22.2 24.6 35.2-18.4 11.2-30.6 31.4-30.6 54.6 0 23 12.2 43.2 30.6 54.6-13.2 27.8-36 50.2-64.2 62.6-11-19-31.8-31.8-55.4-31.8-35.4 0-64 28.6-64 64v185.4c-135.6-27.2-242-134.8-267.8-270.6h177c6.4 15.6 15 30.2 25.6 43.2 7.4 9.2 20.8 10.6 30 3.2 9.2-7.4 10.6-20.8 3.2-30-6.4-8-12-16.6-16.2-25.8 18.2-11.2 30.6-31.4 30.6-54.6s-12.2-43.2-30.6-54.6c12.2-26 33-47.2 58.6-60 11.4 17.6 31.2 29.2 53.8 29.2 35.4 0 64-28.6 64-64V176c138.8 24.8 248.6 133.6 275 272h-177c-8.4-20.8-20.8-39.6-36.6-55.8-8.4-8.4-22-8.4-30.4-0.2z m271.2 141.4H661.4c-11.8 0-21.4-9.6-21.4-21.4s9.6-21.4 21.4-21.4h213.4c11.8 0 21.4 9.6 21.4 21.4s-9.8 21.4-21.6 21.4z" /></svg>