<?xml version="1.0" standalone="no"?><!DOCTYPE svg PUBLIC "-//W3C//DTD SVG 1.1//EN" "http://www.w3.org/Graphics/SVG/1.1/DTD/svg11.dtd"><svg class="icon" width="200px" height="200.00px" viewBox="0 0 1024 1024" version="1.1" xmlns="http://www.w3.org/2000/svg"><path d="M916.4 219.8C862 103.2 723.4 52.8 607 107.2L430 189.8c-70.4 32.8-118.8 97.8-131.4 173-2 11.6 6 22.6 17.6 24.6 11.6 2 22.6-6 24.6-17.6 10.2-61.4 49.8-114.6 107.2-141.4L625 146c95.2-44.4 208.4-3.2 252.8 92 44.4 95.2 3.2 208.4-92 252.8l-78 36.4c-0.4-1.4-0.8-2.6-1.4-4-25.4-54.2-69.8-95.8-124.2-117.6-59.4-23.8-126.2-22.6-185.2 5L220 493.2C103.2 547.4 52.8 686 107.2 802.6c54.4 116.6 193 167 309.6 112.6l177-82.6c70.6-33 119-98 131.4-173.4 2-11.6-6-22.6-17.6-24.6-11.6-2-22.6 6-24.6 17.6-10.2 61.6-49.6 114.8-107.4 141.6l-177 82.6c-95.2 44.4-208.4 3.2-252.8-92-44.4-95.2-3.2-208.4 92-252.8l78-36.4c0.4 1.4 0.8 2.6 1.4 3.8 54.4 116.6 193 167 309.6 112.6l177-82.6c116.6-53.8 167-192.4 112.6-309.2zM608.8 573.4c-95.2 44.4-208.4 3.2-252.8-92-0.6-1.2-1.2-2.4-2-3.6l61.2-28.4c48.4-22.6 102.8-23.6 151.4-4.2 44.6 17.8 80.8 51.8 101.6 96.2 0.6 1.2 1.4 2.4 2.2 3.6l-61.6 28.4z" /></svg>