<?xml version="1.0" standalone="no"?><!DOCTYPE svg PUBLIC "-//W3C//DTD SVG 1.1//EN" "http://www.w3.org/Graphics/SVG/1.1/DTD/svg11.dtd"><svg class="icon" width="200px" height="200.00px" viewBox="0 0 1024 1024" version="1.1" xmlns="http://www.w3.org/2000/svg"><path d="M192 298.6h42.6c11.8 0 21.4 9.6 21.4 21.4s-9.6 21.4-21.4 21.4H192c-11.8 0-21.4-9.6-21.4-21.4s9.6-21.4 21.4-21.4z m170.6 0H832c11.8 0 21.4 9.6 21.4 21.4s-9.6 21.4-21.4 21.4H362.6c-11.8 0-21.4-9.6-21.4-21.4s9.6-21.4 21.4-21.4z m-128 256H192c-11.8 0-21.4 9.6-21.4 21.4s9.6 21.4 21.4 21.4h42.6c11.8 0 21.4-9.6 21.4-21.4s-9.6-21.4-21.4-21.4z m128 0H832c11.8 0 21.4 9.6 21.4 21.4s-9.6 21.4-21.4 21.4H362.6c-11.8 0-21.4-9.6-21.4-21.4s9.6-21.4 21.4-21.4z m-128-128H192c-11.8 0-21.4 9.6-21.4 21.4s9.6 21.4 21.4 21.4h42.6c11.8 0 21.4-9.6 21.4-21.4s-9.6-21.4-21.4-21.4z m128 0h298.6c11.8 0 21.4 9.6 21.4 21.4s-9.6 21.4-21.4 21.4H362.6c-11.8 0-21.4-9.6-21.4-21.4s9.6-21.4 21.4-21.4z m-128 256H192c-11.8 0-21.4 9.6-21.4 21.4s9.6 21.4 21.4 21.4h42.6c11.8 0 21.4-9.6 21.4-21.4s-9.6-21.4-21.4-21.4z m128 0h298.6c11.8 0 21.4 9.6 21.4 21.4s-9.6 21.4-21.4 21.4H362.6c-11.8 0-21.4-9.6-21.4-21.4s9.6-21.4 21.4-21.4z" /></svg>