<?xml version="1.0" standalone="no"?><!DOCTYPE svg PUBLIC "-//W3C//DTD SVG 1.1//EN" "http://www.w3.org/Graphics/SVG/1.1/DTD/svg11.dtd"><svg class="icon" width="200px" height="200.00px" viewBox="0 0 1024 1024" version="1.1" xmlns="http://www.w3.org/2000/svg"><path d="M810.6 426.6h-128v-85.4c0-94.2-76.4-170.6-170.6-170.6-76.6 0-143.4 51-164.2 123.8-4.4 15.2-6.6 31-6.6 47v21.6c0 11.8 9.6 21.4 21.4 21.4 11.8 0 21.4-9.6 21.4-21.4v-21.6c0-12 1.6-23.8 5-35.2 15.6-54.4 65.6-92.8 123-92.8 70.6 0 128 57.4 128 128v85.4H298.6v-85.4C298.6 223.6 394.2 128 512 128c95.8 0 179.2 63.8 205.2 154.6 5.4 19 8.2 38.6 8.2 58.6v22.2c0 11.8 9.6 21.4 21.4 21.4 11.8 0 21.4-9.6 21.4-21.4v-22.2c0-24-3.4-47.6-9.8-70.4-31.4-109-131.4-185.4-246.4-185.4-141.4 0-256 114.6-256 256v85.4h-42.6c-35.4 0-64 28.6-64 64v384c0 35.4 28.6 64 64 64h597.4c35.4 0 64-28.6 64-64v-384c-0.2-35.4-28.8-64.2-64.2-64.2z m21.4 448c0 11.8-9.6 21.4-21.4 21.4H213.4c-11.8 0-21.4-9.6-21.4-21.4v-384c0-11.8 9.6-21.4 21.4-21.4H256v43.8c0 11.8 9.6 21.4 21.4 21.4 11.8 0 21.4-9.6 21.4-21.4v-43.8h512c11.8 0 21.4 9.6 21.4 21.4v384zM512 640c-23.6 0-42.6 19-42.6 42.6 0 11.8-9.6 21.4-21.4 21.4s-21.4-9.6-21.4-21.4c0-47.2 38.2-85.4 85.4-85.4s85.4 38.2 85.4 85.4S559.2 768 512 768c-11.8 0-21.4-9.6-21.4-21.4 0-11.8 9.6-21.4 21.4-21.4 23.6 0 42.6-19 42.6-42.6S535.6 640 512 640z" /></svg>