<?xml version="1.0" standalone="no"?><!DOCTYPE svg PUBLIC "-//W3C//DTD SVG 1.1//EN" "http://www.w3.org/Graphics/SVG/1.1/DTD/svg11.dtd"><svg class="icon" width="200px" height="200.00px" viewBox="0 0 1024 1024" version="1.1" xmlns="http://www.w3.org/2000/svg"><path d="M861.4 214.8L136.2 367.4c-2.8 0.6-5.6 1.4-8.2 2.2v-17c0-11.8-9.6-21.4-21.4-21.4-11.8 0-21.4 9.6-21.4 21.4V651.4c0 11.8 9.6 21.4 21.4 21.4 11.8 0 21.4-9.6 21.4-21.4v-17c2.6 1 5.4 1.6 8.2 2.2l503.8 106v37c0 11.8-9.6 21.4-21.4 21.4h-256c-11.8 0-21.4-9.6-21.4-21.4v-43c0-11.8-9.6-21.4-21.4-21.4-11.8 0-21.4 9.6-21.4 21.4v43c0 35.4 28.6 64 64 64h256c35.4 0 64-28.6 64-64v-28l178.8 37.6c39.8 8.4 77.2-22 77.2-62.6V277.4c0.2-40.6-37.2-71-77-62.6z m34.6 512c0 13.6-12.4 23.6-25.8 20.8l-187.6-39.4v-35.4c0-11.8-9.6-21.4-21.4-21.4-11.8 0-21.4 9.6-21.4 21.4v26.4L145 595c-9.8-2-16.8-10.6-17-20.4v-145c0.2-9.8 7.2-18.4 17-20.4l725.4-152.6c13.2-2.8 25.8 7.4 25.8 20.8v449.4z" /></svg>