<?xml version="1.0" standalone="no"?><!DOCTYPE svg PUBLIC "-//W3C//DTD SVG 1.1//EN" "http://www.w3.org/Graphics/SVG/1.1/DTD/svg11.dtd"><svg class="icon" width="200px" height="200.00px" viewBox="0 0 1024 1024" version="1.1" xmlns="http://www.w3.org/2000/svg"><path d="M874.6 213.4H149.4c-35.4 0-64 28.6-64 64v469.4c0 35.4 28.6 64 64 64h725.4c35.4 0 64-28.6 64-64V277.4c-0.2-35.4-28.8-64-64.2-64zM128 741.8V277.4c0-11.8 9.6-21.4 21.4-21.4h703.2L522.2 551.8c-5.4 3.6-15.2 3.6-22.4-1.6l-262-245.6c-8.6-8-22-7.6-30.2 1-8 8.6-7.6 22 1 30.2l167.4 156.8L128 741.8z m768 4.8v1.8l-198.4-199.2c-8.4-8.4-21.8-8.4-30.2 0-8.4 8.4-8.4 21.8 0 30.2l188 188.8H162l245.2-246.4 65.8 61.6c24.4 17.4 53.8 17.4 75.8 2l347-310.8c0.2 1 0.2 1.8 0.2 2.8v469.2z" /></svg>