<?xml version="1.0" standalone="no"?><!DOCTYPE svg PUBLIC "-//W3C//DTD SVG 1.1//EN" "http://www.w3.org/Graphics/SVG/1.1/DTD/svg11.dtd"><svg class="icon" width="200px" height="200.00px" viewBox="0 0 1024 1024" version="1.1" xmlns="http://www.w3.org/2000/svg"><path d="M394.6 137.8v627.8c0 24.6-14.2 47.2-36.4 57.8L122 936.8c-17 8.2-36.8-4.2-36.8-23V260.2c0-24.2 13.6-46.4 35.2-57.2l146.4-73.6c10.6-5.2 23.4-1 28.6 9.4 5.2 10.6 1 23.4-9.4 28.6l-146.2 73.6c-7.2 3.6-11.8 11-11.8 19v626.4l212-101.6c7.4-3.6 12.2-11 12.2-19.2V111c0-18.8 19.6-31.2 36.4-23.2l242.2 113.6c22.4 10.6 36.8 33.2 36.8 58V886l216.2-102c7.4-3.6 12.2-11 12.2-19.2V138.6l-150.4 72.2c-10.6 5.2-23.4 0.6-28.4-10-5.2-10.6-0.6-23.4 10-28.4l175-84c17-8 36.6 4.4 36.6 23.2v653c0 24.8-14.4 47.4-36.8 57.8L661.6 936c-4.8 2.2-9.6 3-14.4 2.4-3.2 0.2-6.6-0.6-9.8-2l-190.4-89.4c-10.6-5-15.2-17.8-10.2-28.4 5-10.6 17.8-15.2 28.4-10.2l159.8 75v-624c0-8.2-4.8-15.8-12.2-19.4L394.6 137.8z" /></svg>