<svg xmlns="http://www.w3.org/2000/svg" width="32" height="32" viewBox="0 0 24 24"><path fill="currentColor" d="M3 21.23v-1h18v1zM5 19v-4.692q-.863-1.716-1.304-3.305q-.44-1.59-.44-3.01q0-1.18.3-2.453q.302-1.273.923-2.948q.084-.255.284-.424q.2-.168.481-.168q.333 0 .556.265q.223.266.18.606l-.255 2.064q-.15 1.315.318 2.582Q6.512 8.785 7.4 9.78q.888.995 2.087 1.608Q10.685 12 12 12q1.558 0 2.83.216q1.272.217 2.166.638q.952.46 1.478 1.184T19 15.85V19H9.538v-.406q0-.984.69-1.674q.691-.69 1.695-.69h3.385v-1h-3.385q-1.406 0-2.395.98q-.99.978-.99 2.384V19zm7-8.462q-1.246 0-2.123-.876Q9 8.785 9 7.538q0-1.246.877-2.123q.877-.877 2.123-.877q1.246 0 2.123.877q.877.877.877 2.123q0 1.247-.877 2.124q-.877.876-2.123.876"/></svg>