<svg xmlns="http://www.w3.org/2000/svg" width="32" height="32" viewBox="0 0 24 24"><path fill="currentColor" d="M8.5 11.5v-1h7v1zm0-4v-1h7v1zm-2.5 7h7.5q.61 0 1.12.264q.509.265.876.744L18 18.758V4.615q0-.269-.173-.442T17.385 4H6.615q-.269 0-.442.173T6 4.615zm.615 5.5h11.07l-2.975-3.883q-.227-.296-.536-.456q-.309-.161-.674-.161H6v3.885q0 .269.173.442t.442.173m10.77 1H6.615q-.69 0-1.152-.462Q5 20.075 5 19.385V4.615q0-.69.463-1.152Q5.925 3 6.615 3h10.77q.69 0 1.152.463q.463.462.463 1.152v14.77q0 .69-.462 1.152q-.463.463-1.153.463M6 20V4zm0-4.5v-1z"/></svg>