<?xml version="1.0" standalone="no"?><!DOCTYPE svg PUBLIC "-//W3C//DTD SVG 1.1//EN" "http://www.w3.org/Graphics/SVG/1.1/DTD/svg11.dtd"><svg t="1700186760541" class="icon" viewBox="0 0 1037 1024" version="1.1" xmlns="http://www.w3.org/2000/svg" p-id="9999" xmlns:xlink="http://www.w3.org/1999/xlink" width="202.5390625" height="200"><path d="M108.229129 1021.233059c-7.873561-24.747261-34.871303-70.866509-58.492878-92.238495 246.346035-32.621714 337.461519-78.740962 381.331178-179.978704-154.10754 1.123902-271.093296 4.499178-362.207889 7.873561l0-85.489728c98.988153 4.499178 219.349185 6.748767 381.330286 7.873561 5.623972-37.120892 7.873561-83.240139 6.748767-105.737812 34.871303 11.248836 70.866509 19.122397 105.738704 22.497672 15.748014 1.125686 16.871916 4.499178 3.373491 17.997603-10.12315 10.124042-16.872808 29.247331-26.99685 65.242537 182.228293 0 307.089394-3.375275 409.45193-7.873561l0 85.489728c-92.239387-3.375275-202.476376-6.749659-356.583024-7.873561 86.614523 101.237742 197.977199 152.981854 392.579122 147.35699-22.497672 32.621714-33.746509 78.740962-30.371233 105.737812-227.223638-20.247192-328.462272-69.741714-439.824056-235.097199C460.313868 910.99607 347.826397 957.116209 108.229129 1021.233059zM652.666202 0.977617c22.497672 13.498425 71.991303 31.496028 105.737812 39.370481 12.372739 3.373491 13.498425 10.12315-3.374383 15.748014-12.373631 4.499178-19.122397 10.12315-89.988906 103.488223 116.985756-1.125686 211.474732-3.374383 284.591721-6.749659l0 86.615415c-94.488976-4.50007-223.849254-7.873561-392.580014-7.873561L557.052432 327.189408c136.109045-1.125686 242.972544-3.374383 319.463024-7.873561l0 86.615415c-76.490481-4.50007-183.353979-6.749659-319.463024-7.875345l0 94.488976c197.977199 0 318.33823-2.249589 429.700014-7.873561l0 86.615415c-118.110551-5.623972-247.471721-7.873561-467.9457-7.873561s-349.834258 2.249589-467.944808 7.873561l0-86.615415c110.23699 5.623972 228.348432 7.873561 420.700767 7.873561L471.562704 398.055916c-137.23384 1.125686-245.22124 3.374383-321.712613 7.875345l0-86.615415c79.865756 4.499178 184.478774 6.748767 321.712613 7.873561L471.562704 231.575638c-160.856307 1.123902-280.092544 3.373491-372.33193 7.873561l0-86.615415c105.737812 4.499178 212.600418 7.873561 348.709463 7.873561l134.984251 0C641.417366 49.346453 650.416613 30.223164 652.666202 0.977617zM341.077631 146.085017c-12.373631-38.245686-31.496028-76.490481-57.368084-107.987401L365.824 5.476794c21.372878 34.871303 35.996098 59.618564 59.617672 104.613017L341.077631 146.085017z" p-id="10000"></path></svg>