<?xml version="1.0" standalone="no"?><!DOCTYPE svg PUBLIC "-//W3C//DTD SVG 1.1//EN" "http://www.w3.org/Graphics/SVG/1.1/DTD/svg11.dtd"><svg class="icon" width="200px" height="200.00px" viewBox="0 0 1024 1024" version="1.1" xmlns="http://www.w3.org/2000/svg"><path d="M448 894.6c0 11.8 9.6 21.4 21.4 21.4s21.4-9.6 21.4-21.4H448zM789.2 490.6c0-11.8-9.6-21.4-21.4-21.4-11.8 0-21.4 9.6-21.4 21.4 0 130-96.6 234.6-215 234.6H492c-111.6 0-204.2-93.4-214-213.4h43c10.6 96 92 170.6 190.8 170.6 106 0 192-86 192-192V277.4c0-106-86-192-192-192s-192 86-192 192v192h-59.6c-14.4 0-26 12-25.8 26.2C236.8 646.4 351 768 492 768h41v126.6h-42.6v-63.6c0-11.8-9.6-21.4-21.4-21.4s-21.4 9.6-21.4 21.4v63.6h-85.4c-11.8 0-21.4 9.6-21.4 21.4 0 11.8 9.6 21.4 21.4 21.4h298.6c11.8 0 21.4-9.6 21.4-21.4 0-11.8-9.6-21.4-21.4-21.4H576V764c121.4-22.6 213.2-136.8 213.2-273.4zM362.6 277.4c0-82.4 66.8-149.4 149.4-149.4 82.4 0 149.4 66.8 149.4 149.4v213.4c0 82.4-66.8 149.4-149.4 149.4-75.2 0-137.4-55.6-147.8-128h126.4c11.8 0 21.4-9.6 21.4-21.4 0-11.8-9.6-21.4-21.4-21.4h-128v-192z" /></svg>