<?xml version="1.0" standalone="no"?><!DOCTYPE svg PUBLIC "-//W3C//DTD SVG 1.1//EN" "http://www.w3.org/Graphics/SVG/1.1/DTD/svg11.dtd"><svg class="icon" width="200px" height="200.00px" viewBox="0 0 1024 1024" version="1.1" xmlns="http://www.w3.org/2000/svg"><path d="M768.6 789.6V149.4c0-35.4-28.6-64-64-64H320c-35.4 0-64 28.6-64 64v725.4c0 35.4 28.6 64 64 64h384.6c35.4 0 64-28.6 64-64v-83.6-0.8-0.8z m-42.8-20.6H362.6c-11.8 0-21.4 9.6-21.4 21.4s9.6 21.4 21.4 21.4h363.2v63c0 11.8-9.6 21.4-21.4 21.4H320c-11.8 0-21.4-9.6-21.4-21.4V257h363.2c11.8 0 21.4-9.6 21.4-21.4 0-11.8-9.6-21.4-21.4-21.4H298.6V149.4c0-11.8 9.6-21.4 21.4-21.4h384.6c11.8 0 21.4 9.6 21.4 21.4v619.6z" /></svg>