<?xml version="1.0" standalone="no"?><!DOCTYPE svg PUBLIC "-//W3C//DTD SVG 1.1//EN" "http://www.w3.org/Graphics/SVG/1.1/DTD/svg11.dtd"><svg class="icon" width="200px" height="200.00px" viewBox="0 0 1024 1024" version="1.1" xmlns="http://www.w3.org/2000/svg"><path d="M512 426.6c-47.2 0-85.4 38.2-85.4 85.4s38.2 85.4 85.4 85.4 85.4-38.2 85.4-85.4-38.2-85.4-85.4-85.4z m0 128c-23.6 0-42.6-19-42.6-42.6s19.2-42.6 42.6-42.6 42.6 19 42.6 42.6-19 42.6-42.6 42.6zM256 426.6c-47.2 0-85.4 38.2-85.4 85.4s38.2 85.4 85.4 85.4 85.4-38.2 85.4-85.4-38.2-85.4-85.4-85.4z m0 128c-23.6 0-42.6-19-42.6-42.6s19.2-42.6 42.6-42.6c23.6 0 42.6 19 42.6 42.6s-19 42.6-42.6 42.6zM768 426.6c-47.2 0-85.4 38.2-85.4 85.4s38.2 85.4 85.4 85.4 85.4-38.2 85.4-85.4-38.2-85.4-85.4-85.4z m0 128c-23.6 0-42.6-19-42.6-42.6s19.2-42.6 42.6-42.6 42.6 19 42.6 42.6-19 42.6-42.6 42.6z" /></svg>