<?xml version="1.0" standalone="no"?><!DOCTYPE svg PUBLIC "-//W3C//DTD SVG 1.1//EN" "http://www.w3.org/Graphics/SVG/1.1/DTD/svg11.dtd"><svg class="icon" width="200px" height="200.00px" viewBox="0 0 1024 1024" version="1.1" xmlns="http://www.w3.org/2000/svg"><path d="M359.2 328l15.2 15.2c8.4 8.4 8.4 21.8 0 30.2-8.4 8.4-21.8 8.4-30.2 0l-15.2-15.2c-75 75-75 196.6 0 271.6l211.2 211.2c75 75 196.6 75 271.6 0l30.2-30.2c75-75 75-196.6 0-271.6L630.6 328.2c-36.2-36.2-84.2-55.8-134.2-56.2-11.8 0-21.2-9.8-21.2-21.4 0-11.8 9.8-21.2 21.4-21.2 61.2 0.4 120 24.6 164 68.8L872 509.2c91.6 91.6 91.6 240.2 0 331.8l-30.2 30.2c-91.6 91.6-240.2 91.6-331.8 0L298.8 660c-91.6-91.6-91.6-240.2 0-331.8l-2.6-2.6c-45-45-56.4-49.6-125.2-49.6-79.8 0-115.4-109-55.6-164.6 27.4-25 41.2-26.8 144.8-25.6 23.4 0.2 40.2 0.4 59.6 0.4 11.8 0 21.4 9.6 21.4 21.4 0 11.8-9.6 21.4-21.4 21.4-19.6 0-36.6-0.2-60-0.4-90.2-1.2-99.8 0-115.6 14.6-32.2 29.8-12.4 90.2 27 90.2 80.2 0 102.4 9.2 155.4 62.2l2.6 2.6c16.8-16.8 36-30.8 56.6-41.8 10.4-5.6 23.4-1.6 28.8 8.8 5.6 10.4 1.6 23.4-8.8 28.8-17.2 8.8-32.8 20.4-46.6 34zM449.8 479.2l-15.2-15.2c-8.2-8.4-8.2-21.8 0-30.2 8.4-8.4 21.8-8.4 30.2 0l30.2 30.2c8.4 8.4 8.4 21.8 0 30.2-8.4 8.4-8.4 21.8 0 30.2 8.4 8.4 21.8 8.4 30.2 0 25-25 25-65.6 0-90.4l-30.2-30.2c-25-25-65.6-25-90.6 0s-25 65.4 0 90.4l15.4 15.2c8.4 8.4 21.8 8.2 30.2 0 8.2-8.4 8-22-0.2-30.2z" /></svg>