<?xml version="1.0" standalone="no"?><!DOCTYPE svg PUBLIC "-//W3C//DTD SVG 1.1//EN" "http://www.w3.org/Graphics/SVG/1.1/DTD/svg11.dtd"><svg class="icon" width="200px" height="200.00px" viewBox="0 0 1024 1024" version="1.1" xmlns="http://www.w3.org/2000/svg"><path d="M874.6 234.6h-576v-21.4c0-11.8-9.6-21.4-21.4-21.4-11.8 0-21.4 9.6-21.4 21.4v21.4H149.4c-35.4 0-64 28.6-64 64v426.6c0 35.4 28.6 64 64 64h576v21.4c0 11.8 9.6 21.4 21.4 21.4 11.8 0 21.4-9.6 21.4-21.4v-21.4h106.6c35.4 0 64-28.6 64-64V298.6c-0.2-35.2-28.8-64-64.2-64zM128 298.6c0-11.8 9.6-21.4 21.4-21.4H256v85.8H128v-64.4z m0 107.2h128v84.8H128v-84.8z m0 127.6h128v84.4H128v-84.4z m768 192c0 11.8-9.6 21.4-21.4 21.4H768v-86.2h128v64.8z m0-107.6h-128v-84.4h128v84.4z m0-127.2h-128v-84.8h128v84.8z m0-127.4h-128v-24.4c0-11.8-9.6-21.4-21.4-21.4-11.8 0-21.4 9.6-21.4 21.4v408h-576c-11.8 0-21.4-9.6-21.4-21.4v-64.8h128V682c0 11.8 9.6 21.4 21.4 21.4 11.8 0 21.4-9.6 21.4-21.4V277.4h576c11.8 0 21.4 9.6 21.4 21.4v64.4z" /></svg>