<?xml version="1.0" standalone="no"?><!DOCTYPE svg PUBLIC "-//W3C//DTD SVG 1.1//EN" "http://www.w3.org/Graphics/SVG/1.1/DTD/svg11.dtd"><svg class="icon" width="200px" height="200.00px" viewBox="0 0 1024 1024" version="1.1" xmlns="http://www.w3.org/2000/svg"><path d="M517.389474 75.452632c37.726316 0 70.063158 5.389474 102.4 10.778947 10.778947 0 21.557895 10.778947 21.557894 21.557895s0 21.557895-5.389473 32.336842-21.557895 10.778947-32.336842 10.778947c-26.947368-5.389474-53.894737-10.778947-86.231579-10.778947-220.968421 0-398.821053 177.852632-398.821053 398.821052s177.852632 398.821053 398.821053 398.821053S916.210526 759.915789 916.210526 538.947368c0-32.336842-5.389474-59.284211-10.778947-86.231579 0-10.778947 0-21.557895 10.778947-32.336842 10.778947-5.389474 21.557895-10.778947 32.336842-5.389473 10.778947 0 21.557895 10.778947 21.557895 21.557894 5.389474 32.336842 10.778947 70.063158 10.778948 102.4 0 253.305263-210.189474 463.494737-463.494737 463.494737S53.894737 797.642105 53.894737 538.947368s210.189474-463.494737 463.494737-463.494736z m0 247.915789c16.168421 0 32.336842 16.168421 32.336842 32.336842s-16.168421 32.336842-32.336842 32.336842c-80.842105 0-150.905263 70.063158-150.905263 150.905263s70.063158 150.905263 150.905263 150.905264 150.905263-70.063158 150.905263-150.905264c0-16.168421 16.168421-32.336842 32.336842-32.336842s32.336842 16.168421 32.336842 32.336842c0 118.568421-97.010526 215.578947-215.578947 215.578948s-215.578947-97.010526-215.578948-215.578948 97.010526-215.578947 215.578948-215.578947z m328.757894-264.08421s5.389474 5.389474 5.389474 10.778947l26.947369 91.621053c0 5.389474 5.389474 10.778947 16.168421 16.168421l91.621052 32.336842c5.389474 0 10.778947 10.778947 16.168421 16.168421s0 16.168421-5.389473 21.557894l-150.905264 150.905264c-5.389474 5.389474-16.168421 5.389474-21.557894 5.389473l-91.621053-32.336842L592.842105 506.610526c-5.389474 10.778947-16.168421 16.168421-26.947368 10.778948-16.168421-5.389474-21.557895-10.778947-26.947369-21.557895 0-10.778947 0-26.947368 10.778948-32.336842L689.852632 323.368421l-32.336843-91.621053c0-5.389474 0-16.168421 5.389474-21.557894l150.905263-150.905263c10.778947-5.389474 21.557895-5.389474 32.336842 0z m-48.505263 113.178947l-64.673684 64.673684 21.557895 70.063158 70.063158 21.557895 64.673684-64.673684-26.947369-10.778948c-21.557895-5.389474-43.115789-26.947368-53.894736-48.505263v-5.389474l-10.778948-26.947368zM517.389474 1013.221053C253.305263 1013.221053 43.115789 803.031579 43.115789 538.947368s210.189474-474.273684 474.273685-474.273684c37.726316 0 70.063158 5.389474 107.789473 10.778948 16.168421 5.389474 26.947368 16.168421 32.336842 26.947368 5.389474 16.168421 0 32.336842-10.778947 43.115789-10.778947 16.168421-26.947368 21.557895-43.115789 16.168422-26.947368-5.389474-53.894737-10.778947-86.231579-10.778948-215.578947 0-388.042105 172.463158-388.042106 388.042105s172.463158 388.042105 388.042106 388.042106 388.042105-172.463158 388.042105-388.042106c0-26.947368-5.389474-59.284211-10.778947-86.231579-5.389474-16.168421 0-32.336842 10.778947-43.115789 10.778947-10.778947 26.947368-16.168421 43.115789-10.778947 16.168421 5.389474 26.947368 16.168421 26.947369 32.336842 5.389474 32.336842 10.778947 70.063158 10.778947 102.4 5.389474 269.473684-204.8 479.663158-468.88421 479.663158z m0-926.989474C269.473684 86.231579 64.673684 291.031579 64.673684 538.947368s204.8 452.715789 452.71579 452.71579S970.105263 786.863158 970.105263 538.947368c0-32.336842-5.389474-64.673684-10.778947-97.010526 0-5.389474-5.389474-16.168421-16.168421-16.168421-5.389474 0-16.168421 0-21.557895 5.389474-5.389474 5.389474-5.389474 10.778947-5.389474 16.168421 5.389474 26.947368 10.778947 59.284211 10.778948 91.621052 0 226.357895-183.242105 409.6-409.6 409.6S107.789474 765.305263 107.789474 538.947368s183.242105-409.6 409.6-409.6c32.336842 0 59.284211 5.389474 91.621052 10.778948 5.389474 0 16.168421 0 21.557895-5.389474 5.389474-5.389474 5.389474-16.168421 5.389474-21.557895 0-5.389474-10.778947-10.778947-16.168421-16.168421-32.336842-5.389474-70.063158-10.778947-102.4-10.778947z m0 679.073684c-123.957895 0-226.357895-102.4-226.357895-226.357895s102.4-226.357895 226.357895-226.357894c21.557895 0 43.115789 21.557895 43.115789 43.115789s-21.557895 43.115789-43.115789 43.11579C441.936842 398.821053 377.263158 463.494737 377.263158 538.947368s64.673684 140.126316 140.126316 140.126316 140.126316-64.673684 140.126315-140.126316c0-21.557895 21.557895-43.115789 43.11579-43.115789s43.115789 21.557895 43.115789 43.115789c0 123.957895-102.4 226.357895-226.357894 226.357895z m0-431.157895c-113.178947 0-204.8 91.621053-204.8 204.8s91.621053 204.8 204.8 204.8 204.8-91.621053 204.8-204.8c0-10.778947-10.778947-21.557895-21.557895-21.557894s-21.557895 10.778947-21.557895 21.557894c0 91.621053-70.063158 161.684211-161.68421 161.684211s-161.684211-70.063158-161.684211-161.684211 70.063158-161.684211 161.684211-161.68421c10.778947 0 21.557895-10.778947 21.557894-21.557895s-10.778947-21.557895-21.557894-21.557895z m53.894737 194.021053h-10.778948c-16.168421-5.389474-26.947368-16.168421-32.336842-32.336842 0-16.168421 0-26.947368 10.778947-43.11579l134.736843-134.736842-26.947369-86.231579c-5.389474-10.778947 0-26.947368 5.389474-32.336842L808.421053 53.894737c5.389474-5.389474 16.168421-10.778947 21.557894-10.778948 10.778947 0 16.168421 5.389474 21.557895 10.778948 5.389474 5.389474 5.389474 5.389474 5.389474 10.778947l32.336842 97.010527c0 5.389474 5.389474 5.389474 5.389474 5.389473l91.621052 32.336842c10.778947 5.389474 16.168421 10.778947 21.557895 21.557895 0 10.778947 0 21.557895-10.778947 32.336842l-150.905264 150.905263c-10.778947 10.778947-21.557895 10.778947-32.336842 5.389474l-86.231579-26.947368L592.842105 517.389474c0 5.389474-10.778947 10.778947-21.557894 10.778947z m258.694736-463.494737c-5.389474 0-5.389474 0-5.389473 5.389474L673.684211 215.578947c-5.389474 5.389474-5.389474 5.389474 0 10.778948L700.631579 323.368421l-145.51579 145.51579c-5.389474 5.389474-5.389474 16.168421-5.389473 21.557894s5.389474 10.778947 16.168421 16.168421c5.389474 0 16.168421 0 21.557895-5.389473l145.515789-145.51579 97.010526 32.336842h10.778948l150.905263-150.905263s5.389474-5.389474 5.389474-10.778947-5.389474-5.389474-5.389474-5.389474l-91.621053-32.336842c-10.778947-5.389474-16.168421-10.778947-21.557894-21.557895l-32.336843-91.621052v-5.389474c-10.778947-5.389474-16.168421-5.389474-16.168421-5.389474z m-5.389473 274.863158l-80.842106-26.947368-26.947368-80.842106 80.842105-80.842105 16.168421 48.505263c10.778947 21.557895 26.947368 37.726316 48.505263 43.11579l43.11579 16.168421-80.842105 80.842105z m-64.673685-43.115789l59.284211 21.557894 48.505263-48.505263-10.778947-5.389473c-26.947368-10.778947-48.505263-26.947368-59.284211-53.894737l-5.389473-16.168421-48.505264 48.505263 16.168421 53.894737z" /></svg>