<?xml version="1.0" standalone="no"?><!DOCTYPE svg PUBLIC "-//W3C//DTD SVG 1.1//EN" "http://www.w3.org/Graphics/SVG/1.1/DTD/svg11.dtd"><svg class="icon" width="200px" height="200.00px" viewBox="0 0 1024 1024" version="1.1" xmlns="http://www.w3.org/2000/svg"><path d="M444.6 206.2L896 131.2V682c0 70.6-57.4 128-128 128s-128-57.4-128-128 57.4-128 128-128c19 0 37.2 4.2 54 12 10.6 5 23.4 0.4 28.4-10.4 5-10.6 0.4-23.4-10.4-28.4-22.4-10.4-47-16-72.2-16-94.2 0-170.6 76.4-170.6 170.6s76.4 170.6 170.6 170.6 170.6-76.4 170.6-170.6V111c0-16-14.4-28-30.2-25.2L437.4 164.2C406.6 169.4 384 196 384 227.4v59.8l-26.2 4.4c-11.6 2-19.4 13-17.6 24.6 2 11.6 13 19.4 24.6 17.6l19.2-3.2v436.8c0 70.6-57.4 128-128 128s-128-57.4-128-128 57.4-128 128-128c20 0 39.2 4.6 56.6 13.2 10.6 5.2 23.4 0.8 28.6-9.6 5.2-10.6 0.8-23.4-9.6-28.6-23.2-11.4-49-17.6-75.4-17.6-94.2 0-170.6 76.4-170.6 170.6S162 938 256.2 938c94.2 0 170.6-76.4 170.6-170.6v-444l408-68.4c11.6-2 19.4-13 17.6-24.6-2-11.6-13-19.4-24.6-17.6L426.6 280v-52.6c0-10.4 7.6-19.4 18-21.2zM426.6 280l-42.6 7.2v43.2l42.6-7.2zM405.4 767.2m-21.4 0a21.4 21.4 0 1 0 42.8 0 21.4 21.4 0 1 0-42.8 0ZM917.4 681.8m-21.4 0a21.4 21.4 0 1 0 42.8 0 21.4 21.4 0 1 0-42.8 0ZM896 131.2l19.4-3.2c-10 1.6-19.4-6.6-19.4-17v20.2z" /></svg>