<?xml version="1.0" standalone="no"?><!DOCTYPE svg PUBLIC "-//W3C//DTD SVG 1.1//EN" "http://www.w3.org/Graphics/SVG/1.1/DTD/svg11.dtd"><svg class="icon" width="200px" height="200.00px" viewBox="0 0 1024 1024" version="1.1" xmlns="http://www.w3.org/2000/svg"><path d="M388 299.6l121.8-112.4c42.8-37.6 109.8-7.4 109.8 49.6V788c0 56.8-67 87.2-109.6 49.8l-97-83c-9-7.6-10-21.2-2.4-30 7.6-9 21.2-10 30-2.4l97.2 83.2c15.2 13.4 39 2.6 39-17.6V236.8c0-20.2-23.8-31-38.6-18 0 0-85.4 79-154.2 142.4M349.6 335.2l-6.6 6.2h-0.4c-0.2-0.6-0.4-1.4-0.6-2v-4l7.6-0.2zM257 439.8v114.8c0 11.8 9.6 21.4 21.4 21.4 11.8 0 21.4-9.6 21.4-21.4v-114.8s17-16 42-39v-38.2l0.2-20.2-71.2 65.6c-9 8.4-13.8 19.8-13.8 31.8zM349.6 335.2l38.6-35.6c-0.6-0.4-1.2-0.6-1.8-0.6-0.8-0.2-1.6 0-2.6 0-1.8-0.2-2.4-0.2-3.2-0.4H139.8c-31.4 0-54.6 29.6-54.6 64v298.6c0 34.4 23.2 64 54.6 64h190c31.4 0 54.6-29.6 54.6-64v-300c-15.4 14.2-30 27.8-42.6 39.4v260.6c0 12.8-6.6 21.4-11.8 21.4H140c-5.2 0-12-8.6-12-21.4V362.6c0-12.8 6.6-21.4 12-21.4h202v1l1.2-1M379 341.4zM933 420.6L841.4 512l91.4 91.6c8.4 8.4 8.4 21.8 0 30.2-8.4 8.4-21.8 8.4-30.2 0l-91.4-91.4-91.4 91.4c-8.4 8.4-21.8 8.4-30.2 0-8.4-8.4-8.4-21.8 0-30.2l91.4-91.6-91.4-91.4c-8.4-8.4-8.4-21.8 0-30.2 8.4-8.4 21.8-8.4 30.2 0l91.4 91.4 91.4-91.4c8.4-8.4 21.8-8.4 30.2 0 8.4 8.2 8.4 21.8 0.2 30.2z" /></svg>