<?xml version="1.0" standalone="no"?><!DOCTYPE svg PUBLIC "-//W3C//DTD SVG 1.1//EN" "http://www.w3.org/Graphics/SVG/1.1/DTD/svg11.dtd"><svg class="icon" width="200px" height="200.00px" viewBox="0 0 1024 1024" version="1.1" xmlns="http://www.w3.org/2000/svg"><path d="M909.6 458.2L505 182c-42.6-29-100 1.4-100 52.8v20c0 11.8 9.6 21.4 21.4 21.4 11.8 0 21.4-9.6 21.4-21.4v-20c0-17.2 19.2-27.2 33.4-17.6l404.6 276.4c12.4 8.4 12.4 26.8 0 35.2L481 805.2c-14.2 9.6-33.4-0.4-33.4-17.6v-126l143-97.6c37.2-25.4 37.2-80.4 0-105.8L185.4 181.8c-42.4-29-100 1.4-100 53v552.8c0 51.4 57.6 81.8 100 52.8l219.4-149.8v96.8c0 51.4 57.6 81.8 100 52.8L909.6 564c37.2-25.4 37.2-80.4 0-105.8z m-483.4 52c-11.8 0-21.4 9.6-21.4 21.4v107.4L161.4 805.2c-14.2 9.6-33.4-0.4-33.4-17.6V234.8c0-17.2 19.2-27.4 33.4-17.6l405.2 276.4c12.4 8.4 12.4 26.8 0 35.2L447.6 610v-78.4c0-11.8-9.6-21.4-21.4-21.4z" /></svg>