<?xml version="1.0" standalone="no"?><!DOCTYPE svg PUBLIC "-//W3C//DTD SVG 1.1//EN" "http://www.w3.org/Graphics/SVG/1.1/DTD/svg11.dtd"><svg class="icon" width="200px" height="200.00px" viewBox="0 0 1024 1024" version="1.1" xmlns="http://www.w3.org/2000/svg"><path d="M443.4 846.4c202.4 39.4 387.4-101.6 408-298-309.8 190.6-565.6-65.8-375.8-376C279.2 193 138 378 177.4 580.6c19 98.4 83.4 184.4 172.4 232.4 10.4 5.6 14.2 18.6 8.6 29-5.6 10.4-18.6 14.2-29 8.6-100-54-172.4-150.8-194-261.8C89.4 351.6 264 135.6 499.6 128c20.4-0.6 35 19.2 29.6 38.4l-2.8 6.2C329.2 462.4 562 695.6 851.2 497.8l6-2.8c19.2-5.6 39.2 9 38.6 29.4-7.6 235.6-223.4 410.2-460.6 364-11.6-2.2-19.2-13.4-16.8-25 2.2-11.6 13.4-19.2 25-17zM261 563.4c19.4 99.6 99.8 180.2 199.4 199.4 11.6 2.2 19.2 13.4 16.8 25-2.2 11.6-13.4 19.2-25 16.8-116.8-22.6-210.6-116.4-233.2-233.2-2.2-11.6 5.4-22.8 16.8-25 11.8-2 23 5.4 25.2 17z" /></svg>