<?xml version="1.0" standalone="no"?><!DOCTYPE svg PUBLIC "-//W3C//DTD SVG 1.1//EN" "http://www.w3.org/Graphics/SVG/1.1/DTD/svg11.dtd"><svg t="1700188941333" class="icon" viewBox="0 0 1024 1024" version="1.1" xmlns="http://www.w3.org/2000/svg" p-id="15483" xmlns:xlink="http://www.w3.org/1999/xlink" width="200" height="200"><path d="M541.343 259.937c58.71-0.998 94.402-51.527 94.392-91.934v-0.031c0.149-35.876-8.632-58.445-32.957-81.782a94.124 94.124 0 0 1 3.44 23.916c2.238 44.242-27.975 82.145-67.481 84.649-39.501 2.503-73.344-31.325-75.582-75.572a92.554 92.554 0 0 1 0-9.077 92.662 92.662 0 0 1 2.069-19.293c-21.643 23.143-28.688 43.654-28.596 77.159 8.592 56.822 45.978 90.957 104.69 91.96l0.025 0.005z" p-id="15484"></path><path d="M536.965 153.334c33.214-0.963 59.515-28.396 59.064-61.62 0-33.049-26.793-59.842-59.842-59.842-33.055 0-59.848 26.793-59.848 59.843-0.445 33.223 25.846 60.656 59.06 61.619h1.566zM146.714 411.796L47.908 792.673l167.101 66.704c-13.43-27.771-68.295-447.58-68.295-447.58z m-12.642 211.871c9.13 64.507 18.069 124.124 25.815 169.605L96.63 768.015l37.442-144.348z m229.376 263.71l364.027 124.99 10.706-163.916-374.733 38.927z m326.646 68.855l-137.728-47.294 141.778-14.725-4.05 62.019z" p-id="15485"></path><path d="M840.632 109.23l0.686-0.225L659.19 136.55a143.002 143.002 0 0 1 17.3 68.296c0 75.438-61.153 136.597-136.601 136.597-75.438 0-136.597-61.159-136.597-136.597a145.608 145.608 0 0 1 3.185-30.05l-223.79 34.376c8.197 216.735 105.175 647.701 105.175 647.701l698.465-122.255C937.841 684.534 840.632 109.23 840.632 109.23zM247.608 261.366l98.601-15.145c19.103 89.441 98.688 156.672 193.675 156.672 109.199 0 198.041-88.842 198.041-198.037a203.837 203.837 0 0 0-0.783-17.95l53.258-8.054c9.994 56.315 26.291 145.608 44.677 236.482 27.873 137.78 48.507 220.826 64.323 272.139l-563.994 98.713c-23.46-110.653-73.282-357.703-87.798-524.82z" p-id="15486"></path><path d="M325.427 481.219l297.098-59.295 8.873 53.488L333.85 535.62z m53.504 240.189l-10.706-53.15L733.4 600.534l11.387 52.695z m-27.888-93.235l-9.222-50.642 471.26-90.491 9.217 52.7z" p-id="15487"></path></svg>