<?xml version="1.0" standalone="no"?><!DOCTYPE svg PUBLIC "-//W3C//DTD SVG 1.1//EN" "http://www.w3.org/Graphics/SVG/1.1/DTD/svg11.dtd"><svg class="icon" width="200px" height="200.00px" viewBox="0 0 1024 1024" version="1.1" xmlns="http://www.w3.org/2000/svg"><path d="M573.6 899.6l-105.4-245.8c-4.6-10.8 0.4-23.4 11.2-28 10.8-4.6 23.4 0.4 28 11.2l105.4 246c7.8 18.4 34.2 17.2 40.6-1.6L894.8 156.6c5.6-17-10.6-33.2-27.6-27.6L142.8 370.6c-19 6.4-20 32.8-1.6 40.6L450 543.6 805.2 188.6c8.4-8.4 21.8-8.4 30.2 0 8.4 8.4 8.4 21.8 0 30.2L470 584c-6.6 6.6-16.4 8-24.4 4.2L124.4 450.4C70 427 73.2 348.8 129.4 330L853.8 88.8C904.2 72 952 120 935.2 170.2L693.8 894.6c-18.8 56.2-97 59.4-120.2 5z" /></svg>