<?xml version="1.0" standalone="no"?><!DOCTYPE svg PUBLIC "-//W3C//DTD SVG 1.1//EN" "http://www.w3.org/Graphics/SVG/1.1/DTD/svg11.dtd"><svg class="icon" width="200px" height="200.00px" viewBox="0 0 1024 1024" version="1.1" xmlns="http://www.w3.org/2000/svg"><path d="M597.4 235.6v20.6c0 11.8-9.6 21.4-21.4 21.4s-21.4-9.6-21.4-21.4v-20.6c0-35.8 29.2-64.8 64.8-64.8h40.8c35.8 0 64.8 29.2 64.8 64.8v553c0 35.8-29.2 64.8-64.8 64.8h-40.8c-35.8 0-64.8-29.2-64.8-64.8V341.4c0-11.8 9.6-21.4 21.4-21.4s21.4 9.6 21.4 21.4v447.2c0 12.2 10 22.2 22.2 22.2h40.8c12.2 0 22.2-10 22.2-22.2V235.6c0-12.2-10-22.2-22.2-22.2h-40.8c-12.2 0-22.2 10-22.2 22.2zM341.4 788.4c0 12.2 10 22.2 22.2 22.2 11.8 0 21.4 9.6 21.4 21.4s-9.6 21.4-21.4 21.4c-35.8 0-64.8-29.2-64.8-64.8V235.6c0-35.8 29.2-64.8 64.8-64.8h40.8c35.8 0 64.8 29.2 64.8 64.8v552.8c0 11.8-9.6 21.4-21.4 21.4s-21.4-9.6-21.4-21.4V235.6c0-12.2-10-22.2-22.2-22.2h-40.8c-12.2 0-22.2 10-22.2 22.2v552.8z" /></svg>