<?xml version="1.0" standalone="no"?><!DOCTYPE svg PUBLIC "-//W3C//DTD SVG 1.1//EN" "http://www.w3.org/Graphics/SVG/1.1/DTD/svg11.dtd"><svg class="icon" width="200px" height="200.00px" viewBox="0 0 1024 1024" version="1.1" xmlns="http://www.w3.org/2000/svg"><path d="M0 0h1024v1024H0z" fill="#FFFFFF" /><path d="M739.8 700.6c-11.6-2-22.6 5.8-24.6 17.4-2 11.6 5.8 22.6 17.4 24.6C834 760.4 896 790 896 810.4c0 14.6-36.4 37.4-102.8 54.8-73.6 19.4-174 30.6-281.2 30.6s-207.6-11.2-281.2-30.6C164.4 847.8 128 825 128 810.4c0-14.6 36.4-37.2 102.8-54.8 46.2-12.2 102.8-21 165.2-26 19.2 20.8 39 40.6 58.8 59.4 11.6 11 22.2 20.8 32 29.2 5.8 5.2 10 8.8 12.4 10.6l13.6 11.2 13.6-11.2c2.4-2 6.6-5.4 12.4-10.6 9.6-8.4 20.4-18.2 32-29 33-31.2 66-65.4 96.8-102 68-80.8 116-160.8 134.8-237 5.6-23 8.6-45.4 8.6-67 0-164.6-133.4-298-298-298s-298 133.4-298 298c0 23.8 3.6 48.2 10.4 73.4 20 73.8 67 151.6 133 230l2.6 3c-161.6 16.6-275.4 60-275.4 120.6 0 78.2 189.2 128 426.6 128s426.6-49.8 426.6-128c-0.2-51.8-76-88.2-199-109.6zM266.2 445.6c-5.8-21.8-8.8-42.6-8.8-62.4 0-141 114.4-255.2 255.4-255.2C653.6 128 768 242.2 768 383.2c0 18.2-2.4 37.2-7.4 56.8-17 68.6-61.8 143.6-126 219.6-29.6 35.2-61.6 68.4-93.4 98.4-10.2 9.6-19.8 18.4-28.6 26-8.6-7.6-18.2-16.4-28.6-26.2-10.8-10.2-21.6-20.8-32.4-31.8 19.8-0.8 39.8-1.2 60.2-1.2 11.8 0 21.4-9.6 21.4-21.4 0-11.8-9.6-21.4-21.4-21.4-34 0-67 1-98.6 3-7.6-8.6-15.2-17.4-22.8-26.2-62-73.6-106.2-146.4-124.2-213.2z"  /><path d="M598 383.6c0-47.2-38.2-85.4-85.4-85.4-11.8 0-21.4-9.6-21.4-21.4s9.6-21.4 21.4-21.4c70.6 0 128 57.4 128 128 0 70.8-57.2 128-128 128s-128-57.2-128-128c0-11.8 9.6-21.4 21.4-21.4 11.8 0 21.4 9.6 21.4 21.4 0 47.2 38.2 85.4 85.4 85.4s85.2-38 85.2-85.2z"  /></svg>