<?xml version="1.0" standalone="no"?><!DOCTYPE svg PUBLIC "-//W3C//DTD SVG 1.1//EN" "http://www.w3.org/Graphics/SVG/1.1/DTD/svg11.dtd"><svg class="icon" width="200px" height="177.78px" viewBox="0 0 1152 1024" version="1.1" xmlns="http://www.w3.org/2000/svg"><path d="M940.8 819.2H211.2c-19.2 0-38.4-12.8-44.8-38.4L64 211.2c0-19.2 6.4-38.4 19.2-44.8 19.2-6.4 38.4-6.4 51.2 6.4l224 179.2 179.2-268.8c19.2-25.6 57.6-25.6 76.8 0l179.2 268.8 224-179.2c12.8-12.8 32-12.8 51.2-6.4 12.8 6.4 19.2 25.6 19.2 44.8l-102.4 576c-6.4 19.2-25.6 32-44.8 32zM249.6 736h652.8l76.8-422.4L812.8 448c-12.8 6.4-19.2 12.8-32 12.8s-25.6-6.4-32-19.2L576 185.6l-172.8 256c-6.4 6.4-19.2 12.8-32 19.2-12.8 0-25.6 0-32-12.8L172.8 313.6l76.8 422.4z m-38.4 256c-25.6 0-44.8-19.2-44.8-44.8s19.2-44.8 44.8-44.8h723.2c25.6 0 44.8 19.2 44.8 44.8s-19.2 44.8-44.8 44.8H211.2zM940.8 998.4H211.2c-25.6 0-51.2-19.2-51.2-51.2s25.6-51.2 51.2-51.2h723.2c25.6 0 51.2 19.2 51.2 51.2s-19.2 51.2-44.8 51.2zM211.2 915.2c-19.2 0-38.4 19.2-38.4 38.4s19.2 38.4 38.4 38.4h723.2c19.2 0 38.4-19.2 38.4-38.4s-19.2-38.4-38.4-38.4H211.2z m729.6-89.6H211.2c-25.6 0-44.8-19.2-51.2-38.4l-102.4-576c0-19.2 6.4-38.4 25.6-51.2s38.4-6.4 57.6 6.4l217.6 179.2 179.2-262.4c6.4-19.2 19.2-25.6 38.4-25.6s32 6.4 44.8 19.2l179.2 262.4 217.6-179.2c19.2-12.8 38.4-12.8 57.6-6.4 12.8 19.2 19.2 38.4 19.2 57.6l-102.4 576c-6.4 25.6-25.6 38.4-51.2 38.4zM108.8 166.4c-6.4 0-12.8 0-19.2 6.4-12.8 6.4-19.2 19.2-19.2 38.4l102.4 576c0 19.2 19.2 32 38.4 32h723.2c19.2 0 32-12.8 38.4-32l102.4-576c0-12.8-6.4-32-19.2-38.4s-32-6.4-44.8 6.4l-224 185.6-179.2-281.6c-6.4-6.4-19.2-12.8-32-12.8s-25.6 6.4-32 12.8L358.4 364.8l-224-192c-6.4 0-19.2-6.4-25.6-6.4z m800 576H243.2v-6.4L166.4 294.4l179.2 147.2c6.4 6.4 19.2 12.8 25.6 12.8 12.8-6.4 25.6-6.4 25.6-19.2L576 172.8l179.2 262.4c6.4 12.8 12.8 12.8 25.6 19.2 12.8 0 19.2 0 32-6.4l179.2-147.2-83.2 441.6zM256 729.6h640l70.4-403.2-153.6 128c-12.8 6.4-25.6 12.8-38.4 12.8-12.8 0-25.6-12.8-38.4-19.2L576 198.4 409.6 441.6c-6.4 12.8-19.2 19.2-32 25.6-12.8 0-32 0-38.4-12.8l-153.6-128L256 729.6z" /></svg>