<?xml version="1.0" standalone="no"?><!DOCTYPE svg PUBLIC "-//W3C//DTD SVG 1.1//EN" "http://www.w3.org/Graphics/SVG/1.1/DTD/svg11.dtd"><svg class="icon" width="200px" height="200.00px" viewBox="0 0 1024 1024" version="1.1" xmlns="http://www.w3.org/2000/svg"><path d="M256 532.6v256.6c0 51.6 57.6 82 100.2 53l384.4-277.4c36.8-25.2 36.8-80.2-0.4-105.6L356.6 182.4c-43-29.4-100.6 1-100.6 52.6v20.2c0 11.8 9.6 21.4 21.4 21.4s21.4-9.6 21.4-21.4v-20.2c0-17.2 19.2-27.4 33.4-17.6L715.6 494c12.8 8.8 12.8 27.2 0.4 35.8L331.6 807.2c-13.8 9.4-33-0.8-33-18V532.6c0-11.8-9.6-21.4-21.4-21.4s-21.2 9.6-21.2 21.4z" /></svg>