<?xml version="1.0" standalone="no"?><!DOCTYPE svg PUBLIC "-//W3C//DTD SVG 1.1//EN" "http://www.w3.org/Graphics/SVG/1.1/DTD/svg11.dtd"><svg class="icon" width="200px" height="200.00px" viewBox="0 0 1024 1024" version="1.1" xmlns="http://www.w3.org/2000/svg"><path d="M716.4 453l-115 0.6c-11.8 0-21.4-9.4-21.4-21.2 0-11.8 9.4-21.4 21.2-21.4l135.4-0.6c22.4 0 37 23.8 26.8 43L538 925c-12.8 23.2-48 14-48-12.4V617.6H285.8c-22.4 0-36.8-23.6-26.8-43l226.2-476c12.8-23.2 48-14.2 48 12.4v320.6c0 11.8-9.6 21.4-21.4 21.4-11.8 0-21.4-9.6-21.4-21.4V186.6L306 575h184v-30c0-11.8 9.6-21.4 21.4-21.4s21.4 9.6 21.4 21.4V837.6l183.6-384.6zM297.2 593.6c0.2-0.2 0.2-0.4 0.4-0.8l-0.4 0.8z" /></svg>