<?xml version="1.0" standalone="no"?><!DOCTYPE svg PUBLIC "-//W3C//DTD SVG 1.1//EN" "http://www.w3.org/Graphics/SVG/1.1/DTD/svg11.dtd"><svg class="icon" width="200px" height="200.00px" viewBox="0 0 1024 1024" version="1.1" xmlns="http://www.w3.org/2000/svg"><path d="M704 810.6H320c-11.8 0-21.4-9.6-21.4-21.4V512h426.6v128H768v-128c0-23.6-19.2-42.6-42.6-42.6H298.6c-23.6 0-42.6 19.2-42.6 42.6v277.4c0 35.4 28.6 64 64 64h384c35.4 0 64-28.6 64-64v-106.6h-42.6v106.6c0 11.8-9.6 21.2-21.4 21.2zM510 640c-11.8 0-21.4 9.6-21.4 21.4 0 11.8 9.6 21.4 21.4 21.4h215.2V640H510zM874.6 298.6H768v-64c0-35.4-28.6-64-64-64H320c-35.4 0-64 28.6-64 64v64H149.4c-35.4 0-64 28.6-64 64v256c0 35.4 28.6 64 64 64H192c11.8 0 21.4-9.6 21.4-21.4 0-11.8-9.6-21.4-21.4-21.4H149.4c-11.8 0-21.4-9.6-21.4-21.4v-256c0-11.8 9.6-21.4 21.4-21.4H256v21.4c0 11.8 9.6 21.4 21.4 21.4 11.8 0 21.4-9.6 21.4-21.4v-21.4h576c11.8 0 21.4 9.6 21.4 21.4v256c0 11.8-9.6 21.4-21.4 21.4H768v42.6h106.6c35.4 0 64-28.6 64-64v-256c0-35-28.6-63.8-64-63.8z m-149.2 0H298.6v-64c0-11.8 9.6-21.4 21.4-21.4h384c11.8 0 21.4 9.6 21.4 21.4v64zM363.4 597.4h297.2c11.8 0 21.4-9.6 21.4-21.4 0-11.8-9.6-21.4-21.4-21.4H363.4c-11.8 0-21.4 9.6-21.4 21.4 0 11.8 9.6 21.4 21.4 21.4zM660.6 768H363.4c-11.8 0-21.4-9.6-21.4-21.4s9.6-21.4 21.4-21.4h297.2c11.8 0 21.4 9.6 21.4 21.4s-9.6 21.4-21.4 21.4z" /></svg>