<?xml version="1.0" standalone="no"?><!DOCTYPE svg PUBLIC "-//W3C//DTD SVG 1.1//EN" "http://www.w3.org/Graphics/SVG/1.1/DTD/svg11.dtd"><svg class="icon" width="200px" height="180.12px" viewBox="0 0 1137 1024" version="1.1" xmlns="http://www.w3.org/2000/svg"><path d="M910.222222 557.511111c-68.266667 0-130.844444-34.133333-170.666666-85.333333-39.822222 51.2-102.4 85.333333-170.666667 85.333333s-130.844444-34.133333-170.666667-85.333333c-45.511111 56.888889-119.466667 91.022222-187.733333 85.333333-73.955556-5.688889-130.844444-39.822222-170.666667-102.4C5.688889 398.222222 0 324.266667 28.444444 261.688889l79.644445-159.288889C136.533333 51.2 187.733333 17.066667 250.311111 17.066667h625.777778c56.888889 0 113.777778 34.133333 142.222222 85.333333l79.644445 159.288889c28.444444 62.577778 22.755556 136.533333-17.066667 193.422222-34.133333 56.888889-91.022222 91.022222-159.288889 96.711111 0 5.688889-5.688889 5.688889-11.377778 5.688889z m-176.355555-182.044444c28.444444 0 51.2 11.377778 68.266666 34.133333 28.444444 39.822222 68.266667 56.888889 113.777778 56.888889 34.133333-5.688889 68.266667-22.755556 85.333333-56.888889 22.755556-34.133333 22.755556-79.644444 5.688889-113.777778l-79.644444-159.288889c-11.377778-22.755556-34.133333-34.133333-56.888889-34.133333h-625.777778c-17.066667 0-39.822222 11.377778-51.2 34.133333L113.777778 295.822222c-17.066667 34.133333-11.377778 79.644444 11.377778 113.777778 17.066667 34.133333 51.2 51.2 85.333333 56.888889 45.511111 5.688889 91.022222-17.066667 113.777778-56.888889 28.444444-45.511111 102.4-45.511111 136.533333 0 22.755556 34.133333 62.577778 56.888889 102.4 56.888889s79.644444-22.755556 102.4-56.888889c17.066667-22.755556 39.822222-34.133333 68.266667-34.133333zM381.155556 460.8z m347.022222 0zM398.222222 460.8zM864.711111 1012.622222H261.688889c-85.333333 0-159.288889-73.955556-159.288889-159.288889V512c0-22.755556 22.755556-45.511111 45.511111-45.511111s45.511111 22.755556 45.511111 45.511111v341.333333c0 39.822222 28.444444 68.266667 68.266667 68.266667h603.022222c39.822222 0 68.266667-28.444444 68.266667-68.266667V523.377778c0-22.755556 22.755556-45.511111 45.511111-45.511111s45.511111 22.755556 45.511111 45.511111V853.333333c0 85.333333-73.955556 159.288889-159.288889 159.288889zM335.644444 807.822222c-22.755556 0-39.822222-22.755556-39.822222-45.511111s17.066667-45.511111 39.822222-45.511111h221.866667c22.755556 0 39.822222 22.755556 39.822222 45.511111s-17.066667 45.511111-39.822222 45.511111H335.644444z" /></svg>