<?xml version="1.0" standalone="no"?><!DOCTYPE svg PUBLIC "-//W3C//DTD SVG 1.1//EN" "http://www.w3.org/Graphics/SVG/1.1/DTD/svg11.dtd"><svg class="icon" width="200px" height="200.00px" viewBox="0 0 1024 1024" version="1.1" xmlns="http://www.w3.org/2000/svg"><path d="M533.2 603.4V391.6l280.4-75.2c11.4-3 18.2-14.8 15-26.2-3-11.4-14.8-18.2-26.2-15l-269.4 72.2v-109.2c0-9.6 6.4-18.2 15.8-20.6l331.8-88.8c10.2-2.8 15.8 1.4 15.8 10.6v627.6c0 13.8-12.6 29.6-26.8 33.4l-352.6 94.4c-4.8 1.4-6 1.4-10.2 0.2l-352-94.4c-14.4-3.8-26.8-19.8-26.8-33.4V139.4c0-9.2 5.6-13.4 15.8-10.6l275.6 74c11.4 3 23-3.6 26.2-15 3-11.4-3.6-23-15-26.2l-275.6-74c-36.8-9.8-69.6 14-69.6 51.8v627.6c0 33.4 25.8 66 58.4 74.8l351.8 94.4c11.4 3.2 20.6 3.4 32.8 0l352.4-94.4c32.8-8.8 58.4-41.4 58.4-74.8V139.4c0-37.8-32.6-61.8-69.6-51.8L538 176.4c-28 7.4-47.4 32.8-47.4 61.8v120.6l-27.8 7.4c-11.4 3-18.2 14.8-15 26.2 3 11.4 14.8 18.2 26.2 15l16.8-4.4v211.8l-27.8 7.4c-11.4 3-18.2 14.8-15 26.2 3 11.4 14.8 18.2 26.2 15l16.8-4.4v171.4c0 11.8 9.6 21.4 21.4 21.4 11.8 0 21.4-9.6 21.4-21.4v-182.8l280.4-75.2c11.4-3 18.2-14.8 15-26.2-3-11.4-14.8-18.2-26.2-15l-269.8 72.2zM604.2 499.6l211.2-55.2c11.4-3 18.2-14.6 15.2-26s-14.6-18.2-26-15.2l-211.2 55.2c-11.4 3-18.2 14.6-15.2 26s14.6 18.2 26 15.2zM665 740.2l-61.8 16.6c-11.4 3-23-3.8-26.2-15-3-11.4 3.8-23 15-26.2l61.8-16.6c11.4-3 23 3.8 26.2 15 3.2 11.4-3.6 23.2-15 26.2z" /></svg>