<?xml version="1.0" standalone="no"?><!DOCTYPE svg PUBLIC "-//W3C//DTD SVG 1.1//EN" "http://www.w3.org/Graphics/SVG/1.1/DTD/svg11.dtd"><svg t="1700184790529" class="icon" viewBox="0 0 1077 1024" version="1.1" xmlns="http://www.w3.org/2000/svg" p-id="7853" xmlns:xlink="http://www.w3.org/1999/xlink" width="210.3515625" height="200"><path d="M99.220211 812.894316c95.070316 23.552 178.283789 15.683368 297.175578 15.683368l-95.285894 191.541895L71.356632 1024l-51.523369-7.814737H0v-15.629474zM1014.298947 62.733474v179.523368c0 11.749053-3.988211 15.683368-15.898947 15.683369h-114.903579v570.583578H1077.894737v191.541895H400.437895c7.922526-31.258947 83.159579-191.541895 106.927158-191.541895h182.056421V257.940211h-134.736842V62.733474h459.614315zM229.807158 0l198.170947 3.934316L336.842105 179.792842c-7.868632 11.695158-39.666526 70.332632-39.666526 78.147369v11.425684c0 7.868632 3.988211 15.629474 11.910737 15.629473 15.845053 0 15.845053-11.641263 19.833263-27.324631h194.398316l-31.797895 78.470737-71.464421 125.035789v15.413895c-11.910737 15.629474-55.511579 93.776842-55.511579 113.340631 0 3.988211 7.922526 11.749053 7.922526 15.683369h107.412211l-79.440842 152.414316c-27.701895 15.629474-118.784 7.814737-162.438737 7.814737h-16.006737c-52.547368-0.431158-95.124211-4.958316-95.12421-54.703158v-23.174737c0-7.868632 31.636211-93.830737 35.624421-101.699369l7.922526-19.509894 67.368421-121.155369-134.736842-3.880421c-19.779368-15.629474-43.546947-19.563789-43.546948-54.757052v-15.683369c0-34.492632 33.306947-100.082526 70.602106-168.313263l17.354105-31.582316C185.182316 103.046737 222.423579 36.432842 229.861053 0z" p-id="7854"></path></svg>