<?xml version="1.0" standalone="no"?><!DOCTYPE svg PUBLIC "-//W3C//DTD SVG 1.1//EN" "http://www.w3.org/Graphics/SVG/1.1/DTD/svg11.dtd"><svg class="icon" width="200px" height="200.00px" viewBox="0 0 1024 1024" version="1.1" xmlns="http://www.w3.org/2000/svg"><path d="M627.4 222.8l-185.2-126.2c-42.4-29-100 1.4-100 52.8v111c-134.4 18.6-220.4 81.4-248 174.4-29.4 99 16 215.2 109.6 286.6 9.4 7.2 22.8 5.4 30-4 7.2-9.4 5.4-22.8-4-30-80.2-61.2-118.6-159.4-94.4-240.6 22-74.2 92-126.4 207.2-143.6V402c0 51.4 57.6 81.8 100 52.8l185.2-126.2c36.8-25.4 36.8-80.4-0.4-105.8z m-24 70.6l-185.2 126.2c-14.2 9.6-33.4-0.4-33.4-17.6v-103c14.4-1 29.4-1.4 45-1.4 11.8 0 21.4-9.6 21.4-21.4 0-11.8-9.6-21.4-21.4-21.4-15.6 0-30.6 0.4-45 1.4V149.4c0-17.2 19.2-27.2 33.4-17.6l185.2 126.2c12.4 8.6 12.4 26.8 0 35.4zM823 298.4c-9.4-7.2-22.8-5.4-30 4-7.2 9.4-5.4 22.8 4 30 80.2 61.2 118.6 159.4 94.4 240.6-22 74.2-92 126.4-207 143.6V618c0-51.4-57.6-81.8-100-52.8l-185.2 126.2c-37.2 25.4-37.2 80.4 0 105.8l185.2 126.2c42.4 29 100-1.4 100-52.8v-111c134.4-18.6 220.4-81.4 248-174.4 29.4-99.2-16-215.4-109.4-286.8z m-181.2 422.6c-14.4 1-29.4 1.4-45.2 1.4-11.8 0-21.4 9.6-21.4 21.4s9.6 21.4 21.4 21.4c15.6 0 30.6-0.4 45.2-1.4v106.8c0 17.2-19.2 27.2-33.4 17.6L423.2 762c-12.4-8.4-12.4-26.8 0-35.2l185.2-126.2c14.2-9.6 33.4 0.4 33.4 17.6v102.8z" /></svg>