<?xml version="1.0" standalone="no"?><!DOCTYPE svg PUBLIC "-//W3C//DTD SVG 1.1//EN" "http://www.w3.org/Graphics/SVG/1.1/DTD/svg11.dtd"><svg class="icon" width="200px" height="200.00px" viewBox="0 0 1024 1024" version="1.1" xmlns="http://www.w3.org/2000/svg"><path d="M782.8 280.4c-8.4-8.4-21.8-8.4-30.2 0-8.4 8.4-8.4 21.8 0 30.2 133.2 133.4 133.2 349.4 0 482.8-133.2 133.4-349.4 133.4-482.8 0-121.8-122-133.4-315-28.8-450 2.6-3 6.6-7.6 11-12.6l75.6 75.6c37.2 37.2 101 16 108.6-36l31-211.6c6.2-42.4-30.2-78.8-72.6-72.6L182.8 117c-52 7.6-73.2 71.4-36 108.6l75 75c-5.4 6.2-10.4 11.8-14 16-118.2 152.6-105.2 369.8 31.8 506.8 150 150 393.2 150 543 0 150-149.8 150-393 0.2-543zM177 195.4c-12.4-12.4-5.4-33.6 12-36.2l211.8-31c14-2 26.2 10 24.2 24.2L394 364c-2.6 17.4-23.8 24.4-36.2 12l-76-76 34-32c8.6-8 9-21.6 1-30.2-8-8.6-21.6-9-30.2-1L251.6 270 177 195.4z" /></svg>