<?xml version="1.0" standalone="no"?><!DOCTYPE svg PUBLIC "-//W3C//DTD SVG 1.1//EN" "http://www.w3.org/Graphics/SVG/1.1/DTD/svg11.dtd"><svg class="icon" width="200px" height="200.00px" viewBox="0 0 1024 1024" version="1.1" xmlns="http://www.w3.org/2000/svg"><path d="M920 272.4l-167.4-168.2c-12-12-28.4-18.8-45.4-18.8h-558c-35.4 0-64 28.6-64 64v725.4c0 35.4 28.6 64 64 64h725.4c35.4 0 64-28.6 64-64V317.6c0-17-6.6-33.2-18.6-45.2z m-24 602.2c0 11.8-9.6 21.4-21.4 21.4H149.4c-11.8 0-21.4-9.6-21.4-21.4V149.4C128 137.6 137.6 128 149.4 128h128v212.2c0 24.2 19.6 43.8 43.8 43.8h381.8c24.2 0 43.8-19.6 43.8-43.8v-101.2c0-11.8-9.6-21.4-21.4-21.4-11.8 0-21.4 9.6-21.4 21.4v101.2c0 0.6-0.6 1.2-1.2 1.2H321.2c-0.6 0-1.2-0.6-1.2-1.2V128h387.4c5.6 0 11.2 2.2 15.2 6.2l167.4 168.2c4 4 6.2 9.4 6.2 15v557.2zM597.4 640.4c0-47.2-38.2-85.4-85.4-85.4-11.8 0-21.4-9.6-21.4-21.4 0-11.8 9.6-21.4 21.4-21.4 70.6 0 128 57.4 128 128 0 70.8-57.2 128-128 128s-128-57.2-128-128c0-11.8 9.6-21.4 21.4-21.4 11.8 0 21.4 9.6 21.4 21.4 0 47.2 38.2 85.4 85.4 85.4 47 0.2 85.2-38 85.2-85.2z" /></svg>