<?xml version="1.0" standalone="no"?><!DOCTYPE svg PUBLIC "-//W3C//DTD SVG 1.1//EN" "http://www.w3.org/Graphics/SVG/1.1/DTD/svg11.dtd"><svg class="icon" width="200px" height="200.00px" viewBox="0 0 1024 1024" version="1.1" xmlns="http://www.w3.org/2000/svg"><path d="M918.8 826.2L710 617.2c36.6-54.4 58-120 58-190.6 0-188.6-152.8-341.4-341.4-341.4C238 85.2 85.2 238 85.2 426.6 85.2 615.2 238 768 426.6 768c102.6 0 194.4-45.2 257-116.6l205 205c8.8 8.8 8.8 23.2 0 32-4.4 4.4-10 6.6-16 6.6s-11.8-2.4-16-6.6l-159.8-159.8c-8.4-8.4-21.8-8.4-30.2 0-8.4 8.4-8.4 21.8 0 30.2l159.8 159.8c12.4 12.4 29 19.2 46.2 19.2 17.2 0 33.8-6.8 46.2-19.2 25.6-25.6 25.6-66.8 0-92.4zM679 586.4l-43.4-43.4c-8.4-8.4-21.8-8.4-30.2 0-8.4 8.4-8.4 21.8 0 30.2l47.8 47.8c-54.8 63.8-136 104.2-226.8 104.2-164.8 0.2-298.4-133.6-298.4-298.6C128 261.8 261.8 128 426.6 128c165 0 298.6 133.8 298.6 298.6 0.2 58.8-16.8 113.6-46.2 159.8zM542.4 606c-34.2 22.2-74 34-115.8 34-117.8 0-213.4-95.6-213.4-213.4 0-11.8-9.6-21.4-21.4-21.4-11.8 0-21.4 9.6-21.4 21.4 0 141.4 114.6 256 256 256 50 0 97.8-14.4 139-41 9.8-6.4 12.8-19.6 6.4-29.6-6.4-9.6-19.6-12.4-29.4-6z" /></svg>