<?xml version="1.0" standalone="no"?><!DOCTYPE svg PUBLIC "-//W3C//DTD SVG 1.1//EN" "http://www.w3.org/Graphics/SVG/1.1/DTD/svg11.dtd"><svg class="icon" width="200px" height="200.00px" viewBox="0 0 1024 1024" version="1.1" xmlns="http://www.w3.org/2000/svg"><path d="M932.4 817L718.8 603.4c41.2-67.8 59.2-151 43.6-239-23.6-133.4-129-242-262-271-72-15.6-143.6-8.2-208.6 20-19.4 8.4-24 33.8-9.4 48.8l195.2 195.2-25.4 95.4-95.4 25L162 283c-14.8-14.8-40.4-10.4-48.8 9.2-28 65-35.6 136.4-20 208.4 28.8 133 137.6 238.2 271 261.8 133 23.6 255.4-30 329.8-123.6l208.2 208.2c8.4 8.4 21.8 8.4 30.2 0 8.4-8.2 8.4-21.8 0-30zM687.6 572l-32.6-32.6c-8.4-8.4-21.8-8.4-30.2 0-8.4 8.4-8.4 21.8 0 30.2l38.8 38.8c-64.8 84.2-173.4 133-291.8 112-116.4-20.6-211.4-112.8-236.8-229-12.4-56.8-8.4-112.8 10.4-165l186.6 186.6c8.4 8.6 21.6 11.2 32.8 6.4l106.8-28c10-4 15.6-9.6 18.6-16.8l30-112.6c3.8-8.4 1.2-21.4-7.4-30l-186.6-186.6c52.2-18.8 108.2-22.8 165-10.4 116 25.2 208.2 120.4 229 236.8 13.2 73.2-0.4 142.6-32.6 200.2zM818.4 934l-172.2-172.2c-8.4-8.4-8.4-21.8 0-30.2 8.4-8.4 21.8-8.4 30.2 0l172.2 172.2c8.4 8.4 8.4 21.8 0 30.2-8.4 8.2-21.8 8.2-30.2 0z" /></svg>