<?xml version="1.0" standalone="no"?><!DOCTYPE svg PUBLIC "-//W3C//DTD SVG 1.1//EN" "http://www.w3.org/Graphics/SVG/1.1/DTD/svg11.dtd"><svg class="icon" width="200px" height="200.00px" viewBox="0 0 1024 1024" version="1.1" xmlns="http://www.w3.org/2000/svg"><path d="M642.2 232.4C653.4 172.4 706 128 768 128c70.8 0 128 57.2 128 128 0 70.6-57.4 128-128 128-19.2 0-37.8-4.2-54.8-12.2-10.6-5-23.4-0.4-28.4 10.2s-0.4 23.4 10.2 28.4c22.6 10.8 47.4 16.4 73 16.4 94.2 0 170.6-76.4 170.6-170.6 0-94.2-76.4-170.6-170.6-170.6-82.6 0-152.8 59-167.8 139.4-2.2 11.6 5.4 22.8 17 24.8s22.8-5.8 25-17.4zM787 246.4c-5.2-10.6-18-14.8-28.6-9.6L398 417.2c-30.6-45.8-82.8-75.8-142-75.8-94.2 0-170.6 76.4-170.6 170.6s76.4 170.6 170.6 170.6c94.2 0 170.6-76.4 170.6-170.6 0-19.8-3.4-39-9.6-56.6l360.6-180.2c10.4-5.4 14.8-18.2 9.4-28.8zM256 640c-70.6 0-128-57.4-128-128s57.4-128 128-128c42.4 0 80 20.6 103.4 52.4l-112.8 56.4c-10.6 5.2-14.8 18-9.6 28.6 5.2 10.6 18 14.8 28.6 9.6l113-56.4c3.6 11.8 5.6 24.4 5.6 37.4-0.2 70.6-57.6 128-128.2 128zM768 640c-21.8 0-42.8 5.4-61.6 15.8-10.4 5.6-23.2 1.8-29-8.4-5.6-10.4-1.8-23.2 8.4-29 25-13.6 53-21 82-21 94.2 0 170.6 76.4 170.6 170.6s-76.4 170.6-170.6 170.6c-94.2 0-170.6-76.4-170.6-170.6 0-19.6 3.2-38.6 9.6-56.6l-148.6-74.2c-10.6-5.2-14.8-18-9.6-28.6 5.2-10.6 18-14.8 28.6-9.6l300 150c10.6 5.2 14.8 18 9.6 28.6-5.2 10.6-18 14.8-28.6 9.6l-113-56.4c-3.6 12-5.6 24.4-5.6 37.4 0 70.6 57.4 128 128 128s128-57.4 128-128S838.6 640 768 640z" /></svg>