<?xml version="1.0" standalone="no"?><!DOCTYPE svg PUBLIC "-//W3C//DTD SVG 1.1//EN" "http://www.w3.org/Graphics/SVG/1.1/DTD/svg11.dtd"><svg class="icon" width="200px" height="200.00px" viewBox="0 0 1024 1024" version="1.1" xmlns="http://www.w3.org/2000/svg"><path d="M370.4 246C402 199.2 454.6 170.6 512 170.6c94.2 0 170.6 76.4 170.6 170.6v105.6c0 11.8 9.6 21.4 21.4 21.4s21.4-9.6 21.4-21.4V432c12.8 7.4 21.4 21.2 21.4 37 0 23.6-19.2 42.6-42.6 42.6-23.6 0-42.6-19.2-42.6-42.6 0-11.8-9.6-21.4-21.4-21.4s-21.4 9.6-21.4 21.4c0 47.2 38.2 85.4 85.4 85.4s85.4-38.2 85.4-85.4c0-39.8-27.2-73.2-64.2-82.6v-45h149.4c11.8 0 21.4 9.6 21.4 21.4V832c0 11.8-9.6 21.4-21.4 21.4H149.4c-11.8 0-21.4-9.6-21.4-21.4V362.6c0-11.8 9.6-21.4 21.4-21.4h149.4V448c0 11.8 9.6 21.4 21.4 21.4s21.4-9.6 21.4-21.4v-16c12.8 7.4 21.4 21.2 21.4 37 0 23.6-19.2 42.6-42.6 42.6-23.6 0-42.6-19.2-42.6-42.6 0-11.8-9.6-21.4-21.4-21.4-11.8 0-21.4 9.6-21.4 21.4 0 47.2 38.2 85.4 85.4 85.4s85.4-38.2 85.4-85.4c0-39.8-27.2-73.2-64-82.6v-45h275.8c11.8 0 21.4-9.6 21.4-21.4s-9.6-21.4-21.4-21.4H149.4c-35.4 0-64 28.6-64 64V832c0 35.4 28.6 64 64 64h725.4c35.4 0 64-28.6 64-64V362.6c0-35.4-28.6-64-64-64h-153.6c-20-97.4-106-170.6-209.2-170.6-71.8 0-137.4 35.8-176.8 94-6.6 9.8-4 23 5.8 29.6 9.6 6.6 22.8 4.2 29.4-5.6z" /></svg>