<?xml version="1.0" standalone="no"?><!DOCTYPE svg PUBLIC "-//W3C//DTD SVG 1.1//EN" "http://www.w3.org/Graphics/SVG/1.1/DTD/svg11.dtd"><svg t="1700187753865" class="icon" viewBox="0 0 1024 1024" version="1.1" xmlns="http://www.w3.org/2000/svg" p-id="11896" xmlns:xlink="http://www.w3.org/1999/xlink" width="200" height="200"><path d="M358.5 460.9c-28.3 0-51.2 22.9-51.2 51.1 0 28.3 22.9 51.2 51.2 51.2 28.3 0 51.2-22.9 51.2-51.2 0-28.2-22.9-51.1-51.2-51.1z" p-id="11897"></path><path d="M965.7 276.7c-2.6-0.9-6.1-1.8-9.5-1.8-9.5 0-18.2 5.3-21.7 15.1-5.2 12.5 0 26.7 12.1 32.1 18.2 8 29.5 27.6 29.5 51.7s-10.4 43.7-31.2 57.9c-8.7 6.2-18.2 10.7-25.2 13.4-1.7-3.6-2.6-7.1-4.3-10.7-19.1-47.2-47.7-85.5-85.8-115.8-21.7-17.3-44.2-32.4-67.6-45.2-55.1-30.2-115.2-48-181.5-54-17.1-1.6-34.7-2.4-52.7-2.4-40.7 0-80.6 4.5-119.6 12.5-33.8-65.1-87.6-106-163-125.6-1.7-0.9-3.5-0.9-6.1-0.9-6.9 0-13 2.7-17.3 8-6.1 7.1-7.8 16-4.3 24.9 22.5 62.4 32.9 98 34.7 141.7-43.3 18.7-78 46.3-104.9 82.9-26 36.5-38.6 73.6-43.9 101.5-0.9 4.7-5 8.1-9.8 8.1H59.7C26.9 470 0 497.6 0 531.5v111.4c0 33.9 26.9 61.5 59.8 61.5h36.4c7.8 0 9.5 1.8 14.7 12.5 26.9 57.9 69.3 103.4 121.4 132.8h0.1c2 1 2.9 3.4 2.2 5.5l-10.9 30.1c-6.1 16-5.2 33 1.7 48.1 6.9 15.2 19.1 27.6 34.7 33.9l71.1 27.6c3.3 1.3 11.3 3.6 19.1 3.6 25.1 0 48.5-16 58.1-41 1.3-2.6 9.6-25.5 14.2-37.8 1.8-4.7 6.5-7.6 11.5-7 2.9 0.3 6.1 0.7 9.8 1.2 17.3 1.8 44.2 4.5 84.1 4.5 44.2 0 71.1-6.2 89.3-9.8 4.3-0.9 11.5 0.1 13.4 5.3 7.8 21.4 16.1 42.8 16.1 43.7 8.7 24.1 32.1 41 58.1 41 7.8 0 14.7-1.8 21.7-4.4l71.1-27.6c15.6-6.2 27.7-17.8 34.7-33.9 6.9-15.1 6.9-33 1.7-49 0-0.9-12.4-30.2-19.3-51.6-2.2-6.9 5.4-11.7 5.4-11.7 44.2-35.6 117.9-112.3 122.2-218.3 1.7-39.2-1.7-75.8-8.7-110.5 10.4-3.6 23.4-9.8 37.3-19.6 34.7-24.1 52.9-58.8 52.9-98.9-0.1-43-22.6-81.3-58.2-96.4z m-73.3 323v0.2c-1.5 37.4-14.3 74.4-37.9 109.9-21.2 32-46.4 55.7-64.3 70.3-21.6 15.5-31.1 42.5-23.1 67.2 5.2 16.1 18.9 50.5 19.4 51.7 1.7 5.4 1.4 10.2 0.3 12.6l-0.2 0.5-0.2 0.5c-1.6 3.6-3.7 5.8-7.2 7.2 0 0-74 28.6-74.3 28.6-4.6 0-9.2-3.3-10.9-7.6-1.4-4.3-12.9-34.9-16.2-44.1l-0.1-0.3c-8.6-23.2-31.1-38.2-57.2-38.2-4.3 0-8.7 0.4-12.8 1.3-1.6 0.3-44.2 8.8-79.6 8.8-36.6 0-92.8-5.9-101.6-6.2-0.5 0-0.9-0.1-1.4-0.1l-10.9-1.6c-12.6-1.9-24.7 5.3-29.2 17.2l-23.2 62.1c-2 5.1-6.5 8.7-11.1 8.9-0.5-0.1-1.3-0.2-1.9-0.4L278.7 921c-3.1-1.3-5.8-4.3-7.7-8.2-2-4.3-1.2-7.5-0.4-9.6l0.3-0.7 10.9-30.1c9.1-25.2-1.7-53.5-25-66.3-43.6-24.8-78.3-62.8-100.2-110l-0.2-0.4-0.4-0.7c-4.3-8.8-9.2-18-18.6-26.2-16.7-14.4-35-14.4-41.1-14.4H59.9c-5.3 0-9.8-5.3-9.8-11.5V531.5c0-6.2 4.5-11.5 9.8-11.5h33.9c28.7 0 53.5-20.5 58.9-48.7 3.1-16.3 11.9-48.6 35.3-81.6 21.8-29.6 49.4-51.3 84.2-66.3l31.5-13.6-1.4-34.3c-1.4-35.8-7.8-66.5-19.9-105 35.9 18.2 62.4 45 81.6 82l17.4 33.5 37-7.6c37-7.6 73.8-11.5 109.5-11.5 16.4 0 32.5 0.7 48.1 2.1 59.9 5.5 112.9 21.2 162 48.1 20.8 11.4 41.1 25 60.4 40.4l0.1 0.1c31.7 25.2 54.8 56.4 70.6 95.4l0.6 1.6 0.5 1c0.2 0.4 0.3 0.8 0.4 1.2 0.9 2.4 2.2 6 4.2 10l5.1 10.5 4.8 23.9c6.6 33.4 9.1 65.6 7.7 98.5z" p-id="11898"></path><path d="M691.5 75.3c57.4 0 104.2 46.7 104.2 104.2 0 18.3-4.8 36.4-13.9 52.1-8.9 15.3-21.6 28.2-36.8 37.4l25.7 42.9c45-26.9 75-76.1 75-132.3 0-85.1-69-154.2-154.2-154.2-85.1 0-154.2 69-154.2 154.2 0 25.3 6.1 49.1 16.9 70.2l44.5-22.8c-7.5-14.7-11.4-30.7-11.4-47.4 0.1-57.6 46.8-104.3 104.2-104.3" p-id="11899"></path></svg>