<?xml version="1.0" standalone="no"?><!DOCTYPE svg PUBLIC "-//W3C//DTD SVG 1.1//EN" "http://www.w3.org/Graphics/SVG/1.1/DTD/svg11.dtd"><svg class="icon" width="200px" height="200.00px" viewBox="0 0 1024 1024" version="1.1" xmlns="http://www.w3.org/2000/svg"><path d="M911 693.6l-185.2-126.2c-42.4-29-100 1.4-100 52.8V724c-67.2-8-108.4-59.8-170.4-188l-4.2-8.6c-2.4-5-5.4-11.2-8-16.4 2.6-5.6 5.8-12 8.2-17.2 2-4 3.4-7.2 4-8.2 61.8-127.4 102.6-179.2 169.4-187.6v104c0 51.4 57.6 81.8 100 52.8l185.2-126.4c37.2-25.4 37.2-80.4 0-105.8l-185.2-126.2c-42.4-29-100 1.4-100 52.8v105.6c-89 7.8-138.2 68.4-207.8 212-0.6 1-2 4.2-4 8.2-4.2 8.6-10.4 21.4-12.8 26.4-78.6 161.8-137.4 223.4-252.2 223.4H106.6c-11.8 0-21.4 9.6-21.4 21.4s9.6 21.4 21.4 21.4h41.6c126 0 194.4-61.4 271-208.6 68.6 141 118 200.4 206.6 207.8v105.8c0 51.4 57.6 81.8 100 52.8l185.2-126.2c37.2-25.2 37.2-80.2 0-105.6zM667.6 296.8h35.2c11.8 0 21.4-9.6 21.4-21.4s-9.6-21.4-21.4-21.4h-35.2V149.4c0-17.2 19.2-27.2 33.4-17.6l185.2 126.4c12.4 8.4 12.4 26.8 0 35.2l-185.2 126.2c-14.2 9.6-33.4-0.4-33.4-17.6v-105.2z m219.4 467.4l-185.2 126.4c-14.2 9.6-33.4-0.4-33.4-17.6V768h34.4c11.8 0 21.4-9.6 21.4-21.4 0-11.8-9.6-21.4-21.4-21.4h-34.4v-104.8c0-17.2 19.2-27.2 33.4-17.6l185.2 126.2c12.4 8.4 12.4 26.8 0 35.2zM148.2 254.2c107.8 0 180.8 53.8 243.2 157.6 6 10.2 2.8 23.2-7.4 29.2s-23.2 2.8-29.2-7.4c-55.4-92.2-116.2-137-206.6-137H106.6c-11.8 0-21.4-9.6-21.4-21.4 0-11.8 9.6-21.4 21.4-21.4h41.6z" /></svg>