<?xml version="1.0" standalone="no"?><!DOCTYPE svg PUBLIC "-//W3C//DTD SVG 1.1//EN" "http://www.w3.org/Graphics/SVG/1.1/DTD/svg11.dtd"><svg class="icon" width="200px" height="200.00px" viewBox="0 0 1024 1024" version="1.1" xmlns="http://www.w3.org/2000/svg"><path d="M885.6 364l-153-172c-12.2-13.6-29.6-21.4-47.8-21.4H512V149.4c0-35.4-28.6-64-64-64s-64 28.6-64 64v21H192c-35.4 0-64 28.6-64 64v298.6c0 35.4 28.6 64 64 64h192V874c0 35.4 28.6 64 64 64s64-28.6 64-64V662c0-11.8-9.6-21.4-21.4-21.4-11.8 0-21.4 9.6-21.4 21.4v212.2c0 11.8-9.6 21.4-21.4 21.4-11.8 0-21.4-9.6-21.4-21.4V597h258.2c18.4 0 35.8-7.8 47.8-21.6l152.8-172c10.4-11.2 10.4-28.2 0.4-39.4zM426.6 149.4c0-11.8 9.6-21.4 21.4-21.4 11.8 0 21.4 9.6 21.4 21.4v21h-42.6V149.4z m274.2 397.8c-4 4.6-9.8 7.2-16 7.2H426.6v-21c0-11.8-9.6-21.4-21.4-21.4s-21.4 9.6-21.4 21.4v21H192c-11.8 0-21.4-9.6-21.4-21.4V234.4c0-11.8 9.6-21.4 21.4-21.4h492.8c6.2 0 12 2.6 16 7.2l145.4 163.6-145.4 163.4z" /></svg>