<?xml version="1.0" standalone="no"?><!DOCTYPE svg PUBLIC "-//W3C//DTD SVG 1.1//EN" "http://www.w3.org/Graphics/SVG/1.1/DTD/svg11.dtd"><svg class="icon" width="200px" height="200.00px" viewBox="0 0 1024 1024" version="1.1" xmlns="http://www.w3.org/2000/svg"><path d="M484.2 104.4l-95 278.8h-274c-29 0-41 37.2-17.4 54.2l224.8 160.2c9.6 6.8 23 4.6 29.8-5 6.8-9.6 4.6-23-5-29.8L155.2 426h240.2c14.6 0 27.6-9.4 32.2-23.2l83.2-244.6 57.2 168c3.8 11.2 16 17.2 27 13.4 11.2-3.8 17.2-16 13.4-27l-70.6-208c-8.8-25.6-44.8-25.6-53.6-0.2zM259.8 930.4c-24.6 23-54.8-6.2-45.6-33l82.6-242.2c3.8-11.2 16-17.2 27-13.4 11.2 3.8 17.2 16 13.4 27l-68 199.6L492.2 690c10.8-10 27-10 36.4-1l224.4 179.6L662 601.6c-5-14.4 0.2-30.2 12.6-38.8l192.2-136.8H617.8c-11.8 0-21.4-9.6-21.4-21.4 0-11.8 9.6-21.4 21.4-21.4h289.2c29 0 41 37.4 17.4 54.2l-219.6 156.4L808 897.4c9 26.8-21 55.8-44.4 34l-252.4-202-251.4 201zM231.8 898.2l2.2-1.8c-0.6 0.4-1.4 1-2.2 1.8zM791.4 899.2c-0.8-0.8-1.6-1.4-2.4-2l2.4 2z" /></svg>