<?xml version="1.0" standalone="no"?><!DOCTYPE svg PUBLIC "-//W3C//DTD SVG 1.1//EN" "http://www.w3.org/Graphics/SVG/1.1/DTD/svg11.dtd"><svg class="icon" width="200px" height="200.00px" viewBox="0 0 1024 1024" version="1.1" xmlns="http://www.w3.org/2000/svg"><path d="M384 256c-42 0-82.4 10-118.6 29-10.4 5.4-23.4 1.4-28.8-9-5.4-10.4-1.4-23.4 9-28.8 42.4-22.2 89.6-34 138.4-34h256c165 0 298.6 133.8 298.6 298.6S805 810.6 640 810.6H384c-165 0-298.6-133.8-298.6-298.6 0-69.4 23.8-135.4 66.6-188 7.4-9.2 20.8-10.6 30-3.2 9.2 7.4 10.6 20.8 3.2 30C148.4 396 128 452.4 128 512c0 141.4 114.6 256 256 256h256c141.4 0 256-114.6 256-256s-114.6-256-256-256H384zM384 298.6c-117.8 0-213.4 95.6-213.4 213.4S266.2 725.4 384 725.4 597.4 629.8 597.4 512 501.8 298.6 384 298.6z m0 384c-94.2 0-170.6-76.4-170.6-170.6s76.4-170.6 170.6-170.6 170.6 76.4 170.6 170.6-76.4 170.6-170.6 170.6z" /></svg>