<?xml version="1.0" standalone="no"?><!DOCTYPE svg PUBLIC "-//W3C//DTD SVG 1.1//EN" "http://www.w3.org/Graphics/SVG/1.1/DTD/svg11.dtd"><svg class="icon" width="200px" height="200.00px" viewBox="0 0 1024 1024" version="1.1" xmlns="http://www.w3.org/2000/svg"><path d="M810.6 256.2V149.4c0-11.8-9.6-21.4-21.4-21.4-11.8 0-21.4 9.6-21.4 21.4v119.4l-90.4 90.4c-44.6-37.8-102.4-60.6-165.4-60.6-141.4 0-256 114.6-256 256 0 50.4 14.6 98.6 41.6 140 6.4 9.8 19.6 12.6 29.6 6.2 9.8-6.4 12.6-19.6 6.2-29.6-22.4-34.4-34.6-74.6-34.6-116.6 0-117.8 95.6-213.4 213.4-213.4 51.2 0 98.4 18.2 135.2 48.2l-72.8 72.8c-0.8 0.6-1.4 1.2-2 1.8-0.6 0.6-1.2 1.4-1.8 2l-73.4 73.4c-8.4 8.4-8.4 21.8 0 30.2 8.4 8.4 21.8 8.4 30.2 0l58.4-58.4c7.6 12.8 11.8 27.8 11.8 43.2 0 47.2-38.2 85.4-85.4 85.4-47 0-85.4-38.2-85.4-85.4 0-40.6 28.8-75.6 68.2-83.6 11.6-2.4 19-13.6 16.6-25.2-2.4-11.6-13.6-19-25.2-16.6-59.2 12.2-102.2 64.4-102.2 125.4 0 70.6 57.4 128 128 128s128-57.4 128-128c0-27-8.4-52.8-23.6-74l60.8-60.8c30 36.8 48 83.8 48 134.8 0 117.8-95.6 213.4-213.4 213.4-42.4 0-83-12.4-117.6-35.4-9.8-6.6-23-3.8-29.6 6-6.6 9.8-3.8 23 6 29.6 41.6 27.6 90.4 42.4 141.2 42.4 141.4 0 256-114.6 256-256 0-63-22.8-120.6-60.4-165.2l90.4-90.4h119.6c11.8 0 21.4-9.6 21.4-21.4 0-11.8-9.6-21.4-21.4-21.4h-107.2zM853.4 554.4c0-64.4-17.8-126-51-179.6-6.2-10-3.2-23.2 6.8-29.4 10-6.2 23.2-3.2 29.4 6.8C876 412.6 896 482 896 554.4c0 212-172 384-384 384s-384-172-384-384c0-212.2 171.8-384 384-384 38.4 0 76.2 5.6 112.4 16.8 11.2 3.4 17.6 15.4 14.2 26.6-3.4 11.2-15.4 17.6-26.6 14.2-32.2-9.8-65.8-14.8-100-14.8-188.6 0-341.4 152.8-341.4 341.4C170.6 743.2 323.4 896 512 896c188.6-0.2 341.4-153 341.4-341.6z" /></svg>