<?xml version="1.0" standalone="no"?><!DOCTYPE svg PUBLIC "-//W3C//DTD SVG 1.1//EN" "http://www.w3.org/Graphics/SVG/1.1/DTD/svg11.dtd"><svg t="1713491114474" class="icon" viewBox="0 0 1024 1024" version="1.1" xmlns="http://www.w3.org/2000/svg" p-id="16745" xmlns:xlink="http://www.w3.org/1999/xlink" width="200" height="200"><path d="M976.896 308.224c-42.496-104.448-135.68-155.648-135.68-155.648s-40.96-11.264-74.24-6.656c-26.624 3.584-38.912 20.48-54.272 33.792-5.632 4.608 4.608 40.96 27.136 47.616 11.264 3.072 19.968-14.336 27.136-13.312 8.704 1.024 14.848 11.776 20.48 6.656 31.232-29.696 32.768-26.624 60.928 0 15.36 14.848 14.336 61.44 20.48 88.064 5.632 26.112 25.6 46.08 27.136 54.272 6.144 30.72-37.376 4.096-74.24 13.312-27.648 7.168-44.544 48.64-67.584 47.616-79.872-4.608-102.912 96.256-155.648 60.928-9.728-6.656-37.888-29.696-42.496-52.736 0-4.096-2.048-21.504-2.048-24.064 0.512-9.728 12.288-23.04 12.288-23.04s12.288 10.752 18.432-1.536c6.144-12.288 12.288-41.984 3.072-51.2-25.6-26.624-5.632-33.792-9.728-56.32-1.024-6.656-4.608-17.408-12.8-25.6-13.312-13.824-31.232-18.944-46.08-19.968-15.36-3.072-52.224-7.168-74.24 15.36-35.328 36.352 13.312 53.248-20.48 88.064-8.192 13.312 0.512 34.816 6.656 47.616 6.144 12.288 13.312 6.656 13.312 6.656s9.216 10.752 9.216 23.552c0 6.656-0.512 24.064 0.512 28.672-4.096 27.136-26.624 35.84-36.352 42.496-53.248 35.328-75.776-65.536-155.648-60.928-23.552 1.536-40.448-40.448-67.584-47.616-37.376-9.728-80.384 16.896-74.752-13.312 1.536-8.192 20.992-27.648 27.136-54.272 6.144-26.624 5.12-73.216 20.48-88.064 28.16-26.624 29.696-29.696 60.928 0 5.12 5.12 11.264-6.144 20.48-6.656 7.168-0.512 15.872 16.384 27.136 13.312 22.528-6.144 32.768-42.496 27.136-47.616-15.36-13.824-27.648-30.208-54.272-33.792-33.792-4.096-74.752 6.656-74.752 6.656s-93.184 51.2-135.68 155.648c-15.36 37.888-29.184 54.272-27.136 74.752 2.56 26.624 27.648 54.272 54.272 94.72 41.472 63.488 101.376 67.584 101.376 67.584s39.424 5.632 60.928 40.448c11.264 17.92 14.848 55.808 40.448 94.72 23.552 35.328 74.752 59.392 88.064 94.72 23.552 62.464 20.48 135.68 20.48 135.68h262.144s-3.584-70.656 20.48-133.12c13.312-35.328 64.512-59.392 88.064-94.72 26.112-38.912 29.696-76.8 40.448-94.72 21.504-34.816 60.928-40.448 60.928-40.448s60.416-4.096 101.376-67.584c26.624-40.96 51.2-68.096 54.272-94.72 1.536-20.48-12.288-37.376-27.648-75.264z" p-id="16746"></path></svg>