<?xml version="1.0" standalone="no"?><!DOCTYPE svg PUBLIC "-//W3C//DTD SVG 1.1//EN" "http://www.w3.org/Graphics/SVG/1.1/DTD/svg11.dtd"><svg class="icon" width="200px" height="200.00px" viewBox="0 0 1024 1024" version="1.1" xmlns="http://www.w3.org/2000/svg"><path d="M935.8 462.8c17.6 151.8-46.8 299-166.2 389.6-9.4 7.2-22.8 5.2-29.8-4.2-7.2-9.4-5.2-22.8 4.2-29.8 107.6-81.6 165.6-214 149.6-350.6-4.4-38.6-14.6-75.2-29.4-109.2l-306 306c-12.4 12.4-29.2 19-46.2 18.8-17.4 0.2-34.2-6.4-46.8-18.8l-159-159c-8.4-8.4-8.4-21.8 0-30.2 8.4-8.4 21.8-8.4 30.2 0l159 159c4.2 4.2 9.8 6.4 16.6 6.4 6.2 0 11.8-2.2 16-6.4l315.8-315.8c-74.6-127.8-219.8-206.2-376-188C257 155.2 106.2 345.8 130.6 556.4c20 172.4 153 308.8 322.4 335.2 4 0.6 11.2 1.8 20.4 2.8 7.2 0.8 14.4 1.6 21.6 2 11.8 0.8 20.6 11 19.8 22.8-0.8 11.8-11 20.6-22.8 19.8-7.8-0.6-15.8-1.4-23.6-2.2-10-1.2-17.8-2.4-22.2-3.2-187.8-29.4-335.6-180.8-357.8-372.4C61.2 327.2 228.8 115.4 463 88c169.6-19.8 327.8 63 412.2 199.2l27-27c8.4-8.4 21.8-8.4 30.2 0 8.4 8.4 8.4 21.8 0 30.2l-35.8 35.8c20 42 33.6 87.8 39.2 136.6z" /></svg>