<?xml version="1.0" standalone="no"?><!DOCTYPE svg PUBLIC "-//W3C//DTD SVG 1.1//EN" "http://www.w3.org/Graphics/SVG/1.1/DTD/svg11.dtd"><svg class="icon" width="200px" height="200.00px" viewBox="0 0 1024 1024" version="1.1" xmlns="http://www.w3.org/2000/svg"><path d="M512 85.4C276.4 85.4 85.4 276.4 85.4 512S276.4 938.6 512 938.6 938.6 747.6 938.6 512 747.6 85.4 512 85.4z m0 810.6c-212 0-384-172-384-384S300 128 512 128s384 172 384 384-172 384-384 384zM192 533.4h42.6c11.8 0 21.4-9.6 21.4-21.4 0-11.8-9.6-21.4-21.4-21.4H192c-11.8 0-21.4 9.6-21.4 21.4 0 11.8 9.6 21.4 21.4 21.4zM832 533.4h-42.6c-11.8 0-21.4-9.6-21.4-21.4 0-11.8 9.6-21.4 21.4-21.4H832c11.8 0 21.4 9.6 21.4 21.4 0 11.8-9.6 21.4-21.4 21.4zM490.6 192v42.6c0 11.8 9.6 21.4 21.4 21.4 11.8 0 21.4-9.6 21.4-21.4V192c0-11.8-9.6-21.4-21.4-21.4-11.8 0-21.4 9.6-21.4 21.4zM490.6 832v-42.6c0-11.8 9.6-21.4 21.4-21.4 11.8 0 21.4 9.6 21.4 21.4V832c0 11.8-9.6 21.4-21.4 21.4-11.8 0-21.4-9.6-21.4-21.4zM531.8 518.6c-1.4 5.2-4.8 9.8-9.8 12.8l-127 73.4c-10.2 5.8-23.2 2.4-29.2-7.8-5.8-10.2-2.4-23.2 7.8-29.2l120.2-69.4 63.4-174.2c4-11 16.2-16.8 27.4-12.8 11 4 16.8 16.2 12.8 27.4l-65.6 179.8z" /></svg>