<?xml version="1.0" standalone="no"?><!DOCTYPE svg PUBLIC "-//W3C//DTD SVG 1.1//EN" "http://www.w3.org/Graphics/SVG/1.1/DTD/svg11.dtd"><svg class="icon" width="200px" height="200.00px" viewBox="0 0 1024 1024" version="1.1" xmlns="http://www.w3.org/2000/svg"><path d="M533.4 494.2V320c0-11.8-9.6-21.4-21.4-21.4s-21.4 9.6-21.4 21.4v174.2c-24.8 8.8-42.6 32.6-42.6 60.4 0 35.4 28.6 64 64 64s64-28.6 64-64c0-27.8-17.8-51.6-42.6-60.4zM512 576c-11.8 0-21.4-9.6-21.4-21.4 0-11.8 9.6-21.4 21.4-21.4s21.4 9.6 21.4 21.4c0 11.8-9.6 21.4-21.4 21.4zM779.2 279l20.8-20.8 14.8 14.8c8.4 8.4 21.8 8.4 30.2 0 8.4-8.4 8.4-21.8 0-30.2l-60.4-60.4c-8.4-8.4-21.8-8.4-30.2 0-8.4 8.4-8.4 21.8 0 30.2l15.2 15.2-22.8 22.8A384.76 384.76 0 0 0 576.2 176V128h21c11.8 0 21.4-9.6 21.4-21.4s-9.6-21.4-21.4-21.4h-170.6c-11.8 0-21.4 9.6-21.4 21.4S414.8 128 426.6 128h21.6v48C266.6 206.2 128 364.2 128 554.6c0 212 172 384 384 384s384-172 384-384c0-108.2-44.8-205.8-116.8-275.6zM491 128h42.6v43.2c-7.2-0.4-14.4-0.6-21.6-0.6-7 0-14 0.2-21 0.6V128zM512 896c-188.4 0-341.4-152.8-341.4-341.4 0-166.8 119.6-305.6 277.6-335.4v17.4c0 11.8 9.6 21.4 21.4 21.4s21.4-9.6 21.4-21.4V214c7-0.4 14-0.6 21-0.6 188.4 0 341.4 152.8 341.4 341.4S700.4 896 512 896z" /></svg>