<?xml version="1.0" standalone="no"?><!DOCTYPE svg PUBLIC "-//W3C//DTD SVG 1.1//EN" "http://www.w3.org/Graphics/SVG/1.1/DTD/svg11.dtd"><svg t="1713490733295" class="icon" viewBox="0 0 1024 1024" version="1.1" xmlns="http://www.w3.org/2000/svg" p-id="8851" xmlns:xlink="http://www.w3.org/1999/xlink" width="200" height="200"><path d="M434.48241973 131.35631405l-9.11232251 2.73369661-2.57658711 1.0054981c-28.46815085 13.00862523-60.70691773 42.29374338-94.98810208 85.02739096-32.11308016 40.06279507-64.54037782 90.05487849-93.88833859 144.5717011-30.95047258 57.50189412-57.21909791 117.76890614-76.04075664 174.48525573-21.42966715 64.41468963-33.08715547 122.85923776-34.56397908 174.01392876-0.0314213 9.42654002 3.36213311 17.91042605 10.02355374 24.13194244 35.34952507 33.52706114 88.54663209 63.47203564 150.03909576 84.74459479 63.44061434 22.08952495 130.58900057 33.05573415 189.6619852 30.82478584l9.42654002-0.47132699c53.00857622-3.26786769 98.79013939-17.21914692 134.73667816-41.35108792l4.36762973-3.07933688 1.97957342 3.0164928c6.2843605 9.5836495 12.91435982 19.35582835 19.60720322 29.12800866l12.6629864 18.22464354 11.18615984 15.83658723c6.2843605 8.54673012 15.80516591 13.3542655 25.92298506 13.35426554 7.00706093 0 14.01412332-2.1995255 19.82715682-7.00706094 13.04004654-9.33227462 16.27649293-29.41080486 5.71876662-43.67630307l-13.07146784-18.53886104a2191.89050644 2191.89050644 0 0 1-19.45009522-28.34246416l-12.38018874-18.60170514-7.00706091-10.80909972-7.50981071-11.87744042a736.84121194 736.84121194 0 0 1-3.39355441-5.53023729l-1.79104262-2.73369662a31.48464367 31.48464367 0 0 0-19.10445491-11.94028304l-1.06834071-0.15710949-1.2568715-1.9795734-1.6339346 1.63393309 0.6284365 0.03142279a31.86170526 31.86170526 0 0 0-26.20578126 10.05497507c-28.09108926 31.01331666-74.28113534 49.01800811-134.57957015 51.28037767l-9.26943053 0.21995359c-93.32274619 0.84838861-207.47814581-36.26075775-270.85591605-86.78701227l-2.89080609-2.3880563 0.50274831-6.44146999c7.47838793-83.61340997 43.86483239-191.48444909 101.77521088-298.94700531 27.83971436-51.62601799 58.1303306-98.3502337 87.47829138-134.98805307l5.27886241-6.47289129c24.50900404-29.59933565 46.44142098-49.74070999 62.87502192-58.60165614l1.885308-0.94265401 5.53023732-1.57109049c45.84440579-11.94028452 98.1302816-3.33071031 141.49236568 18.85308004l1.97957339 1.0369194c-1.41398101 7.88687231-5.87587613 19.67004733-13.73132712 32.36445357l-3.33071031 5.1531757c-14.89393324 21.99525954-35.31810375 39.68573349-54.76819751 46.598529l-3.70777338 1.16260759-2.41947763-2.13668289a71.04469043 71.04469043 0 0 1-15.67947921-20.98976294l-6.37862443-12.53729822a111.23317221 111.23317221 0 0 0-3.58208521-6.15867233l-1.63393457-2.29379092-2.76511793-3.2050236c-16.08796212-17.06203744-36.13506958-24.63469075-56.49639602-16.52786782-15.77374314 6.34720313-27.65118356 21.11544964-36.19791366 48.2010423l-2.35663501 8.07540163a229.37913996 229.37913996 0 0 0-1.0997635 4.30478709l-2.10526011 9.11232251-0.97407679 4.83895672-1.885308 10.21208452-0.81696581 5.37312781-1.60251181 11.3432708a565.59240112 565.59240112 0 0 0-0.75412321 5.97014153l-1.35113838 12.53729823-1.19402742 13.32284274-1.03691939 14.17123281-0.9112327 15.01961994-1.06834071 24.19478653-0.53417109 17.21914547-0.5341711 27.58834092-0.25137342 29.72502238v10.36919401l0.21995211 3.77061601c0.84838861 7.3212799 4.24194301 14.10838871 9.52080542 19.19872032l1.0997635 0.942654v10.27492863l9.01805562-4.6818487 2.73369661 1.03691939c8.38962061 2.5451658 17.59620852 1.5396677 25.38881545-3.07933542 33.02431136-19.45009374 76.07217795-25.26312725 111.17032813-15.17672943 19.98426484 5.75018942 35.00388478 16.21364884 43.26781868 29.22227408l2.07383879 3.6135065a27.65118356 27.65118356 0 0 0 3.67635061 5.59307993l5.34170651 6.0015643 8.92379023 10.84052102 21.20971506 27.39981015 66.23715501 87.38402597 20.42417052 26.39431205 15.39668155 19.51293784 14.51687164 17.91042604c4.71327001 5.75018942 9.26943052 11.21758261 13.69990431 16.46502225l10.96620922 12.72582903 10.30634994 11.62606701c3.36213311 3.6763506 6.59857803 7.16417041 9.74075752 10.49488072l9.2065879 9.42654001c23.84914625 23.66061545 42.38800879 35.97796158 59.29293672 38.71165816a31.83028395 31.83028395 0 1 0 10.05497652-62.84360061l-0.6284365-0.15710948-1.72819851-0.97407532-2.5451658-1.8224639-3.3307118-2.67085399-4.08483351-3.58208522-4.80753541-4.49331642-5.56165861-5.40455059-6.28436052-6.41004721-6.9756396-7.38412253-11.78317502-12.97720391-8.67241684-9.99213243-12.50587543-14.76824506-7.94971637-9.64649359-16.59071046-20.61269986-13.38568682-17.09346021-25.26312725-32.89862467-55.17668042-73.05568513-14.98819862-19.51293784-13.00862524-16.40217965-6.75568749-8.1068244-2.6394312-3.04791411 1.75962127 3.1107582c-16.30791422-30.47914557-46.25289017-52.91431083-83.73909666-63.69198922l-8.16966851-2.13668141c-32.86720336-7.76118413-68.93942884-6.66142211-102.7492862 2.6080084l-1.8538867 0.53417112 0.471327-18.06753553 0.69128058-20.48701317 0.942654-19.16729754 1.1311848-17.84758342 1.31971561-16.52786635 1.57108902-15.14530811c1.06834071-9.61507082 2.29379091-18.35033172 3.67635061-26.14293716l1.06834218-5.75018941 0.62843504-3.29928902 2.10526157 3.33071032c8.98663434 13.60563893 19.73288995 24.60326945 37.92611217 38.36601788 5.84445481 4.52473921 13.38568684 6.84995291 21.05260557 6.41004721 48.51525979-2.7022753 94.54819638-38.80592356 122.95350462-84.83886017 21.86957285-35.38094638 29.85071054-71.10753305 18.35033025-98.1617029a33.05573415 33.05573415 0 0 0-11.78317503-14.10838872l-0.75412321-0.471327c-60.10990402-37.32909846-138.22449798-53.32279519-208.20084622-34.24976157z" fill="#8a8a8a" p-id="8852"></path><path d="M348.92085767 635.80189174c11.78317502-12.97720391 31.70459578-13.95127923 43.58203621-3.3621316l3.14218099 2.51374302 4.0534122 3.07933689c5.37312782 3.9277255 11.50037883 7.85544953 18.19322224 11.53180014 8.79810353 4.80753541 17.84758194 8.76668222 27.02274706 11.59464422 36.66924066 11.31184801 67.08554363 3.0793369 94.39108837-25.79729687a31.95597068 31.95597068 0 0 1 44.74464231-1.6967772c13.00862523 11.94028452 13.85701381 32.27018817 1.69677721 45.21596931-32.61582847 34.56398057-70.66762883 50.5262545-110.98179733 50.52625448-16.65355452 0-32.93004597-2.73369661-49.0494294-7.66691873a209.99189029 209.99189029 0 0 1-38.42886198-16.43360093 229.25345326 229.25345326 0 0 1-25.13744053-15.93085264l-5.65592402-4.27336578-5.05890882-4.17909891a31.89312658 31.89312658 0 0 1-2.51374451-45.15312671z m235.72634457-117.73748483c57.53331542-56.43355339 116.22923843-83.36203507 174.29672494-77.83179776l6.69284342 0.7541232 7.38412253 1.19402743c34.34402699 6.44146852 67.11696494 24.79180025 95.30231957 52.88288949 4.21052172 4.21052172 8.23251113 8.57815142 11.97170583 12.88293852l7.03848371 8.42104193c7.66691872 9.5836495 13.3542655 18.09895683 15.83658722 23.00075765 8.16966849 14.45402754 3.83346009 32.33303227-9.3636974 41.60246427l-3.99056812 2.41947761a30.47914557 30.47914557 0 0 1-6.97563961 2.60800989l-3.61350652 0.62843651-3.70777336 0.21995208c-11.37469212 0-21.93241695-6.06440691-28.27962008-17.21914692l-0.62843503-1.1311848-2.23094827-3.3935544-3.33071033-4.61900461-4.27336579-5.43597042-5.02748752-5.97014299a198.36582331 198.36582331 0 0 0-2.76511791-3.07933542l-5.84445483-6.12725103c-19.48151654-19.26156294-41.88525899-32.55298438-66.237155-35.88369615-38.24033117-5.2474411-81.06824416 13.82559251-127.54108646 59.32435802a31.79886117 31.79886117 0 1 1-44.71322099-45.2473921z" fill="#8a8a8a" p-id="8853"></path></svg>