<?xml version="1.0" standalone="no"?><!DOCTYPE svg PUBLIC "-//W3C//DTD SVG 1.1//EN" "http://www.w3.org/Graphics/SVG/1.1/DTD/svg11.dtd"><svg class="icon" width="200px" height="200.00px" viewBox="0 0 1024 1024" version="1.1" xmlns="http://www.w3.org/2000/svg"><path d="M832 213.6h-192V192c0-35.4-28.6-64-64-64h-128c-35.4 0-64 28.6-64 64v21.6H192c-11.8 0-21.4 9.6-21.4 21.4 0 11.8 9.6 21.4 21.4 21.4h192V320c0 11.8 9.6 21.4 21.4 21.4s21.4-9.6 21.4-21.4v-63.6h298.6V832c0 11.8-9.6 21.4-21.4 21.4H320c-11.8 0-21.4-9.6-21.4-21.4V321.4c0-11.8-9.6-21.4-21.4-21.4-11.8 0-21.4 9.6-21.4 21.4V832c0 35.4 28.6 64 64 64h384c35.4 0 64-28.6 64-64V256.4h64c11.8 0 21.4-9.6 21.4-21.4 0.2-11.8-9.4-21.4-21.2-21.4z m-234.6 0h-170.6V192c0-11.8 9.6-21.4 21.4-21.4h128c11.8 0 21.4 9.6 21.4 21.4v21.6zM383.8 746.2V454.8c0-11.8 9.6-21.4 21.4-21.4s21.4 9.6 21.4 21.4v291.6c0 11.8-9.6 21.4-21.4 21.4s-21.4-9.8-21.4-21.6zM597.2 454.8v291.6c0 11.8 9.6 21.4 21.4 21.4 11.8 0 21.4-9.6 21.4-21.4V454.8c0-11.8-9.6-21.4-21.4-21.4-12 0-21.4 9.6-21.4 21.4zM490.6 746.2V454.8c0-11.8 9.6-21.4 21.4-21.4 11.8 0 21.4 9.6 21.4 21.4v291.6c0 11.8-9.6 21.4-21.4 21.4-11.8-0.2-21.4-9.8-21.4-21.6z" /></svg>