<?xml version="1.0" standalone="no"?><!DOCTYPE svg PUBLIC "-//W3C//DTD SVG 1.1//EN" "http://www.w3.org/Graphics/SVG/1.1/DTD/svg11.dtd"><svg class="icon" width="200px" height="200.00px" viewBox="0 0 1024 1024" version="1.1" xmlns="http://www.w3.org/2000/svg"><path d="M874.6 170.6H149.4c-35.4 0-64 28.6-64 64v426.6c0 35.4 28.6 64 64 64h298.4v85.2H320c-11.8 0-21.4 9.6-21.4 21.4s9.6 21.4 21.4 21.4h384c11.8 0 21.4-9.6 21.4-21.4s-9.6-21.4-21.4-21.4h-128.2v-106.6c0-11.2-8.6-20.4-19.6-21.2-1-0.2-1.8-0.2-2.8-0.2h-81.6c-0.8-0.2-1.8-0.2-2.6-0.2-1 0-1.8 0-2.6 0.2H149.4c-11.8 0-21.4-9.6-21.4-21.4V234.6c0-11.8 9.6-21.4 21.4-21.4h725.4c11.8 0 21.4 9.6 21.4 21.4v426.6c0 11.8-9.6 21.4-21.4 21.4H639.2c-11.8 0-21.4 9.6-21.4 21.4 0 11.8 9.6 21.4 21.4 21.4h235.4c35.4 0 64-28.6 64-64V234.6c0-35.2-28.6-64-64-64zM490.4 725.4h42.6v85.2h-42.6v-85.2z" /></svg>