<?xml version="1.0" standalone="no"?><!DOCTYPE svg PUBLIC "-//W3C//DTD SVG 1.1//EN" "http://www.w3.org/Graphics/SVG/1.1/DTD/svg11.dtd"><svg class="icon" width="200px" height="200.00px" viewBox="0 0 1024 1024" version="1.1" xmlns="http://www.w3.org/2000/svg"><path d="M490 128.6C273 139.2 97.2 312.8 85.4 531.2 84.2 555.6 104 576 128.2 576h297.6c11.8 0 21.4-9.6 21.4-21.4 0-11.8-9.6-21.4-21.4-21.4H128.2c10.8-202.8 179-362.6 383.2-362.6s372.4 159.8 383.4 362.8c0-0.4-281.2-0.2-362.2-0.2v-148.4c0-11.8-9.6-21.4-21.4-21.4s-21.4 9.6-21.4 21.4v166.6c-0.2 1-0.2 2.2-0.2 3.2 0 1.2 0 2.2 0.2 3.2v316.6c0 35.4 28.6 64 64 64s64-28.6 64-64v-22.2c0-11.8-9.6-21.4-21.4-21.4s-21.4 9.6-21.4 21.4v22.2c0 11.8-9.6 21.4-21.4 21.4s-21.4-9.6-21.4-21.4V576H894c24.4 0 44.2-20.4 43-44.8-11.8-218.6-187.6-392-404.8-402.8V106.6c0-11.8-9.6-21.4-21.4-21.4S490 94.8 490 106.6v22z" /></svg>