<?xml version="1.0" standalone="no"?><!DOCTYPE svg PUBLIC "-//W3C//DTD SVG 1.1//EN" "http://www.w3.org/Graphics/SVG/1.1/DTD/svg11.dtd"><svg class="icon" width="200px" height="200.00px" viewBox="0 0 1024 1024" version="1.1" xmlns="http://www.w3.org/2000/svg"><path d="M128 149.4v85.4c0 11.8-9.6 21.4-21.4 21.4s-21.4-9.6-21.4-21.4V149.4c0-35.4 28.6-64 64-64h725.4c35.4 0 64 28.6 64 64v85.4c0 11.8-9.6 21.4-21.4 21.4-11.8 0-21.4-9.6-21.4-21.4V149.4c0-11.8-9.6-21.4-21.4-21.4H149.4C137.6 128 128 137.6 128 149.4zM717.4 479l-167.6-245.6c-18.2-26.6-57.4-26.6-75.6 0l-167.6 245.6c-20.6 30.4 1 71.6 37.8 71.6h188.8v322c0 11.8-9.6 21.4-21.4 21.4s-21.4-9.6-21.4-21.4V617.2c0-11.8-9.6-21.4-21.4-21.4s-21.4 9.6-21.4 21.4v255.4c0 35.4 28.6 64 64 64s64-28.6 64-64v-322h103.4c37.2 0 59-41.2 38.4-71.6z m-38 28.8H576v-58.2c0-11.8-9.6-21.4-21.4-21.4-11.8 0-21.4 9.6-21.4 21.4v58.2h-188.8c-2.6 0-4-2.8-2.6-5l167.4-245.4c1.2-1.8 4-1.8 5.2 0L682 503c1.4 2 0 4.8-2.6 4.8z" /></svg>