<?xml version="1.0" standalone="no"?><!DOCTYPE svg PUBLIC "-//W3C//DTD SVG 1.1//EN" "http://www.w3.org/Graphics/SVG/1.1/DTD/svg11.dtd"><svg class="icon" width="200px" height="200.00px" viewBox="0 0 1024 1024" version="1.1" xmlns="http://www.w3.org/2000/svg"><path d="M768 362.6v-64h106.6c11.8 0 21.4 9.6 21.4 21.4v149.4h-148.8c-70.8 0-128 57.2-128 128s57.2 128 128 128h83.4c11.8 0 21.4-9.6 21.4-21.4s-9.6-21.4-21.4-21.4h-83.4c-47.2 0-85.4-38.2-85.4-85.4S700 512 747.2 512H896v320c0 11.8-9.6 21.4-21.4 21.4H149.4c-11.8 0-21.4-9.6-21.4-21.4V192c0-11.8 9.6-21.4 21.4-21.4H704c11.8 0 21.4 9.6 21.4 21.4v64H192c-11.8 0-21.4 9.6-21.4 21.4s9.6 21.4 21.4 21.4h533.4v64c0 11.8 9.6 21.4 21.4 21.4 11.6-0.2 21.2-9.8 21.2-21.6z m106.6-106.6H768V192c0-35.4-28.6-64-64-64H149.4c-35.4 0-64 28.6-64 64v640c0 35.4 28.6 64 64 64h725.4c35.4 0 64-28.6 64-64V320c-0.2-35.4-28.8-64-64.2-64zM810.6 597.4c0 23.6-19.2 42.6-42.6 42.6s-42.6-19.2-42.6-42.6 19.2-42.6 42.6-42.6 42.6 19 42.6 42.6z" /></svg>