<?xml version="1.0" standalone="no"?><!DOCTYPE svg PUBLIC "-//W3C//DTD SVG 1.1//EN" "http://www.w3.org/Graphics/SVG/1.1/DTD/svg11.dtd"><svg class="icon" width="200px" height="200.00px" viewBox="0 0 1024 1024" version="1.1" xmlns="http://www.w3.org/2000/svg"><path d="M1024 512c0 284.444444-227.555556 512-512 512s-512-227.555556-512-512 227.555556-512 512-512 512 227.555556 512 512z m-91.022222 0c0-233.244444-187.733333-420.977778-420.977778-420.977778S91.022222 278.755556 91.022222 512s187.733333 420.977778 420.977778 420.977778 420.977778-187.733333 420.977778-420.977778zM739.555556 512c0 284.444444-102.4 512-227.555556 512s-227.555556-227.555556-227.555556-512 102.4-512 227.555556-512 227.555556 227.555556 227.555556 512z m-91.022223 0c0-273.066667-96.711111-420.977778-136.533333-420.977778S375.466667 238.933333 375.466667 512s96.711111 420.977778 136.533333 420.977778 136.533333-147.911111 136.533333-420.977778zM56.888889 284.444444h910.222222v91.022223H56.888889V284.444444z m0 307.2h910.222222V682.666667H56.888889v-91.022223z" /></svg>