<?xml version="1.0" standalone="no"?><!DOCTYPE svg PUBLIC "-//W3C//DTD SVG 1.1//EN" "http://www.w3.org/Graphics/SVG/1.1/DTD/svg11.dtd"><svg class="icon" width="200px" height="200.00px" viewBox="0 0 1024 1024" version="1.1" xmlns="http://www.w3.org/2000/svg"><path d="M938.6 512c0 152.8-81 291.6-210.2 367.8-10.2 6-23.2 2.6-29.2-7.6s-2.6-23.2 7.6-29.2C823.2 774.4 896 649.6 896 512c0-212-172-384-384-384S128 300 128 512c0 173.6 116.2 324.4 281.4 370.2 6 1.8 16.4 4.6 29 7.2 4.2 1 8.2 1.8 12.2 2.6 11.6 2.2 19.2 13.4 17 25-2.2 11.6-13.4 19.2-25 17-4.4-0.8-9-1.8-13.4-2.8-13.6-3-24.8-6-31.4-7.8C214.4 872.4 85.4 705 85.4 512c0-235.6 191-426.6 426.6-426.6S938.6 276.4 938.6 512zM512.6 255c-35.8 0-64.8 29.2-64.8 64.8V574c0 35.8 29.2 64.8 64.8 64.8 35.8 0 64.8-29.2 64.8-64.8V319.8c0-35.6-29-64.8-64.8-64.8zM534.8 574c0 12.2-10 22.2-22.2 22.2s-22.2-10-22.2-22.2V319.8c0-12.2 10-22.2 22.2-22.2s22.2 10 22.2 22.2V574zM490.2 744.2c0.2-1.4 1.6-5.4 2.6-7.4 5.2-10.6 17.8-15 28.4-9.8 10.6 5.2 15 17.8 9.8 28.4-2.8 5.6-7.8 9.6-13.8 11.2-11.4 3-18.2 14.8-15 26.2 3 11.4 14.8 18.2 26.2 15 17.8-4.8 32.8-17 41-33.8 15.4-31.8 2.2-70-29.6-85.4-31.8-15.4-70-2.2-85.4 29.4-2.6 5.2-5.2 12.8-6.2 18-2.2 11.6 5.4 22.8 17 25 11.4 2.4 22.6-5.2 25-16.8z" /></svg>