<?xml version="1.0" standalone="no"?><!DOCTYPE svg PUBLIC "-//W3C//DTD SVG 1.1//EN" "http://www.w3.org/Graphics/SVG/1.1/DTD/svg11.dtd"><svg class="icon" width="200px" height="200.00px" viewBox="0 0 1024 1024" version="1.1" xmlns="http://www.w3.org/2000/svg"><path d="M511 213.4c-147.8 0-286.2 58-389.4 159.6-8.4 8.2-21.8 8.2-30.2-0.2-8.2-8.4-8.2-21.8 0.2-30.2 111-109.4 260.2-171.8 419.4-171.8 45 0 89.4 5 132.6 14.8 11.4 2.6 18.8 14 16.2 25.6-2.6 11.4-14 18.8-25.6 16.2-40.2-9.4-81.4-14-123.2-14zM716 252.4c69.2 27.6 132.2 68.8 185.2 121.4 8.4 8.2 21.8 8.2 30.2-0.2 8.2-8.4 8.2-21.8-0.2-30.2-57-56.4-124.8-101-199.4-130.6-11-4.4-23.4 1-27.8 12-4.4 10.8 1 23.2 12 27.6zM511 341.4c-114.8 0-222.2 45.4-301.8 125-8.4 8.4-21.8 8.4-30.2 0-8.4-8.4-8.4-21.8 0-30.2 87.4-87.4 205.8-137.4 331.8-137.4 126.2 0 244.4 50 331.8 137.4 8.4 8.4 8.4 21.8 0 30.2-8.4 8.4-21.8 8.4-30.2 0-79.2-79.6-186.6-125-301.4-125zM511 469.4c-23.6 0-47 2.8-69.8 8.2-11.4 2.8-23-4.4-25.6-15.8-2.8-11.4 4.4-23 15.8-25.6 26-6.2 52.6-9.4 79.6-9.4 91.8 0 177.8 36.4 241.4 100 8.4 8.4 8.4 21.8 0 30.2-8.4 8.4-21.8 8.4-30.2 0-55.6-55.8-130.8-87.6-211.2-87.6zM390.4 647.4c31.8-31.8 74.8-50 120.6-50s88.8 18.2 120.6 50c8.4 8.4 21.8 8.4 30.2 0 8.4-8.4 8.4-21.8 0-30.2-39.8-39.8-93.6-62.4-150.8-62.4-57.4 0-111.2 22.8-150.8 62.4-8.4 8.4-8.4 21.8 0 30.2 8.2 8.2 21.8 8.2 30.2 0zM511 682.6c-47.2 0-85.4 38.2-85.4 85.4s38.2 85.4 85.4 85.4 85.4-38.2 85.4-85.4-38.2-85.4-85.4-85.4z m0 128c-23.6 0-42.6-19-42.6-42.6s19-42.6 42.6-42.6 42.6 19 42.6 42.6-19 42.6-42.6 42.6zM299.8 556.8c19.8-19.8 42.4-36.8 67-50.4 10.4-5.6 14-18.6 8.4-29-5.6-10.4-18.6-14-29-8.4-28 15.6-53.8 35-76.4 57.6-8.4 8.4-8.4 21.8 0 30.2 8.2 8.4 21.6 8.4 30 0z" /></svg>