<?xml version="1.0" standalone="no"?><!DOCTYPE svg PUBLIC "-//W3C//DTD SVG 1.1//EN" "http://www.w3.org/Graphics/SVG/1.1/DTD/svg11.dtd"><svg class="icon" width="200px" height="170.10px" viewBox="0 0 1204 1024" version="1.1" xmlns="http://www.w3.org/2000/svg"><path d="M789.082353 1017.976471H397.552941c-60.235294 0-120.470588-30.117647-150.588235-84.329412L48.188235 602.352941c-30.117647-54.211765-30.117647-120.470588 0-174.682353L240.941176 96.376471C271.058824 42.164706 331.294118 12.047059 391.529412 12.047059H783.058824c60.235294 0 120.470588 30.117647 150.588235 84.329412L1132.423529 421.647059c30.117647 54.211765 30.117647 120.470588 0 174.682353l-192.752941 331.294117c-30.117647 60.235294-90.352941 90.352941-150.588235 90.352942z m-391.529412-903.529412c-24.094118 0-48.188235 12.047059-54.211765 30.117647L144.564706 475.858824c-12.047059 18.070588-12.047059 48.188235 0 66.258823l192.752941 331.294118c12.047059 18.070588 36.141176 30.117647 54.211765 30.117647H783.058824c24.094118 0 48.188235-12.047059 54.211764-30.117647L1030.023529 542.117647c12.047059-18.070588 12.047059-48.188235 0-66.258823L843.294118 144.564706c-12.047059-18.070588-36.141176-30.117647-54.211765-30.117647H397.552941zM590.305882 692.705882c-102.4 0-180.705882-78.305882-180.705882-180.705882s78.305882-180.705882 180.705882-180.705882 180.705882 78.305882 180.705883 180.705882-78.305882 180.705882-180.705883 180.705882z m0-265.035294c-48.188235 0-84.329412 36.141176-84.329411 84.329412S542.117647 596.329412 590.305882 596.329412s84.329412-36.141176 84.329412-84.329412-36.141176-84.329412-84.329412-84.329412z" /></svg>