<?xml version="1.0" standalone="no"?><!DOCTYPE svg PUBLIC "-//W3C//DTD SVG 1.1//EN" "http://www.w3.org/Graphics/SVG/1.1/DTD/svg11.dtd"><svg class="icon" width="200px" height="200.00px" viewBox="0 0 1024 1024" version="1.1" xmlns="http://www.w3.org/2000/svg"><path d="M142.222222 409.6v477.866667h745.244445V409.6L500.622222 142.222222 142.222222 409.6zM91.022222 341.333333l358.4-267.377777c28.444444-22.755556 68.266667-22.755556 96.711111 0L932.977778 341.333333c22.755556 17.066667 34.133333 39.822222 34.133333 68.266667v477.866667c0 45.511111-39.822222 85.333333-85.333333 85.333333h-739.555556C96.711111 967.111111 56.888889 927.288889 56.888889 881.777778V409.6c0-28.444444 11.377778-51.2 34.133333-68.266667z m284.444445 284.444445c-22.755556 0-39.822222 17.066667-39.822223 39.822222 0 22.755556 17.066667 39.822222 39.822223 39.822222h273.066666c22.755556 0 39.822222-17.066667 39.822223-39.822222 0-22.755556-17.066667-39.822222-39.822223-39.822222H375.466667zM881.777778 972.8h-739.555556c-51.2 0-91.022222-39.822222-91.022222-91.022222V409.6c0-28.444444 11.377778-56.888889 34.133333-68.266667l358.4-267.377777c28.444444-22.755556 73.955556-22.755556 102.4 0L932.977778 341.333333c22.755556 17.066667 39.822222 45.511111 39.822222 73.955556v477.866667c0 39.822222-39.822222 79.644444-91.022222 79.644444zM91.022222 347.022222c-17.066667 11.377778-28.444444 34.133333-28.444444 62.577778v477.866667c0 39.822222 34.133333 79.644444 79.644444 79.644444h745.244445c39.822222 0 79.644444-34.133333 79.644444-79.644444V409.6c0-22.755556-11.377778-51.2-34.133333-62.577778L546.133333 73.955556C517.688889 56.888889 477.866667 56.888889 455.111111 79.644444L91.022222 347.022222z m796.444445 540.444445H136.533333V403.911111l364.088889-273.066667h5.688889l386.844445 273.066667v483.555556h-5.688889z m-739.555556-11.377778h733.866667V409.6L500.622222 147.911111 147.911111 409.6v466.488889z m500.622222-159.288889H375.466667c-28.444444 0-45.511111-22.755556-45.511111-45.511111s17.066667-45.511111 39.822222-45.511111h278.755555c28.444444 0 45.511111 22.755556 45.511111 45.511111s-22.755556 45.511111-45.511111 45.511111z m-267.377777-85.333333c-22.755556 0-39.822222 17.066667-39.822223 34.133333 0 22.755556 17.066667 34.133333 34.133334 34.133333h273.066666c17.066667 0 34.133333-17.066667 34.133334-34.133333 0-22.755556-17.066667-34.133333-34.133334-34.133333H381.155556z" /></svg>