<?xml version="1.0" standalone="no"?><!DOCTYPE svg PUBLIC "-//W3C//DTD SVG 1.1//EN" "http://www.w3.org/Graphics/SVG/1.1/DTD/svg11.dtd"><svg class="icon" width="200px" height="200.00px" viewBox="0 0 1024 1024" version="1.1" xmlns="http://www.w3.org/2000/svg"><path d="M942.08 640h-107.52V491.52c0-20.48-15.36-30.72-30.72-30.72h-261.12V384h97.28c20.48 0 30.72-15.36 30.72-30.72V81.92c0-20.48-15.36-30.72-30.72-30.72H378.88c-20.48 0-30.72 15.36-30.72 30.72v266.24c0 20.48 15.36 30.72 30.72 30.72h97.28V460.8h-256c-15.36 0-30.72 10.24-30.72 30.72v148.48h-102.4c-20.48 0-35.84 15.36-35.84 30.72v266.24c0 20.48 15.36 35.84 30.72 35.84h261.12c15.36 0 30.72-15.36 30.72-30.72v-266.24c0-20.48-15.36-30.72-30.72-30.72H250.88v-122.88H768v112.64h-92.16c-20.48 0-30.72 15.36-30.72 30.72v266.24c0 20.48 15.36 35.84 30.72 35.84h261.12c20.48 0 30.72-20.48 30.72-35.84V665.6c5.12-10.24-10.24-25.6-25.6-25.6zM409.6 117.76h199.68v204.8H409.6v-204.8zM312.32 906.24H112.64v-204.8H307.2l5.12 204.8z m599.04 0h-199.68v-204.8h199.68v204.8zM942.08 972.8h-261.12c-20.48 0-35.84-15.36-35.84-35.84v-266.24c0-20.48 15.36-35.84 35.84-35.84H768v-107.52H256v107.52h92.16c20.48 0 35.84 15.36 35.84 35.84v266.24c0 20.48-15.36 35.84-35.84 35.84H81.92c-20.48 0-30.72-15.36-30.72-30.72v-266.24c0-20.48 15.36-35.84 35.84-35.84h102.4V491.52c0-20.48 15.36-35.84 35.84-35.84h256V389.12h-102.4c-20.48 0-35.84-15.36-35.84-35.84V81.92c0-15.36 15.36-30.72 35.84-30.72h261.12c20.48 0 35.84 15.36 35.84 35.84v266.24c0 20.48-15.36 35.84-35.84 35.84h-97.28v66.56h261.12c20.48 0 35.84 15.36 35.84 35.84v143.36h102.4c20.48 0 35.84 15.36 35.84 35.84v266.24c-5.12 20.48-15.36 35.84-35.84 35.84z m-266.24-332.8c-15.36 0-30.72 15.36-30.72 30.72v266.24c0 15.36 15.36 30.72 30.72 30.72h261.12c15.36 0 30.72-15.36 30.72-30.72v-266.24c0-15.36-15.36-30.72-30.72-30.72h-107.52V491.52c5.12-15.36-10.24-30.72-25.6-30.72h-266.24V384h102.4c15.36 0 30.72-15.36 30.72-30.72V81.92c-5.12-15.36-15.36-30.72-30.72-30.72H378.88c-15.36 0-30.72 15.36-30.72 30.72v266.24c0 15.36 15.36 30.72 30.72 30.72h102.4V460.8H220.16c-15.36 0-30.72 15.36-30.72 30.72v148.48H81.92c-15.36 0-30.72 15.36-30.72 30.72v266.24c0 20.48 15.36 35.84 30.72 35.84h261.12c15.36 0 30.72-15.36 30.72-30.72v-266.24c0-15.36-15.36-30.72-30.72-30.72H250.88v-122.88h522.24v117.76h-97.28z m235.52 271.36h-199.68v-209.92h199.68v209.92z m-194.56-5.12h194.56v-199.68H716.8v199.68z m-404.48 5.12H112.64v-209.92h199.68v209.92z m-194.56-5.12h194.56v-199.68H117.76v199.68z m491.52-583.68H409.6V112.64h199.68v209.92zM409.6 317.44h194.56V117.76H409.6v199.68z" /></svg>